<svg id="Layer_1" data-name="Layer 1" xmlns="http://www.w3.org/2000/svg" xmlns:xlink="http://www.w3.org/1999/xlink" viewBox="0 0 797.6 141.47"><defs><style>.cls-1{fill:#1a427a;}.cls-2{fill:none;stroke:#f4f4f4;stroke-miterlimit:10;}.cls-3{fill:#06679a;}.cls-4{fill:url(#linear-gradient);}.cls-5{fill:#21aae2;}.cls-6{fill:url(#linear-gradient-2);}.cls-7{fill:#fff;}</style><linearGradient id="linear-gradient" x1="253.1" y1="96.08" x2="335.31" y2="96.08" gradientTransform="matrix(1, 0, 0, -1, 0, 142.27)" gradientUnits="userSpaceOnUse"><stop offset="0" stop-color="#1387c8"/><stop offset="1" stop-color="#24afe3"/></linearGradient><linearGradient id="linear-gradient-2" x1="299.84" y1="94.95" x2="381.1" y2="94.95" gradientTransform="matrix(1, 0, 0, -1, 0, 142.27)" gradientUnits="userSpaceOnUse"><stop offset="0" stop-color="#cae2f4"/><stop offset="1" stop-color="#18b7d8"/></linearGradient></defs><title>Abu Dhabi Islamic Bank (ADIB)</title><path class="cls-1" d="M33.5,62.33a65,65,0,0,1-2.5-8.6h-.1a69.16,69.16,0,0,1-2.8,8.5L21.2,81H40l-6.5-18.7m17,45.8-7-17.8H17.6L11,108.13H0l27-70h7.7l27.7,70Z"/><path class="cls-1" d="M90.6,47.93H82.4v50.6h8.2c19.4,0,26.6-12.2,26.6-25.9,0-14.1-8.6-24.7-26.6-24.7m-.6,60.2H71.2V38.33H90.4c25.8,0,38.5,14.2,38.5,34.2,0,20.5-13.6,35.6-38.9,35.6"/><rect class="cls-1" x="142.5" y="38.33" width="11.1" height="69.8"/><path class="cls-1" d="M187.9,77.33h-9.4v21.3h8.9c9,0,13.6-4.5,13.6-11.1,0-6-4.9-10.2-13.1-10.2m-9.4-29.4v19.8h7.9a10.06,10.06,0,0,0,10.3-10.2c0-5.8-3.5-9.6-11.1-9.6Zm9.4,60.2H167.4V38.33h21.2c13.4,0,19.5,8.9,19.5,17.2,0,6.5-3.1,12.2-8.9,14.8v.1a17.3,17.3,0,0,1,13.4,17c-.1,9.7-6.8,20.7-24.7,20.7"/><path class="cls-1" d="M585.7,105c-3.5,0-5.3-2.9-5.3-8.7,0-6,1.8-9,5.3-9s5.3,3,5.3,9.1c.1,5.7-1.7,8.6-5.3,8.6m0-21.4c-5.8,0-9.4,4.5-9.6,12a19.44,19.44,0,0,1-.7,5.8,4.9,4.9,0,0,1-4.5,3.3H461.8V85.43c-7.5-.1-13.6.4-13.6,10.8v8.5H430a34.36,34.36,0,0,1,2.1-8.1c2.5-5.4,6.2-5.8,9.8-5.8V87c-7.5-.1-11.5,2.9-14.2,9.7a49.45,49.45,0,0,0-2.5,12.3h27.4V97.23c0-6.8,2.7-7.1,5-7.1V109H571.4a7.78,7.78,0,0,0,6.8-3.8,8.65,8.65,0,0,0,7.5,3.8c6.2,0,9.8-4.6,9.8-12.6s-3.7-12.8-9.8-12.8"/><path class="cls-1" d="M564.4,58.63h-11c1.2-3.5,4.4-14.4,12.1-14.4,3.5,0,5,3.5,5,6.3,0,4.1-1.5,8.1-6.1,8.1m1.3-18.3c-6.5,0-10.4,5.7-12.7,10.8V51l.6-17.7h-4.3v25.3H529.1c-3.6,0-5.8-1.7-5.8-4.8V42.13H519v11.5c0,3.1-1.9,4.9-5.1,4.9H462.1V39.23c-7.5-.1-13.6.4-13.6,10.8v8.5H430.3a34.36,34.36,0,0,1,2.1-8.1c2.5-5.4,6.2-5.8,9.8-5.8v-3.8c-7.5-.1-11.5,2.9-14.2,9.6-1.8,4.5-2.2,9.4-2.5,12.3h27.4V50.93c0-6.8,2.7-7.1,5-7.1v18.9H515v-.1a8.71,8.71,0,0,0,6.5-3.2c1.6,2,4.2,3.1,7.5,3.2h35.4c8.4,0,10.5-8,10.5-12.1-.1-4.4-2.8-10.2-9.2-10.2"/><path class="cls-1" d="M779.4,108.83H768.8v-4.2h4.3V76.13h4.4v28.5h1.8a4.82,4.82,0,0,0,4.2-3.2,16.5,16.5,0,0,0,.7-5.9V76.13h4.3v22.5c0,6.4-4,10.2-9.1,10.2"/><rect class="cls-1" x="793.3" y="76.13" width="4.3" height="32.7"/><path class="cls-1" d="M759.6,88.13v10.6c0,4.9-.9,6-3.6,6h-4.6V88.13h-4.3v16.6h-8.2V88.13h-4.2v16.6H627.4c-3,0-5.3-1.4-5.3-3.2V76.23h-4.3v19.4c0,6-1.7,9-4.9,9h-1.8V76.13h-4.4v28.5h-4.3v4.2H613a8.12,8.12,0,0,0,6.8-3.2c1.8,2.2,4.3,3.2,7.6,3.2H756.1c4.8,0,7.8-2.8,7.8-8V88.13h-4.3"/><path class="cls-1" d="M594.1,58.63H589c-3.6,0-5-4.2-5-7.2s.9-8.2,5-8.2h5.1v15.4m30.8-16.5v10.5c0,3.8-1.8,6-5.8,6H598.4V39.33h-9.5c-5.7,0-9.3,3.9-9.3,12.1,0,8.5,5.4,11.4,9.3,11.4h5c0,2.3-2,5.1-4.7,5.2v3.8h.1c4.7,0,8.5-3.4,9-9v-.1h22.3c.4,0,8.5-.7,8.5-9.9V42.13Z"/><path class="cls-1" d="M634,30.13h4.3v32.7H634Zm-3.6-2.8v-2.4h2.2v-.5c0-1.2.3-5,4-5,2.1,0,3.1,1.1,3.8,3h-2.6a1.21,1.21,0,0,0-1.2-.7c-1.3,0-1.6,1.5-1.6,2.6v.6h5.7v2.4Z"/><path class="cls-1" d="M674.9,43c-3.5,0-5.3,2.4-5.3,8.2,0,5.6,1.8,7.4,5.3,7.4s5.3-1.9,5.3-7.3c-.1-6-1.8-8.3-5.3-8.3m0,19.7h-13c-6.3,0-10-3.8-10-9.9V42.13h4.3v10.5c0,3.8,1.8,6,5.7,6h5.3a12.29,12.29,0,0,1-1.9-7.4c0-7.7,3.7-11.9,9.7-11.9s9.6,4.2,9.6,12-3.7,11.4-9.7,11.4"/><path class="cls-1" d="M787.8,59c-3.5,0-5.3-2.9-5.3-8.7,0-6,1.8-9,5.3-9s5.3,3,5.3,9.1c0,5.7-1.8,8.6-5.3,8.6m-30.4-.4H745.8c1.2-3.6,4.4-14.4,12.1-14.4,3.5,0,5,3.5,5,6.3,0,4-1.4,8.1-5.5,8.1m30.4-21.1c-5.8,0-9.4,4.5-9.7,12a19.44,19.44,0,0,1-.7,5.8,5,5,0,0,1-4.5,3.3h-8.1a15.29,15.29,0,0,0,2.3-7.9c0-4.6-2.7-10.3-9.1-10.3s-10.4,5.7-12.7,10.6v-6.7h-4.2v14.3H701.3c-3.4,0-5.7-1.6-5.7-4.5v-12h-4.3v16.7c0,1.4.2,3.9-.7,5.8a5.32,5.32,0,0,1-4.2,3.3v3.8c5.9.2,9.2-4.8,9.2-10.2v-.4a10.93,10.93,0,0,0,5.7,1.5h72.4a8.4,8.4,0,0,0,6.4-3.8,8.65,8.65,0,0,0,7.5,3.8c6.2,0,9.8-4.6,9.8-12.6.2-7.7-3.5-12.5-9.6-12.5"/><path class="cls-1" d="M439.7,69.43a2.3,2.3,0,1,1-2.3-2.3,2.33,2.33,0,0,1,2.3,2.3"/><path class="cls-1" d="M446.1,69.43a2.3,2.3,0,1,1-2.3-2.3,2.26,2.26,0,0,1,2.3,2.3"/><path class="cls-1" d="M523.3,69.43a2.3,2.3,0,1,1-2.3-2.3,2.26,2.26,0,0,1,2.3,2.3"/><path class="cls-1" d="M629.1,69.43a2.3,2.3,0,1,1-2.3-2.3,2.26,2.26,0,0,1,2.3,2.3"/><path class="cls-1" d="M567,32.23a2.3,2.3,0,1,1-2.3-2.3,2.47,2.47,0,0,1,2.3,2.3"/><path class="cls-1" d="M677.1,32.23a2.3,2.3,0,1,1-2.3-2.3,2.39,2.39,0,0,1,2.3,2.3"/><path class="cls-1" d="M439.7,115.63a2.3,2.3,0,1,1-2.3-2.3,2.33,2.33,0,0,1,2.3,2.3"/><path class="cls-1" d="M446.1,115.63a2.3,2.3,0,1,1-2.3-2.3,2.26,2.26,0,0,1,2.3,2.3"/><path class="cls-1" d="M768.7,118.33V116h2.1v-.5c0-1.2.3-5,4-5,2.2,0,3.1,1.1,3.8,3H776a1.21,1.21,0,0,0-1.2-.7c-1.3,0-1.5,1.4-1.5,2.6v.6H779v2.3H768.7"/><circle class="cls-2" cx="318.8" cy="70.53" r="67.7"/><path class="cls-3" d="M349.3,130.83C311.5,119.53,303.8,89,303.8,89s-11.9-13.5-11.9-14.5S278.6,58,278.6,58l-3.3-7.7H258.4l-5.4,4.9a72.25,72.25,0,0,0-1.9,15.5,67.71,67.71,0,0,0,67.7,67.5,69.08,69.08,0,0,0,30.7-7.3C349.4,130.93,349.4,130.93,349.3,130.83Z"/><path class="cls-4" d="M327.3,3.83c-.2,0-.4-.1-.6-.1-.6-.1-1.2-.1-1.7-.2q-3-.3-6-.3h-.1a67.86,67.86,0,0,0-62.4,41.4h0a24.88,24.88,0,0,0-1.1,2.9c-.1.2-.1.3-.2.5-.3.8-.6,1.7-.9,2.5-.1.2-.1.4-.2.6a23.35,23.35,0,0,0-.7,2.5,1.42,1.42,0,0,1-.2.6c0,.2-.1.3-.1.5l.1.6,6.9,9.9a68.56,68.56,0,0,0,36.7,22.6h0a.37.37,0,0,1,.3.1c.6.1,1.3.3,1.9.4,1.2.2,2.4.4,3.7.6l.3.1c.3,0,.5.1.8.1V89l6.9-14.9,6.3-20.2,13.5-28.5,4.7-20A50.24,50.24,0,0,0,327.3,3.83Z"/><path class="cls-5" d="M377.3,36.73l-13.5,3.6L338.8,56l-24.5,21.5-10.4,11.6s7.7,30.5,45.5,41.8h.3a67.84,67.84,0,0,0,37-57.7v-2.4A69.9,69.9,0,0,0,377.3,36.73Z"/><path class="cls-6" d="M371.1,53.33c6.6-7.9,9.3-9,10-9.1a67.79,67.79,0,0,0-45.9-38.9c-51.8,32.2-31.4,83.6-31.4,83.6,22.9,2.1,40-5,52.2-14.1,2.9-2.2,3.2-12.2,5.5-14.5S369.3,55.43,371.1,53.33Z"/><path class="cls-7" d="M386.5,67.83v-.4a67.73,67.73,0,0,0-103.7-53.8c.8-.4,1.6-.9,2.5-1.3a73.22,73.22,0,0,1,16.1-4.9c16.7-2.2,35.5,3.2,51.1,15.5l-36.7-4.3,40.6,14.3-56.7,15.8,56.2-6.3-41.7,38.4,45.4-30.2-19.9,58,30.6-52L368.9,91l10-31.3a67,67,0,0,1,2.7,30.2,72,72,0,0,1-6.7,18.9c-.4.7-.9,1.4-1.3,2.1a68.32,68.32,0,0,0,12.9-34.8,2,2,0,0,1,.1-.8c0-.6.1-1.2.1-1.8v-2.9C386.6,69.63,386.5,68.73,386.5,67.83Z"/></svg>