<svg id="Layer_1" data-name="Layer 1" xmlns="http://www.w3.org/2000/svg" xmlns:xlink="http://www.w3.org/1999/xlink" width="3315.2" height="2717.8" viewBox="0 0 3315.2 2717.8">
  <defs>
    <style>
      .cls-1 {
        fill: none;
      }

      .cls-2 {
        clip-path: url(#clip-path);
      }

      .cls-3 {
        fill: #ee343f;
      }

      .cls-4 {
        clip-path: url(#clip-path-2);
      }
    </style>
    <clipPath id="clip-path">
      <rect class="cls-1" x="997.1" width="1321" height="1824.46"/>
    </clipPath>
    <clipPath id="clip-path-2">
      <rect class="cls-1" x="997.1" width="1295.5" height="1824.46"/>
    </clipPath>
  </defs>
  <title>Government of Abu Dhabi</title>
  <g>
    <g class="cls-2">
      <path class="cls-3" d="M2271,815.2c-28.7,23.2-55.9,46.6-145.2,98l-23.3,12.6V909.1c0-1.9,6.5-228.7-103.7-424.2-7,9.2-30.2,38.8-54.1,69,14.1-1.6,28.3,2.2,41.3,14.8,22.8,22.4,60,76.3,81.6,132,11.7,35,20.9,82.8,18.5,123.6h0s-13.3,231-39.7,452.2c-24,201-37.2,227.4-37.2,227.4-15.4-18.5-21.7-42.1-25.3-55.5l-2.3,1.9s-14-20.1-22.3-59.6c-9.6-45.1-11.3-125.7-10.3-164.7v.2s.6-11.3-8.8-30.8a140.5,140.5,0,0,1-10.3-28.2c0-.2-.1-.3-.1-.4-14.5-61.8-42.7-79.2-58.3-98.4-18.8-23.1-32.5-47.2-40.8-67.1l-1.6,1.3c-10.3,9.8-18,19.8-18.3,25.4,3.5,36.1,6.8,61.8,1.4,80.2-2.2-1.2-5.6-4.7-7.5-6.2,2.4,23.9-8.9,51.6-1.7,73.5l-14.1-1.9a22.2,22.2,0,0,0,1.5,3.5,20.8,20.8,0,0,0,7.2,6.1l4.6,2.2c1.3.5,4.8,1.9,14.5,5.1,8.2-18,1.9-35.3-6.2-45-6.7-8.2,1.4-20.1,15.3-14a198.8,198.8,0,0,1,58.1,38.9c29.5,28,38.2,55,31.9,60.3-4.8,4.2-8.5,3.3-14.3,1.2a16.4,16.4,0,0,1-.5,3.2c-1.6,5.3-6.1,9.2-12.7,11l-.6,1c-3.2,4.5-8.3,6.1-17.2,5.9s-16.1-4.6-17.2-5.2a25.4,25.4,0,0,1-5.9-4.2l-5.2,4.2c23.3,31.5,68.1,83.3,100,140.3,22.9,40.7,33.4,74.7,33.4,74.7s-12.2,3.9-28.2.4c5.7,16.2,8.7,30.5,7.6,41.6-12.4.4-28.5-1.1-45.3-10.6.5,2.6.9,5.3,1.4,7.9,14.2,10.4,30.3,22.2,37.4,27.2-70.1,32.8-171.6,17.8-173.6,17.5l-13-1.8c-.6,1.7-1.5,4-2.5,6.3,6.9,16.3,22.8,54.1,26.3,61.6,44.5,20.4,85.9,33.7,149.7,23.1,0,0,10.8-1,38-10.2s80.3-40,120.4-77.7c49.9-46.9,80.3-96.3,90.2-115.6,77.5-151.4,90.3-376.1,90.3-466.9,0-29.6.1-45.7.1-47.1-.5-30.5-2.2-80.3-3.4-103.3"/>
      <path class="cls-3" d="M1515.5,1611c3.1-8.3,17.1-41.9,24.2-58.9-.9-3-1.9-5.9-2.7-8.8-9.7,1.6-19.4,3-29.2,4-6.4.6-102.9,15.5-173-17.4,8.5-6,24.5-19.1,46.2-33,.2-1.5.5-2.9.7-4.3a84.1,84.1,0,0,1-45.3,10.5c-1-11,1.9-25.3,7.6-41.6-16,3.6-28.2-.3-28.2-.3s10.6-34,33.4-74.8c21.4-38,51.2-76.5,76.6-108.3,2.7-12.5,12.5-23,13.6-24.2l4.2-4.6c-2.9-2.5-5.7-4.8-8.3-6.8a20.7,20.7,0,0,1-6.9,5.3c-8.1,3.7-13,5-17.2,5.2-9,.3-14-1.5-17.2-5.9l-.6-1.1c-6.6-1.8-11.1-5.6-12.7-10.9a9.5,9.5,0,0,1-.5-3.3c-4.9,1.6-8.3,2-12.7-1.7-6.3-5.4,2.3-32.4,31.8-60.4a198.8,198.8,0,0,1,58.1-38.9c13.9-6.1,22.1,5.8,15.4,14-8.2,9.8-14.5,27.1-6.2,45.1,8.5-2.8,11.8-4.2,13-4.7,3.4-1.3,7.3-2.4,11.7-8.1a15.8,15.8,0,0,0,1.4-3.1l-12.3,1.4c6.3-15.5-3.4-53.3,3-77.9-1.7,1.2-6,4.1-8.5,4.9-4.5-22.4-3.9-57.8-2.1-75.1-.3-4.5-6.6-12.3-15.3-21.1-6.8,17.6-18.8,39-39.1,64-15.6,19.2-43.8,36.6-58.3,98.4,0,.2-.1.3-.1.4a144.5,144.5,0,0,1-10.3,28.2c-9.5,19.5-8.8,30.9-8.8,30.9v-.2c1,38.9-.7,119.5-10.3,164.6-8.3,39.6-22.4,59.6-22.4,59.6l-2.2-1.9c-3.7,13.5-10,37-25.4,55.5,0,0-13.2-26.3-37.2-227.3-26.3-221.3-39.7-452.3-39.7-452.3h.1c-2.5-40.9,6.7-88.7,18.5-123.7,21.6-55.7,58.7-109.6,81.6-132,14.2-13.9,30.1-17,45.4-14.1-4.3-5.8-9.1-12.2-9-12.2-15.2-20.1-32.8-42.2-47.8-62.1-108,190.4-105.3,417.5-105.3,419.4v24.2l-19-10.1c-85-48.2-121.9-77.4-149.5-100.3-1.2,23-3.5,101.3-3.5,101.3s0,17.8,0,47.5c0,90.8,16.3,313.7,90.3,466.8,10.3,19.1,38,70.3,88,117.2,37.9,35.7,82.2,61.1,131.2,76.8l11.4,3.8c56.6,17.9,118.2,14.2,178.8-16.1Z"/>
      <path class="cls-3" d="M1561.5,1668.6c1.2-26.7,5.6-66.7,11.4-101.8-8.9,8.5-16.1,12.7-16.9,12.6s-2.8-1.5-4.5-3.7l-40.8,100c11.2-9.4,28.8-16.3,50.8-7.1"/>
      <path class="cls-3" d="M1725.7,1695.4c1.3-28.2-10.1-103.7-17.1-146.8-.8-1.1-1.6-2.3-2.3-3.5s-2.8-3.9-4.1-6a185.3,185.3,0,0,1-9.7,26.8c-4.8,10.6-12.4,21.7-13.9,21.5s-21.6-14.4-34.5-42.5c-13,27.6-33,41.7-34.2,41.9s-9.1-11-14-21.6q-3.2-7.2-5.7-14.4c-6.6,45.2-16.5,117.8-15.3,144.6-42-27.8-67.5-.1-58.8,19.3a38.5,38.5,0,0,0,2.8,4.5c5.1,6.7,11.7,10.3,20.9,11,13.5.9,31.4,2.3,51.6,11.8,18.6,8.7,38.6,23.1,58.9,48.5,20.3-25.4,40.4-39.8,58.9-48.5,20.3-9.5,38.2-10.9,51.7-11.8,9.2-.7,15.6-4.8,20.8-11a22.7,22.7,0,0,0,2.8-4.5c8.7-19.4-16.8-47.1-58.8-19.3"/>
      <path class="cls-3" d="M1740.6,1579.4c-.6,0-6.4-3.3-14-10,5.9,31.1,11.2,69.9,12.6,99.2,22-9.2,39.6-2.3,50.8,7.1l-41-105.4c-3.9,5.2-7.5,9.2-8.4,9.1"/>
      <path d="M1923.7,873.2s-9.3-21.3,12.3-85.6c-31.5,65.5-27.3,83.2-20.3,105.5,13.4-9.5,18.8-15.9,21.7-30.8-5,7.3-13.7,10.9-13.7,10.9"/>
      <path d="M1902.8,817.4s-7.6-14.5,11.7-70.4c-35.2,53.2-19.8,90.3-19.8,90.3s18.5-9.2,23.3-29.3c-5.3,6.8-15.2,9.4-15.2,9.4"/>
      <path d="M2029,722.3c-5.7,56.4-10.4,67.9-16.3,77.7-5-3.4-9.2-15-9.2-15-1.8,10.2.6,25.9,9.4,34.2,11.8-14.7,20.1-45.9,16.1-96.9"/>
      <path d="M2017.9,684.6c-9,63.1-18.9,77.5-26,88.3-5-3.9-9.7-19.4-9.7-19.4-2.5,11.3-.5,29,8.9,38.6,13.7-16,28.9-50.1,26.8-107.5"/>
      <path d="M1970.5,745.6a92.3,92.3,0,0,1-4.6-34c-8.5,24.5-6,44.9,2.8,55.2,14.6-15,35.6-62,32.9-105.6-8.7,52.2-23.5,74.2-31.1,84.4"/>
      <path d="M1947.9,709.7c-4.3-17.7-2-44.3-2-44.3-10.9,23.8-9.5,56.2-1.8,67.2,16-13.7,38-54.4,39.5-98-13.7,51.3-27.2,65.6-35.7,75.1"/>
      <path d="M2024.7,816.3c-.9,13.1,10.5,21.3,10.5,21.3s18.4-26.3,11.2-71.9c-3.8,42.5-13.2,57.2-13.2,57.2s-7.4-3.5-8.5-6.6"/>
      <path d="M2046,835.8c-.3,11.5,10.1,18.4,10.1,18.4s15.2-23.7,7.3-63.6c-1.9,37.5-10.8,51.4-10.8,51.4s-5.4-3.5-6.6-6.2"/>
      <path d="M1277.2,801.9c-6-9.8-10.6-21.4-16.3-77.7-4,50.9,4.3,82.2,16.1,96.8,8.7-8.3,11.1-23.9,9.3-34.1,0,0-4.2,11.6-9.1,15"/>
      <path d="M1298,774.7c-7.1-10.8-17.1-25.2-26-88.2-2.1,57.4,13,91.5,26.7,107.5,9.5-9.7,11.4-27.3,9-38.7,0,0-4.7,15.5-9.7,19.4"/>
      <path d="M1319.4,747.5c-7.6-10.2-22.5-32.3-31.1-84.5-2.8,43.6,18.2,90.6,32.9,105.6,8.7-10.3,11.3-30.7,2.7-55.2a91.6,91.6,0,0,1-4.5,34.1"/>
      <path d="M1342,711.6c-8.6-9.6-22.1-23.9-35.8-75.2,1.6,43.7,23.6,84.3,39.5,98.1,7.8-11,9.2-43.4-1.7-67.2,0,0,2.2,26.6-2,44.3"/>
      <path d="M1256.7,824.7s-9.5-14.7-13.3-57.1c-7.1,45.5,11.3,71.8,11.3,71.8s11.4-8.2,10.5-21.2c-1.2,3-8.5,6.5-8.5,6.5"/>
      <path d="M1237.2,843.9s-8.9-14-10.8-51.5c-7.9,39.9,7.4,63.6,7.4,63.6s10.3-6.9,10-18.4c-1.1,2.7-6.6,6.3-6.6,6.3"/>
      <path d="M1366.1,875s-8.6-3.5-13.7-10.9c2.9,15,8.3,21.4,21.8,30.8,6.9-22.3,11.1-40-20.3-105.5,21.6,64.3,12.2,85.6,12.2,85.6"/>
      <path d="M1387.1,819.3s-9.9-2.6-15.2-9.4c4.7,20,23.2,29.2,23.2,29.2s15.5-37-19.8-90.2c19.3,55.9,11.8,70.4,11.8,70.4"/>
      <path d="M1545.3,1090.7c3.5-29-12.2-54.1-14.8-66-3.1,3.5-3.3,13.1-3.3,13.1-10.4-11-13-30.5-15.2-37.2-2.4,19.9-9.4,29.7-11.8,39.3a26.6,26.6,0,0,0,12.7-4.6c5.2,24.1,25.2,29.5,32.4,55.4"/>
      <path d="M1756.2,1039.6s-.2-9.6-3.3-13.1c-2.5,11.9-18.3,36.9-14.8,66.1,7.2-26,27.2-31.4,32.4-55.5a26.6,26.6,0,0,0,12.8,4.6c-2.5-9.6-9.6-19.4-11.9-39.3-2.2,6.7-4.8,26.2-15.2,37.2"/>
      <path d="M1600.1,1010.8c-2.9-9.7-8.2-42.6-20.8-56.9-5,24,10.6,46.8,20.8,56.9"/>
      <path d="M1679.8,1042.8c5.6-13.5,17.6-26.6,17.1-69.8-12.9,12.9-18.4,53.4-17.1,69.8"/>
      <path d="M1654.4,1059.6c6.6-17.4,6.2-39.1-1.2-48.5-5.8,18.6-6,35.1,1.2,48.5"/>
      <path d="M1634.9,1007.6c6.6-19.9,5-44.1-3.5-54.5-5.6,20.2-5.3,38.8,3.5,54.5"/>
      <path d="M1773.6,830.4c-11.9,16.2-15.4,52.8-19.1,65.1,4.3-3.8,26.3-55.9,19.1-65.1"/>
      <path d="M1774.6,771.6c-.2-.6,20-35.1,8.7-54.3-13.2,2.9-8.3,54.5-8.7,54.3"/>
      <path d="M1717.2,856.1c0-.3,31.1-30,30-67.5-8.8,25.2-30,35.8-30.1,35.8a46.2,46.2,0,0,1-17.1-23.6c-4.1,38,17.4,55.5,17.2,55.3"/>
      <path d="M1778.4,813.3c8.4-13.2,19.9-32.2,10.4-44.6-4.5,12.3-6.6,26.5-10.4,44.6"/>
      <path d="M1681.4,960.2c5.3-12.5,19.2-35.8,16.3-62.9-11.9,10.2-17.5,46.8-16.3,62.9"/>
      <path d="M1726.3,920.2c18.4-22.8,28.1-49,20.1-75.9-16.5,25.7-16.9,51.9-20.1,75.9"/>
      <path d="M1686.1,840.5c-5,18.1-13.1,30-26.6,43.7-5.7-5.3-11.4-11.6-19.1-27.1-3.1,30.1,14.1,47.7,24,54.3,6.1-5.1,26.3-33.6,21.7-70.9"/>
      <path d="M1605.5,917c-3.8-1-22.1-18-27.6-28.6,2.8,17,26.2,50.6,37.4,57.5,3.7-6.1,17.4-33.3,5.4-76.5-5.1,26.1-10.4,39.3-15.2,47.6"/>
      <path d="M1496.6,711.3c-2.3-15,16.2-28.7,9.8-52.8-18.4,20.8-14.8,40.5-9.8,52.8"/>
      <path d="M1534,888.7c10.5,17.5,18.6,25.5,26.8,33.9-13-19.8-23.3-56.2-36.1-66-1.2,5.4,3.4,22.1,9.3,32.1"/>
      <path d="M1525,807.3c-7.2,30.3,23.2,59.5,23.4,60s0-36-23.4-60"/>
      <path d="M1546.5,750.2c-.4,12.9-.2,24.8-3.3,38.9-8.6-2.1-12.7-7.9-19-13.3,5.2,17.2,26.5,37.1,29.8,42,3.1-23.4,4-51.8-7.5-67.6"/>
      <path d="M1533.1,671.7c8.5-30.4,25.6-47.8,31.5-65.4-30.5,21.5-36.8,54.7-31.5,65.4"/>
      <path d="M1507,805.1c-4.1-25.8-2.4-43.1-15.1-65.8-4,27.2,12.3,61.8,15.1,65.8"/>
      <path d="M1583,704.6c-20.5,25.5,11.1,57.4,10.9,57.8s2.6-48.4-10.9-57.8"/>
      <path d="M1598.1,634.9c-30.3,22.8-15.9,44.2-10.5,55.9,6.2-22.2,8.8-28.3,10.5-55.9"/>
      <path d="M1616,840c5.2-11.5,19.9-33.2,12.3-69.3-2.7,27.2-20.1,39.3-20,39.2s-9.8-5.4-17.6-21.8c2.6,33.1,15,42.7,25.3,51.9"/>
      <path d="M1770.8,638.6c-2.2,17.1,17.7,56.1,18.5,59.2.5-2.9,11.4-35.4-18.5-59.2"/>
      <path d="M1729.8,570.6c-2.8,14.6,20.9,36.8,20.8,36.9s3.1-28.1-20.8-36.9"/>
      <path d="M1764.2,682.3c-7,32.3-21,44.6-21,44.5a138.1,138.1,0,0,1-20.7-21.5c-.6,26.1,21.8,51.4,21.4,51.3s27.3-22,20.3-74.3"/>
      <path d="M1699.3,622.1c-12.2,13.3-.8,39.5,6.2,63.1,6.5-11.5,14.2-50.6-6.2-63.1"/>
      <path d="M1709.8,585c-.2-11.6-3.6-31.9-30-35.7-1.7,13.6,21.5,22,30,35.7"/>
      <path d="M1680.9,535.6c6.1,6.1,25.4,10.6,36.1,20.7-1.4-16.6-18.3-26.9-36.1-20.7"/>
      <path d="M1654.5,610.8c-18.5,20-7.2,36.9-7.2,36.7s22.7-24.4,7.2-36.7"/>
      <path d="M1682.3,803.1c-.1.1,23.4-21.8,25.5-66.8-13.1,22.2-27.6,34.7-27.6,34.7a120.4,120.4,0,0,1-22.8-21.2c.1,28.6,25.2,53.4,24.9,53.3"/>
      <path d="M1647.7,679.5c-20.8,31.1,0,63.5-.1,63.4s14.3-43.3.1-63.4"/>
      <path d="M1654.8,457.3c5.7,5.7,23.8,13.4,33.9,22.8-1.4-15.5-15-23.9-33.9-22.8"/>
      <path d="M1664.2,475.3a54.6,54.6,0,0,0-32-18.2c8.5,10.4,17.3,19.2,32,18.2"/>
      <path d="M1701.7,507.1c-.7-3.4-9.3-15.4-27.5-19.3,4.9,4.7,8,13.1,9.7,16.1-3.5,1.9-13.1,2.9-16.4,3.4,6.7,4.7,19,5.8,34.2-.2"/>
      <path d="M1538,462c-1.7,1-3.2,6.1,2.7,6.4s5.9-5.4,5.9-5.4-6.2-2.6-8.6-1"/>
      <path d="M1696.5,151.3c-5.7-4.2-9.5-7.2-15.6-11.3-5.2,3.5-11.3,8.5-15.1,11.6,5.3,4,9.2,7.1,14.9,11.2,6.1-4.5,8.9-6.7,15.8-11.5"/>
      <path d="M1616.3,449.2c8.9.5,17.3-.1,26.7,1.6-27.1-14.1-65.2-12.4-76.2-7.4-7.5,3.3-14.1,12.8-14.1,18.8,4.5-3,7.7-2.8,9.6-5.2,3.3-4,3.4-6.4,6.7-6.7a18.6,18.6,0,0,0-1.9,8.5c.4,10.4,10.7,16.5,20.5,14.2s12.1-8.1,13-14.3-1.2-10-1.2-10,5.9-.1,16.9.5m-21.4,4.1c-1,1.7-2.6,2.4-3.9,1.9s-8.2-3.4-7.2-5.1,9.5-1.9,10.7-1.2,1.3,2.6.4,4.4"/>
      <path d="M1725.7,198.9c-.1-6.2-4.1-11-7.2-13.9s-11.1-6.6-17.5-7.3-13.4.3-19.9,1.8c-18.3,4.3-33.4,10.6-44.1,15.3-.2-6.4-1-22.2-1.7-30.8,5-3.9,9.1-6.2,13.4-11.3-11.2-4.2-15.8-8.1-20.8-17-4.6,2.9-9.3,6.1-8.7,13.2.2,2.7,4.2,45.9,5.6,57.3-5.8.2-126.7,5.2-192.7,23-7.7-18.9-29.7-30.7-37.5-32.5-21.8,18.4-25.1,37.6-25.8,44.9,14.8-1.3,24.9.2,30.5,5.4-10.1,12.7-51.7,24.2-63.1,10.1s6.2-37.2,9.8-41.5c-27.4,19.2-39.8,66.2,5.4,64.1a88.2,88.2,0,0,0,41-14.3c13.2-9.2,17.6-12.6,23.2-23.1,0,0-4.1-12.3-28.2-13.7.1-2.6,7.9-24.8,27-4.3,6.5,6.7,14,25.3,14,25.3,71.7-19.7,217.8-27.5,292.5-23.4a78,78,0,0,0,4.8-27.3m-19.5,7c-9.6-.3-24-.4-29.5-.5-13.6-.3-24.5.1-37.2.3,22-9.2,56.6-22.9,65.9-7.6,2,3.1,1.6,5.1.8,7.8"/>
      <path d="M1394,278.9c-4.3-1.4-8.2-2.6-13.4-4-3.4,4.9-7,11.4-9.4,15.6l18.5,5.8c2.8-4.4,4.5-7.1,6.9-10.7l13.1,4.1c3.9-6.1,5.6-9.1,10.1-15.6-7.1-2.2-11.9-3.9-19.2-5.9-2.3,3.3-4.6,7.2-6.6,10.7"/>
      <path d="M1945.8,223.2c14.9-1.2,28.5,2.4,34.8-4.4-9.2-2.8-18.6-5.2-21.8-9.8,4-3.2,9.6,1.2,12.5,3.6l5.5-5c-9.5-7.9-24.6-3.2-27.9,4.9,2.8,1.4,6.9,2.9,8.5,4.8a55,55,0,0,0-11.6,5.9"/>
      <path d="M1937.3,250.7c-6,13.9-11.2,28-18.1,40.6,4.1,1.7,9.7-1.8,13.6-4.2,18.3-11.2,31.5-42.1,38.7-60.5.1-.7-10.7,2.2-16.4,4.7-10.8,4.8-12.8,7.7-17.8,19.4"/>
      <path d="M1798.8,257.3c4.6,4.5,8,8,12.9,12.9,6.8-3.7,10-5.5,17.5-9.4-5-4.9-8.2-8.4-13.5-13.2-5.7,2.8-12.5,7-16.9,9.7"/>
      <path d="M1913.1,211.3a102,102,0,0,0-16.9,14.1c3.6,6.4,9.3,10.7,7.3,19.5-30.7-10.5-71-21.3-102.5-25.1,1.3-12.1-1.5-28-12.7-30.9-14.3-3.7-24.2,10.5-30.2,18.3-13,17.2-6.6,24.5,20.3,28.6a99,99,0,0,1-48.2,14.2c-5.3.1-7.6.1-15-.3,13.4,5.6,25.8,10.7,45.1,13,13.2-3.1,25.8-15.5,34.1-24.7,31.1,3.1,87.5,17.5,113,27.4,4.6-6.3,12.1-12.4,15.1-22.5s-1.5-27.2-9.4-31.6m-129.2,6.6-3.9-.3c-7.2-1.1-12-2.6-14.4-6.3a20.7,20.7,0,0,1,8-8.6c6.5-2.3,13.7,7.4,10.3,15.2"/>
    </g>
    <g class="cls-4">
      <path d="M1437.2,266.6l17.5,7.8c4.7-5.7,6.9-8.4,12.2-14.5-6.7-2.9-11.2-5-18.2-7.8-4.2,4.5-8.6,10.7-11.5,14.5"/>
      <path d="M2291.8,909.1c3.2-343.3-72.2-535.5-137.6-629.9,22.3-29.4,36.1-47.5,37-48.4,6.6-6.6,17.9-17,41.3-20.3,6.4-45.3,23.3-99,23.3-99s-45.2,32.6-87.5,50.8c3.2,22.8-2.6,36.7-8.4,45-.8,1.2-11.3,15.3-28.7,38.3-28.3-33.3-62.3-64-110.9-92.1-11.7-6.6-24.3-13.1-37.8-19.2.9-18.4-5.5-35.8-17.6-48.2-.5-10.6-9.5-24-20.3-28h0c-11.2-3-28,2.2-36.3,10-18.3,2.6-35.9,12.2-48.8,26.6-40-8.5-85.6-14.8-137.8-18a80.5,80.5,0,0,0-42.9-53.9c-5.2-11-20.5-22.1-33.6-22.8h-.2c-13.1.7-28.4,11.8-33.6,22.8a80.5,80.5,0,0,0-42.9,53.9c-52.2,3.2-97.8,9.5-137.8,18-12.9-14.4-30.5-24-48.8-26.6-8.3-7.8-25-13-36.3-10h0c-10.8,4-19.8,17.4-20.3,28-12.1,12.4-18.5,29.8-17.6,48.2-13.5,6.1-26.1,12.6-37.8,19.2-48.7,28.2-79.6,54.5-108.7,90.8-15.8-20.9-25.3-33.5-26-34.6-5.8-8.4-11.7-22.2-8.5-45.1-42.2-18.2-87.5-50.8-87.5-50.8s16.9,53.7,23.4,99c23.3,3.3,34.6,13.7,41.2,20.3.9.9,13,16.7,32.8,42.8-65.7,93.7-142.3,287.5-139,633.1.3,32-13.4,331.3,84.2,533.1,11,20.4,40.2,74.6,93.6,124.7a356.6,356.6,0,0,0,155.5,86.6l7.2,1.9c73.4,20,136.5,8.6,161.9-6.2l-3.7,9.1c-1.1,2.4-2.5,6.1-3.3,8.2-13.6,37.1-4.5,75.6,45.6,81.3,13.3,1.5,28.1,2.1,45.4,10.2,12.2,5.7,25.8,14.9,40.7,30.4,6.2,6.4,19.2,23.1,25.6,36.1h0c6.5-13,19.4-29.7,25.7-36.1,14.9-15.5,28.5-24.7,40.6-30.4,17.4-8.1,32.2-8.7,45.4-10.2,50.2-5.7,59.5-44.1,45.7-81.1-.8-2.2-2.3-6-3.3-8.4l-3.8-9.1c34.9,20.2,141.7,35.8,244.3-29.3,70.2-44.5,121.6-95.1,162.8-176.2,97.6-201.8,84.5-507,84.1-534.5m-22.3-119.3c-10.7,9-64.1,54.3-148.5,102.3-1.9-50.4-1.8-229.1-110.3-422.7l30.7-40.8c9,9.3,17.7,14.4,34.5,19.4-.7-38.4,7.7-59.4,18.3-81.8,15.3.4,41.6,1,82.8-7.8,54.7,117.1,82.4,252.3,92.5,431.4M1978.7,941c-4.8-12-9.7-31.5-5.8-93.8-4.6,23.5-7,41.5-8,55.8a52,52,0,0,1-12,7.9c-2.1-6.4-8.4-15.5,2-93.7-26.1,84.7-11.6,107.7-9,113.8a64.7,64.7,0,0,0,18.4-15.7c-.5,25.1,4.4,35.6,8.4,44.7,9.9-5.3,15.7-12.7,22.3-22.2-.8,26.5,5.9,42.6,5.9,42.6s19.7-21.7,24.5-37.8c-.4,10.2,6.6,40.5,12.4,45.9,21.7-28.5,29.1-109.6,29.1-109.6l3.2,2.3c-1.2,19.8-6.6,85.4-6.6,85.5-3.4,40.4-7.5,86.1-11.1,126.7l-1.8,19.9c-1.3,15.4-2.9,30.8-4.3,46.1q-2.1,19.6-3.9,38.4c-1.4,13.2-2.9,26.5-4.4,39.8-9.5,86.2-17.8,146.7-17.8,146.7s-1.8,15.9-4.5,24.6c-3-9.7-3.8-48.7-1.9-69.7.5-5.3-7.4-14.1-6.9-43.4.2-11.8,13.4-161,18.1-219.5,1.1-13.2,1.5-23,1.5-23.2-.4,1.9-.9,4-1.3,6.3-2.9,13.5-5.4,27.2-7.3,40.9-1.5,8.6-2.7,17.2-4.1,25.7-2,13.3-3.9,27.4-5.9,41.9-5.4,43.2-11.2,86.7-12.2,130.3-.7,27.9,8.4,35.7,7.6,41.9-5,34.7-1.2,68.4,6.3,87.6,3-.9,4.9-3.8,5.9-5.3a470.4,470.4,0,0,1-10.8,47.6c-10.3-22.2-16.2-46.1-14.4-105.3.1-4.6-8.6-18-10.2-48.5-1.7-35.1,6.5-107.8,9.1-144.5,3.9-49.2,7.9-97,9.6-118.9.4-4.6,2.3-21.6-1.2-2.3-4.4,24.4-9.2,48.7-12.6,73.2-2.4,17.3-3.9,33.6-6.3,50.6-2.1,18.6-4,38.1-5.7,58.1-1.8,21.9-3.4,44.4-4.5,66.9-2,37.5,12.1,65.5,11.5,70.9-1.9,18.7-1.8,17.5-1.3,33.9.6,19.5,2,22.3,2,22.3-6.4-14.5-26.9-63.1-20-214.9.2-3.7.4-7.4.5-11.2,5.6-105.7,14-174.7,14-174.7-9.8,29.5-18.3,93.2-24.1,167-5.2-8.5-8-18.5-9.8-28a195.2,195.2,0,0,1-3.5-34.1c-.2-9.3.1-18.7.7-28,3.6-55.5,10.2-101.2,10.2-101.2s-8.5,27.4-14,56c-4.5,22.1-8.6,45.4-8.6,68-21.1-31.5-12.1-94.6-1.7-159.9-9.2,20.9-26.1,79.8-21.5,124.1-31.6-29.8-14.5-88.8-2.5-156.5-18,40.3-31.2,89.6-26.8,122-25.7-33.4-16.1-77.6,6.9-164.3-13.9,22.8-33.2,77.7-34.3,111.4-16.8-39.3,2.6-104.6,19.3-157.4-13.1,18.8-38.3,77.8-37.7,118.9-15.6-40.5,9.6-121,33.9-165.9.2,13.2,3.2,16.9,6.5,22.5,4.7-51.5,36.9-88.9,42.5-124.9a107.9,107.9,0,0,0,3.6,15.7c11.9-20.1,21.8-43.8,29.2-73.3,2,2.3,5.9,11.1,5.9,21.3,16.1-44.5.6-62.6-4-65.3-12.2-7-26.7,4.3-38,16.8-17.1,18.9-34.8,56.6-91.7,57.5-9.4.2-12.9-2.1-8.1-2.9-.5,0-.4,0,.2-.1,47.2-8.7,55.6-27.7,95-70.6,24.5-26.6,49-42.1,77.9-7.9,56.4,66.3,74.4,122.2,84.5,168.2,5.7,26.1,9.6,81.7,2.5,108.8-6.6-2.4-7-4.2-7-4.2s-7.4,75.7-20.4,94.6c-3.8-8-9.1-27.9-9.1-45.9-7.3,22.4-13.8,34.4-23.6,47.2-5.2-18.9-5.2-36.5-2.7-57.1-11.4,27-20,38.6-26.2,42.9M1845,754.1c-11,41.6-24.9,90.2-31,170.6-5.4-16.8-11.5-124.3,31-170.6m-28.7-70c7.8,4.1,19.2,24.6,5.6,65-.9-37.7-5.9-46.5-5.6-65m56.7,8.5c0,30.5-6.1,52.8-16.6,90-1.2-39.3,7-79.3,16.6-90m10,36.3c-1.4-27.4,5.7-57,11.6-70.8,2.2,14.1,1.9,31.7-1.4,45-2.3,9.1-6.7,17.7-10.2,25.8m-79.7,323.2v.3c1.3,16.3,3.6,32.7,2.4,39.3l-7.8-8.1s-.8,22.4-4.5,61.3a107.7,107.7,0,0,0,.7,21.2c-8.7-1.2-15.8-6-18.7-7.6,2.9,10.4,5.4,20.1,8,23.7a29.1,29.1,0,0,0,10,8.6l5.1,2.4c4.5,2,16.9,5.9,17.4,6.1l23.6,6.2c4.2,1.2,9.7,2.3,14.1,3.5,11,3.4,24.5,8.7,29.1,11s11.1,8.7,9.9,12.9-8,5.5-10.3,5.5l-1.4,2.8c-4.2,6.3-17.6,2.5-21,.9s-6.6-4-7.3-5.1c.7,1.1,5.1-.6,7.9-1.7a3.4,3.4,0,0,0,2-2.3c.5-4.2-12.6-6.2-20.5-7.8a126.1,126.1,0,0,0-16.4-1c-5.2.1-6.9,1.1-8.8,4.5s-2.9,6.9,16.7,28.4l2.6,2.8c3.2,3.4,9.9,12,11.4,20.6a40.9,40.9,0,0,1,1,8.2c-.4,9.1-5.8,14.2-13.3,13.8-11.7-1.3-5.7-13.7-12.3-6-2.7,3.2-11.5-7-13.9-9.4a30.7,30.7,0,0,0,6.8.4,4.9,4.9,0,0,0,3.1-1c.9-.6,1.3-1.8,1.4-3.4,0-4.2-2.7-9-6.9-14.1s-7.9-9.7-11.3-14.7c-5-7.3-7-7.5-8.6-7.2l-.6.2c-3.2,1.6-1.2,19.1,3.8,29.6,10.4,22.3,12.2,37,4.9,41.2l-.6.4v.7c1.1,7.8,1.1,16.7-8.6,22l-.9-.9c2.4-7.8.1-12.5-.5-16.2-.2-.8-.7-3.4,5.7-5.1l.6-.3h-.4c-2.5.2-8.1.6-10.4.2-4.4-.7-9.3-1.5-10.2-9.8l-.9-8.5c-1.4-12.8-3.7-24.2-5.5-33.1s-4.8-34.7-4.8-34.7a14,14,0,0,0-4.9-.6c-3,.3-7.1,1.8-9.4,7.5a16.4,16.4,0,0,0-.2,8.3c-2.5-1.2-6.2-3.9-6.5-8.8v-.5l-.4-.2c-3.7-2.6-5.4-5.6-5.9-8.7-1.3-8.8,8.9-17.8,9.8-18.5,6.2-4.8,4.1-13.9,1.4-21.7l-2.9-7.8c-16.5,19.9-37.7,16.3-37.7,16.3a68.2,68.2,0,0,0,4.3-17.9,200.7,200.7,0,0,0,.9-24.2l-10.8,11.6s-4.3-24.9,0-65.2c4.5-42.8,16.1-60,17.1-61.3h-.1c7.1-8,37.4-46.1,42.1-63.8.1.2,12.2,14,8.9,11.1l1.8,1.5.3-2.2c1.8-11.2,8.2-19.6,14.4-27.7,4.3-5.7,8.5-11.2,10.6-17.2.1.3.8,1.7.9,1.6,3.6,12.1,4,24.6,4.7,36.7s1.4,22.5,4.6,29.5c-2.2-1.3-4.1-2.4-5.5-3.4s-4.1-2.5-5.3-2.5l-.7.2-.5.4a2.8,2.8,0,0,0-.5,2c3.5,15.7,6.7,33.9,7.7,45m22.2,100.6c-5-8.1,2.4-10.3,17.1-1.2,8.6,5.4,39.1,25.4,54.5,46.5,3.7,5.1,2.5,7.9-3.9,1.4-15.4-15.4-38.6-36.8-38.2-26.7a72.1,72.1,0,0,1-4.3,26.6c-3.1-.6-6.1-1.3-8.8-2.1l-18.2-4.9c6.3-15.5,7.6-30.3,1.8-39.6m68.9,271.9c-3.1-4.3-5.5-7.4.4.6,7.8,10.6,4.4,6,.8,1.1,15.2,20.5,29.4,32.3,29.4,32.3s7.5,4.8,11.6,26.2c-11.7-.2-42.3-17-71-55.5-8.9-12.1-14.8-21.7-37.5-56,6.3,20.1,19.2,50.1,39.4,79,9.9,14.2,24.5,29.2,24.5,29.2s1.1,3.6,2.4,9.2c-15.8-9.6-36.9-20.2-52.6-27.3l-.7-.3c-12.2-22.2-26.3-47.2-31.4-54.1,5.7,16.3,11.2,32.8,15.9,47.3-19.7-8-48.9-18.9-58.9-23.1s-21.9-10.9-30.9-19h0l-1.5-1.4L1747,1400l4.5,3.8s7.8,7.4,15.1.9,33.7-36.2,36.1-39,5.2-8.2-.5-18.4l-1.3-1.7c8-7.8,9.1-18.2,9.1-23.2,3.9-4.3,5.4-10.6,4.4-18.8a13.9,13.9,0,0,0,8.4,2.1c2.8,3.1,6.7,4.9,11.6,5.4a21.2,21.2,0,0,0,13.4-3.5,21.6,21.6,0,0,0,6.2-6.9l1.3-2.6a34.5,34.5,0,0,0,1.6-12.2c23.9,27,47.3,62.5,61.3,84.9,26.4,42.1,32.5,57.8,38,74-17.4-1-27.1-3.7-49.8-27.4-10.6-11.1-38.1-51.9-55.5-73.6,14.6,35.6,30.2,62.6,43.5,80.8m-254.1,54.8c-49.3-40-79.6-74.1-93.6-89.5l27.4-25.3s113.1,111.5,148.9,125.9c59.3,24,137.5,30,137.5,30s-102-23.2-137.5-42.5c-27.9-15.1-138.4-123-138.4-123l41.7-38.5c11.1,12.1,74,77.7,97.9,99.6a188.3,188.3,0,0,0,21.6,17.5c13,9.4,32.4,16.3,47.4,22.7,72.5,29.2,120,59.5,131.2,68.6-29.9,11.6-113,12.7-151.9,7.9-56.3-7.1-97.8-25.4-132.2-53.4m43.7,45.9c-3.1,20.8-9.6,28.8-9.6,28.8-4.4-3.5-21.5-25-21.7-46.1a179.3,179.3,0,0,0,31.3,17.3m-257.5-97.7c-28.7,38.6-59.2,55.3-71,55.6,4.1-21.4,10.7-25.6,10.7-25.6a201.2,201.2,0,0,0,31.1-34.1c13.3-18.2,29.2-45.4,43.9-81.4-17.4,21.8-44.9,62.6-55.5,73.6-22.7,23.7-32.4,26.4-49.8,27.4,5.6-16.2,11.8-31.5,38.2-73.6,21.3-34,36.2-55.3,52.1-72a5.4,5.4,0,0,0,.5,1.1c2.8,5.8,2.9,5.5,6.7,8.7s7.6,3.9,12.3,3.9h1.7a16.9,16.9,0,0,0,11.5-5.4,13.4,13.4,0,0,0,8.3-2.1c-.9,8.2.6,14.5,4.5,18.8,0,5.2,1.1,15.9,9.7,23.8a1.3,1.3,0,0,0-.3.5c-6.4,9.8-3.2,15.2-.5,18.4s29.9,33.4,36,38.9,15.1-.9,15.1-.9l4.6-3.8,13.3,13.5a62.7,62.7,0,0,1-5.2,4.7c-5.2,3.8-11.1,8.9-24.1,14.7-7.9,3.7-24.2,9.6-42.9,17l-9,3.6c12.7-28.1,15.4-42.4,16.8-47.6-4.5,6.6-18.6,31.9-30.4,53.2-12,5.1-24.1,10.6-34.9,16.5-2.8,1.3-5.5,2.7-8.2,4.1l-16.5,9.1,3-1.7c.9-4.2,1.7-6.8,1.7-6.8s14.8-14.8,24.7-29c20.2-28.9,33.1-58.8,39.4-78.9-22.7,34.3-28.5,43.8-37.5,55.9m38.4-198.9c-1.9-3.4-3.7-4.4-8.8-4.5s-37.8.9-36.9,8.8a3.4,3.4,0,0,0,2,2.3c2.7,1.1,7.2,2.8,7.9,1.7-.7,1.1-3.5,3.3-7.4,5.1s-16.7,5.4-20.9-.9l-1.3-2.8c-2.4,0-9-1-10.3-5.5s4.1-10,9.8-12.9c17.2-8.6,35.7-12.6,54.2-17.4,15-3.9,35.4-7.3,45.1-20.4,2.6-3.6,5.1-13.1,7.9-23.4-3.5,2-9.7,5.6-17.1,6.7a107.5,107.5,0,0,0,.8-21.3c-3.7-38.9,3.4-62.2,3.4-62.2s-11,5.8-12.1,6.9c-1.3-6.6-2.5-20.8-1.2-37.1.9-11.1,4.1-29.5,7.7-45.4a2.9,2.9,0,0,0-.5-2l-.4-.4h-.8c-1.2-.1-2.6.8-5.3,2.5l-5.6,3.3c3.3-7,3.9-17.6,4.6-29.5s1.5-25.5,5.2-37.6c2.1,6,6.3,11.5,10.6,17.2,6.2,8.1,12.6,16.5,14.4,27.7l.4,2.2,1.7-1.5c2.9-2.8,6.6-6.7,8.9-11.1,4,15,20,37.3,28.9,48.5,7.7-6.6,8.6-12.2,8.6-12.2a125.4,125.4,0,0,1,9.2,20.9c2.1,6.6,12,24.8,16.8,71.5,4.1,40.4-2.3,61.7-2.3,61.7l-10.7-11.6a178.8,178.8,0,0,0,.9,24.2,68.2,68.2,0,0,0,4.3,17.9,41.4,41.4,0,0,1-28.4-7.6,44.7,44.7,0,0,1-12-10.2l-3.5,9.3c-2.8,7.8-4.7,16.9,1.4,21.7.9.7,11.1,9.7,9.8,18.5-.5,3.1-2.2,6.1-5.9,8.7l-.4.2v.5c-.3,4.9-4,7.6-6.6,8.8.9-4,.5-6.7-.2-8.3-2.2-5.7-6.3-7.2-9.3-7.5a14.9,14.9,0,0,0-5,.6s-2.5,24.6-4.7,34.7a302.9,302.9,0,0,0-5.5,33.1c-.3,2.8-.5,5.6-.9,8.5-1,8.3-5.8,9.1-10.1,9.8-2.4.4-8,0-10.5-.2h-.4l.6.3c6.3,1.7,5.9,4.3,5.7,5.1-.7,3.7-2.9,8.4-.6,16.2l-.9.9c-9.6-5.3-9.6-14.2-8.5-22v-.7l-.6-.4c-7.3-4.2-5.6-18.9,5-41.2,4.9-10.5,6.6-27.5,3.7-29.6-6.3-2.3-15.8,15.8-18.9,19.7s-7.5,8.8-8.3,14.3c-1.2,7.4,6,6.5,11.1,5.8-2.4,2.4-11.2,12.6-13.9,9.4-6.6-7.7-.6,4.7-12.3,6-7.5.4-13-4.7-13.3-13.8.1-12.7,6.7-22.6,15-31.6,19.6-21.5,18-26.3,16.7-28.4m-5.2-36.8-20.1,5.3-6.9,1.8a70,70,0,0,1-4.4-26.9c.3-10.2-22.8,11.2-38.2,26.6-6.4,6.6-7.7,3.7-3.9-1.3,15.3-21.2,45.8-41.2,54.5-46.5,14.7-9.2,22.1-7,17,1.2s-4.4,24.2,2,39.8m-16-188c-1.1-33.6-20.4-88.5-34.3-111.3,23,86.6,32.6,130.8,6.9,164.3,4.4-32.4-8.8-81.8-26.8-122.1,11.9,67.7,29.1,126.8-2.6,156.5,4.7-44.3-12.2-103.2-21.4-124,10.3,65.3,19.4,128.3-1.7,159.8h0c-.1-2.7-.2-5.5-.4-8.3a478.9,478.9,0,0,0-8.3-59.7c-5.5-28.5-10.4-45-12.4-51.1-.2-.5-1.4-4.6-1.4-4.6s6.5,45.4,10.1,101c1.9,29.8,0,58-10.6,86.2a43.2,43.2,0,0,1-2.1,3.8c-5.7-73.8-14.2-137.5-24.1-167,0,0,8.4,69,14,174.7.2,3.8.4,7.5.5,11.2,7,151.8-13.5,200.5-19.9,215,0,0,1.3-2.9,1.9-22.4.6-16.4.7-15.2-1.2-33.9-.6-5.4,13.5-33.3,11.5-70.8-4.3-82.7-11.3-167.5-29.2-248.9-.7-3.1-1.4-6-2-8.8,0,.6.6,8.1.8,11.1,5,63.4,10.5,126.8,15,190.2,2.5,35.6,4.2,64.2,3.7,73.3-1.5,30.4-10.2,43.8-10.1,48.4,1.7,59.2-4.2,83.1-14.5,105.4,0,0-6.1-21.1-10.8-47.6,1,1.5,3,4.3,6,5.3,7.4-19.3,11.2-53,6.3-87.6-.9-6.2,8.3-14.1,7.6-41.9-1.1-43.5-6.2-87.3-12.3-130.4-1.9-14.4-3.9-28.6-5.9-41.8-3.3-22.3-6.7-44.6-11.3-66.7-.5-2.3-.9-4.4-1.3-6.2,0,.1.9,16,1.4,23.2,4.5,58.4,18,207.7,18.2,219.5.5,29.2-7.4,38-6.9,43.3,1.9,21.1,1.1,60.1-1.9,69.7-2.8-8.6-4.5-24.6-4.5-24.6q-19.4-145-32.2-290.9c-3.6-40.5-7.7-86.3-11.1-126.7v-.3c-3-34.7-5.4-65.4-6.7-85.1l3.3-2.4s7.4,81.1,29.1,109.6c5.8-5.3,12.8-35.7,12.3-45.8,4.8,16,24.6,37.7,24.6,37.7s6.7-16,5.9-42.5c6.6,9.5,12.3,16.9,22.3,22.1,4-9.1,8.8-19.5,8.4-44.7a64.8,64.8,0,0,0,18.4,15.8c2.5-6.2,17.1-29.1-9.1-113.9,10.4,78.3,4.2,87.4,2.1,93.7a55.2,55.2,0,0,1-12-7.8c-1-14.3-3.5-32.4-8-55.9,3.8,62.3-1,81.9-5.8,93.9-6.2-4.4-14.9-15.9-26.3-42.9,2.6,20.5,2.6,38.1-2.6,57.1-9.9-12.8-16.3-24.8-23.6-47.2,0,17.9-5.3,37.8-9.1,45.9-13.1-18.9-20.4-94.6-20.4-94.6s-.4,1.8-7.1,4.1c-7-27.1-3.1-82.6,2.6-108.8,10.1-46,28.1-101.8,84.4-168.2,29-34.1,53.4-18.7,77.9,8,39.4,42.9,47.9,61.9,95.1,70.6.5.1.7.1.2,0,4.7.9,1.2,3.1-8.1,3-56.9-1-74.7-38.7-91.7-57.5-11.3-12.6-25.9-23.9-38-16.8-4.6,2.7-20.1,20.7-4.1,65.2.1-10.2,3.9-19,5.9-21.3,7.4,29.6,17.3,53.2,29.2,73.4a110.3,110.3,0,0,0,3.7-15.7c5.6,35.9,37.8,73.4,42.4,124.8,3.3-5.5,6.3-9.2,6.5-22.4,24.3,44.9,49.6,125.4,33.9,165.8.6-41.1-24.6-100.1-37.6-118.8,16.7,52.7,36.1,118,19.3,157.3m265,6.9c-4.6,16-9.3,37.1-24.6,53.1-3.8-12.3-8.8-16.8-8.8-16.8s-6.8,44.4-24.4,57.9c-4.3-30.1-13.3-38.6-13.7-40.7-.9,9.8-4.5,8.6-3.8,32.4-6.2-3-13-14.4-18.4-25.9-4.7-9.7-5.4-22-8.3-31.5-2.4,11.1-5.4,18.1-4.4,26.4-17.4-16.7-15.6-46.8-18.6-56.6-1,3.2-4.9,8.5-4.5,17.5-11.2-9.7-18.2-24.9-20.3-38.4-4,2.8-5.5,5.2-8,10.7-13.5-22.9-39.6-93.5-48.2-143.6-2.5.9-4.6,2.1-7.5,3.3-1.8-13.5-12.1-81.9-13.5-106-1.9-45,2.7-72.4,17.2-98.9,13.1-23.7,47.8-55.2,84-87.9-2.3,4.5-4.9,13.4-8,18.5,10.4-3.9,19.5-18.5,33.3-26.5a62.5,62.5,0,0,0-1.1,9.9c21-12.7,27.4-22.7,32.1-27.2,14.5,2.9,22,0,28.4-5.8-4-.7-16-1.6-18.2-5.6,12.3-1.7,21.5-5.3,25.7-9.7-3.3.3-11.1-8.1-22.1-8.1,2.8,5.5,2.8,5.5,3.9,8.5-32.1-1.3-48.2-28-77.9-32.7,11.1,5.6,23.2,24.2,37.4,35.2-30.1,6-32.3-24.4-60.5-17.9-1.7-2.8.3-7.6-1.6-8.8-4.3,1-6.3,3-10.7,2.5s-3.7-5,.6-6.2,14.8-4.3,18.2-5.5c-9.6.4-16.8-1.4-24.5-1.4-5.3,0-20.6,1.4-21.2,4.8-1.7,9.7-9.9,6-11,5-.8-4.4,2.1-14.8,5.3-19.7s6.8-8.4,10.5-10.6c1.8-1,4.2,8.4,14.1,9.8-7.5-10.7-6.8-14.6-2.8-17.5a19.1,19.1,0,0,1,6.4-3.3c5.5-2,11.6-3.3,13.2-5.2,22.6-26.7,71.1-25.6,106.1-18.7,17.2,5.1,27.6,16.2,31.9,22.9-8.1.2-12.9-1.9-19-.8,34.3,13,38.8,31.5,52.1,43.7-9.4-1.7-15-1.9-18.3.3,10,7.7,13.3,13.3,22,21.6-7.7.4-10-1-16.2-1.3,13.5,8.5,19.7,24.8,32.6,50,5.2,10,15.6,37.6,19.3,49,2.4-3.4,7.4-5.7,7.4-5.7,13.6,21.6,17.5,34.2,26.1,57.7s9.1,64.8,8.3,84.7c-1,23.2-3.9,56.4-6.9,77-1.6-1.9-5.3-1.9-7.4-2.5-4.3,45.2-14.2,77.8-18.8,86.1-6.5-3.2-1.5-1.9-7.2-4.4-1.8,19.5-19,76.8-27.6,87.3-1.4-6-6.2-9.1-8.9-12.4-5,42.7-18.6,55.5-18.6,55.6,1.4-5.4.9-16.3-.6-27.6m13.1,271.1,60.4,60.3c11.8,11.4,12.7,14,9.2,17.8-.9,1.1-.5.3-3.8,3.8l-23.4-20.8-37.2-33.1s-27-25.1-28.2-26.5-3.3-1.3-3.9-.5l-5,5.3c-.6.7-.5,2.4.9,3.7l87.5,82.4c-5.6,5.7-11.3,11.8-15.2,15.8-1.9,1.7-2.8,1.6-4.1.3-5.5-4.9-92.7-84.6-99.9-91.2a1.5,1.5,0,0,1-.2-2.2c4-4.1,12.9-14.3,19.7-21.5s18.1-18.9,24.4-17.1a122,122,0,0,0,16.4,4.1c18.9,3.4,32.7-.8,40.1-2.5l.5-.2c.1,1.8.4,3.5.6,5s.8,4.3,1.4,6.7c-8.3,1.6-13.8,1.2-35,1.4-6.8.1-11.1,2.3-5.2,9m-128.4,5.6c-.6-.7-4.4-4.5-5-5.3a3,3,0,0,0-4,.5c-1.2,1.5-28.2,26.6-28.2,26.6l-37.1,33.1-23.4,20.7c-3.3-3.4-2.9-2.7-3.8-3.8-3.5-3.8-2.8-6.5,9.2-17.8l60.4-60.3c5.9-6.7,1.5-8.9-5.2-8.9-22.4-.3-27.2.1-36.4-1.7.5-2.1.9-4,1.2-5.8s.5-4,.7-6.1a15.2,15.2,0,0,0,2,.6c7.4,1.7,21.2,5.9,40,2.5a136.3,136.3,0,0,0,16.4-4c6.4-1.9,16.6,8.7,24.5,17s15.7,17.4,19.6,21.6a1.4,1.4,0,0,1-.1,2.2c-7.3,6.5-94.5,86.2-99.9,91.2-1.4,1.2-2.3,1.3-4.1-.4l-15.2-15.7,87.5-82.4c1.3-1.4,1.5-3,.9-3.8m.8-203.2a17.9,17.9,0,0,1-7.5-9.8c-.9-3.2-2.4-11-1.7-14.2,0,0,.3,1.6,2.6,4.4s8.5,7.7,10.2,11.2a27.6,27.6,0,0,1,3.2,11.7s-2.4-.5-6.8-3.3m17.5,135c1.7,2.9-2.7,32.5-4,41.4l-7.6-7.4c.2-1.8,1.6-14.9,11.6-34m-17.4-3.7c-3,6.4-7.1,20.1-9.6,28.9h0l-3.3.7c-4.5,1.1-12.7,4.8-16,6,4.4-6,26.2-36.3,28.9-35.6m25.8,57.6c1.5-7.2,4-15,7.7-20.3.8,5.6,1.4,18.4,1.7,30.2l-9.4-9.9m1.8-88c11.2,4.9,13.3,19.9,13.3,19.9s-12.8-9.1-13.3-19.9m7.8-18.5c-11.7-7.7-20.6-15.3-23.6-19.4s-4.9-10.7-4.7-19c0,0,.3,3.3,7.2,11.2,10.6,12.3,28.3,17.3,34.2,29.6a17.7,17.7,0,0,1,1.6,5.7,19,19,0,0,1,2.7-7.5c3.4-5.9,22.6-17.8,30.8-22.5s14.1-12.6,14.1-12.6-2,8.8-6.6,15.2-29.2,21.1-33.3,24.1c-6.2,4.7-7.9,8.7-7.9,8.7v-.4a1,1,0,0,1-.1.4s-2.5-5.7-14.4-13.5m-23.2-71.5c4.9,19.2,26.2,21.5,26.1,40.9-9.7-13.4-28.5-13.8-26.1-40.9m41.6,109.2a110.4,110.4,0,0,1,9.6-9.8c7.1-6.6,8.4-11.7,8.4-11.7a21.4,21.4,0,0,1-2,13.5c-2.7,5.1-7.3,8.7-12.8,12a68.7,68.7,0,0,1-8.8,4.9,39.7,39.7,0,0,1,5.6-8.9m26.6,57.8-9.7,9.8h0c-.5-8.7-2-35.8-4-47.4,9.3,12,13.1,33.4,13.7,37.5m-30.5-20c5,7.1,8.4,25.7,10.4,40.6l-.5.6c-3.4,3.5-9.9,11.3-10.4,11.9-.3-19.9-.5-46.1.5-53.1m6.7,67.8-6.8,7.3c0-2.4-.2-7.6-.2-14,1.7,2,7,6.7,7,6.7m6,7.2,41.8,38.4-11.3,10.9c-10.7-10.4-27-27.4-39.1-40.1l8.6-9.2m52.3,48,27.3,25.3-11.7,12.9-27.1-27,11.5-11.2m-5.7-118.8a19.4,19.4,0,0,0-5.7-1.2,10.5,10.5,0,0,0-5.3,1.1l-1.7,1h0a253.1,253.1,0,0,0-10.9-30.3c10,9.1,21.6,24.4,25.9,30.2l-2.3-.8m-34.3-118.1c-15,8.9-18.4,13.3-18.4,13.3s2.4-12,14.8-24.4c5.1-5.1,12.9-14.5,16.2-21.2a62.1,62.1,0,0,1-2.8,13.5,81.3,81.3,0,0,0,16.7-19.7c-4.9,14.9-10.7,29.2-26.5,38.5m-143.4-163c-14.4-8.2-25.1-29.3-25.1-44.4,9.8,13.8,16.5,21.3,25.1,44.4m272.8-330.6c-11.7-16.3-19-32.4-31.2-61.4-10.6-25.3-8.7-21.2-24.4-59.4-7.5-18.3-20.8-47.1-28.5-57.2-11.8-15.5-33.1-31.2-40.4-34.2a113.6,113.6,0,0,0-36.4-7.8c-24.9-1.4-49.7,2-60.2,4.9-8.3,2.1-22.8,7.1-30,15.9-1.1,1.3-4.6,5.7-9.2,7.8-10.7,5.1-13.3,4.7-27.2,15-22.7,16.5-19.2,42.4-7.3,52.3.1.2.4.2.6.3-.3-6.6.3-12.4,1.4-12.1s12.4,7.8,29.6,5.5c12.5-1.7,20.4,17.3,20.4,17.3l2-5.6s4,12,7.4,14.7a13.9,13.9,0,0,0,1.9-2.8c3.8,4.7,9.9,7.8,10.5,15.5s-3.2,13.4-12.1,21.7c-3.3,3.1-23.2,19.5-44.3,41-10.9,11.2-16.5,18-27.6,30.1-5.6,6.2-10.9,10-16.5,10.3h-2.5a19.1,19.1,0,0,1-13.9-6.2c-2.2-2.8-109.5-144.7-160.8-212.6,93.1-90.9,247.4-105.9,286-103.1,9,.7,19.2,7.9,7.8,22.7,8.4,3.7,39.6.9,51.4-10.1,11.7,11,43,13.8,51.3,10.1-11.3-14.8-1.1-22,8-22.7,38.1-2.7,184.9,4.2,287.4,105.4-50.1,66.2-117.1,150.1-153.1,202.3-1.4,2-2.4,3.8-7.1,6.7a29.2,29.2,0,0,1-16.8,3.9c-7.9-.4-12.2-2.6-16.2-8.2m41.9-306c-49.5-14.5-110.4-19.6-138.4-18.4-25,1.2-28.6,15.3-25.6,23.1-13.6,1-28.8-10.2-31.5-15.1-3.5,6.5-20.2,16.2-31.3,15.1,2.9-7.8-.6-21.9-25.6-23.1-28-1.2-88.9,3.9-138.4,18.4-59.8,17.5-115.8,48.8-157.9,88.4-3.5-4.6-6.9-9.2-10.4-13.7,46.8-42.1,113.9-80.3,191.7-97.1a513.1,513.1,0,0,1,118.6-11.8c21.3.3,35,8.5,35,21.8,10.6-1.7,17.1-15.3,18.4-22.2,1.7,3.1,5.2,19.7,18.4,22.2,0-13.3,13.7-21.5,35-21.8a513.1,513.1,0,0,1,118.6,11.8c76.3,16.5,145.8,58.3,192.7,99.8l-10.4,13.7c-42-38.6-100.5-74-158.9-91.1m155.4,1.1c22.5-25.4,56.8-62.3,60.1-65.8a13.7,13.7,0,0,1,11.3-4.9c4.8.1,11.2,2.3,19.9,8.5a96.4,96.4,0,0,1,9.1,8.8c24.4,27.3,17.3,52.2,50.3,74.4-34.8,6.3-51.8,1.5-64.8-.4-.1,0-.1.1-.1.2-9.2,20.5-21,39.4-20.7,74.3l-.3-.2a44.6,44.6,0,0,1-7-4.6c-15.4-12.3-21-32.6-26.2-50.9-6-21.3-11.4-39.9-31.6-39.4m-11.1-8.8c-7.1,8.4-9.4,15.3-5.3,27.7-78.8-52.8-171.9-79.6-330.3-81.1h-7.3c-161.2,1-251.7,27.6-331.2,81,4.1-12.4,1.8-19.3-5.3-27.7-13.4-15.7-65.2-73.8-65.2-73.8,22.9-22.7,59.6-47.9,103.4-67.1,114.5-50.2,259.8-50.4,301.4-50.4h.2c41.6,0,186.9.2,301.4,50.4,43.8,19.2,80.4,44.4,103.4,67.1,0,0-51.9,58.1-65.2,73.8m-691.9,8.9c-39.8-.8-22.4,72.2-65.1,94.8.3-34.9-11.3-53.7-20.5-74.2h-.1c-4.9.7-10.3,1.8-17,2.6a138,138,0,0,1-15.5.9,176.4,176.4,0,0,1-32.3-3.2c36.5-24.6,25.1-52.5,60.6-83.2,19.9-14.2,28-7.1,31.2-3.6l.2.2,58.5,65.7m-25.4,73.2c21.5,28.8,43.6,58.4,64.6,86.9,14.6,19.7,37.4,51.6,37.6,55.1.4,5.7-37.1-39.3-48.1-54.2-4.7-6.4-28.3-37.9-59.6-79.6,1.6-2.4,3.4-5.2,5.5-8.2m166,381.3c-10.5-37.1-16.6-59.5-16.6-90,9.6,10.7,17.8,50.8,16.6,90m-26.7-53.7c-3.4-8.1-7.8-16.6-10.1-25.8-3.4-13.3-3.7-30.9-1.5-45,5.9,13.8,13.1,43.5,11.6,70.8m38,25.3c42.6,46.2,36.4,153.8,31.1,170.5-6.1-80.4-20.1-129-31.1-170.5m45.3,701c14.9-6.4,34.3-13.4,47.4-22.8a220.8,220.8,0,0,0,18.7-14.8c9.8,9.6,22.7,22.4,35.9,35.1-13.6,11.5-25.1,20.6-31.8,24.2-35.6,19.3-137.5,42.4-137.5,42.4s78.1-5.9,137.5-29.9c9.5-3.8,24.3-14.4,41-28,10.6,10,20.7,19.4,29,26.5-31.8,22.6-70,37.6-119.6,43.7-38.8,4.9-121.9,3.8-151.8-7.8,11.2-9.1,58.7-39.5,131.2-68.6m133.9,56.7a163.3,163.3,0,0,0,14.6-10.8c-5.7,35.5-24.8,51.1-24.8,51.1-3.7-6.3-9-18.8-12-28.5,5.6-2.7,13.5-6.7,22.2-11.8m301.3-971c.2-3.4,23-35.3,37.6-55,19.6-26.5,40-53.9,60.1-80.7a64.7,64.7,0,0,0,5.8,7.7c-29.2,38.8-50.9,67.7-55.4,73.9-10.9,14.9-48.4,59.9-48.1,54.1m250.5-186.3c-25.7-13.4-35.4-30.5-44.5-46.9l10.5-14a625.8,625.8,0,0,1,34,60.9m-7.6-140.6c4.3-5.4,15.5-27.7,12.2-45.5a388.6,388.6,0,0,0,56.1-31.7L2122.7,289.7c-.8-1.4-4-7.1-4.8-8.3,28.8-37.8,48.5-63.3,50.3-65.6M1331.1,142c-6.7-20.1-.1-37.1,11.8-49.2,0-8.1,4.8-15.2,9.9-18,5.9-.7,14.8,2.1,20.8,8.3,17.9,2.6,35.5,11.9,45.1,30.9,45.9-11.1,97.7-18.4,163.9-21.9,1.6-30.4,19.3-49.2,41-60a21.7,21.7,0,0,1,43,0c21.8,10.8,39.4,29.6,41,60,66.2,3.5,118,10.8,163.9,21.9,9.6-19,27.1-28.3,45.1-30.9,6-6.2,14.9-9,20.7-8.2h.2c5.1,2.7,9.8,9.8,9.8,17.9,11.9,12.1,18.6,29.1,11.8,49.2,61.9,25.5,119.8,66.9,161.2,118l-9.2,12.1c-44.3-56.7-105.2-98.8-176.5-125.5,5.6-8.4,13.6-27-7.2-47.4h-.1c-30.8,3.9-38.5,22.5-40.4,32.1-55.6-15.1-121.3-24.3-194.8-26.9-2.6-50.7-38.6-62.9-38.6-62.9s-.6-9.6-8.3-12.8h-.2c-7.7,3.2-8.3,12.8-8.3,12.8s-35.9,12.2-38.5,62.9c-73.6,2.6-139.3,11.8-194.9,26.9-1.9-9.6-9.6-28.2-40.4-32.1h-.1c-20.8,20.3-12.9,38.9-7.2,47.3-71.3,26.8-130.4,67.3-174.6,124l-8.9-11.8c41.4-51.6,96.7-91.1,159-116.8m-272.5-1.1a388.6,388.6,0,0,0,56.1,31.7c-3.3,17.8,7.8,40.1,12.1,45.6,1.8,2.1,20,25.8,46.9,61a54.5,54.5,0,0,0-5.1,7.9l-110-146.2M1147.1,293s10.8,14,11.3,14.5a166.8,166.8,0,0,1-12.6,21.4c-10.6,14.7-27.6,25.4-32.6,28.4,10.3-22.1,21.6-43.4,33.9-64.3m-34.4,65.4c41.2,8.8,67.4,8.2,82.8,7.8,10.6,22.4,18.9,43.4,18.3,81.8,16.8-5,28.1-11.5,37-20.8,11.9,15.7,17.4,22.9,29.7,39.4C1172,660.2,1170.6,841.7,1168.6,892.1c-84.4-48-137.8-93.3-148.4-102.3,10-179.1,37.7-314.3,92.5-431.4m223.4,1270.3-11.4-3.8c-49-15.7-93.3-41.1-131.2-76.8-50-46.9-77.7-98.1-88-117.2-74-153.1-90.3-376-90.3-466.8,0-29.7-.1-46.2,0-47.5s2.3-78.3,3.5-101.4c27.6,23,64.5,52.2,149.5,100.4l19,10.1V901.5c0-1.9-2.7-229,105.3-419.4,15.1,19.8,32.6,42,47.8,62.1-.1,0,4.7,6.4,9.1,12.2-15.4-2.9-31.3.2-45.5,14.1-22.9,22.4-60.1,76.3-81.6,132-11.8,35-21,82.8-18.5,123.7h-.1s13.4,231,39.7,452.3c24,201,37.2,227.3,37.2,227.3,15.4-18.5,21.7-42,25.4-55.5l2.2,1.9s14.1-20,22.4-59.6c9.6-45.1,11.3-125.7,10.3-164.6v.2s-.7-11.4,8.8-30.9A144.5,144.5,0,0,0,1360,1169c0-.1.1-.2.1-.4,14.5-61.8,42.7-79.2,58.3-98.4,20.3-25,32.4-46.4,39.1-64,8.7,8.8,15,16.6,15.3,21.1-1.8,17.3-2.4,52.7,2.1,75.1,2.5-.8,6.8-3.7,8.5-4.9-6.4,24.6,3.3,62.4-3,77.9l12.3-1.4a15.8,15.8,0,0,1-1.4,3.1c-4.4,5.7-8.3,6.8-11.7,8.1-1.2.5-4.5,1.9-13,4.7-8.3-18-2-35.3,6.2-45.1,6.7-8.1-1.5-20.1-15.4-14a198.8,198.8,0,0,0-58.1,38.9c-29.5,28-38.1,55-31.8,60.4,4.4,3.7,7.8,3.3,12.7,1.7a9.5,9.5,0,0,0,.5,3.3c1.6,5.3,6.1,9.1,12.7,10.9l.6,1.1c3.2,4.4,8.2,6.2,17.1,5.9,4.3-.2,9.2-1.5,17.3-5.2a20.7,20.7,0,0,0,6.9-5.3c2.6,2,5.4,4.3,8.3,6.8l-4.2,4.6c-1.1,1.2-10.9,11.7-13.6,24.2-25.4,31.8-55.2,70.3-76.6,108.3-22.8,40.8-33.4,74.8-33.4,74.8s12.2,3.9,28.2.3c-5.7,16.3-8.6,30.6-7.6,41.6a84.1,84.1,0,0,0,45.3-10.5c-.3,1.4-.5,2.8-.7,4.3-21.7,13.9-37.7,27-46.2,33,70.1,32.9,166.5,18,173,17.4,9.8-1,19.5-2.4,29.2-4,.8,2.9,1.8,5.8,2.7,8.8-7.1,17-21.1,50.6-24.2,58.9l-.6,1.6c-60.6,30.3-122.2,34-178.8,16.1m215.4-53c1.7,2.2,3.3,3.6,4.5,3.7s8-4.1,16.9-12.6c-5.8,35.1-10.2,75.1-11.4,101.8-22-9.2-39.6-2.3-50.8,7.2.2-.6,23.9-58.7,40.8-100.1m233,138.9a20.9,20.9,0,0,1-2.8,4.6c-5.2,6.1-11.6,10.3-20.8,11-13.6.9-31.4,2.3-51.7,11.8-18.5,8.7-38.6,23.1-58.9,48.5-20.3-25.4-40.3-39.8-58.9-48.5-20.2-9.5-38.1-10.9-51.6-11.8-9.2-.7-15.8-4.3-20.9-11a32.9,32.9,0,0,1-2.8-4.6c-8.6-19.3,16.8-47,58.8-19.2-1.2-26.8,8.7-99.4,15.3-144.6q2.5,7.2,5.7,14.4c4.9,10.6,12.5,21.7,14,21.6s21.2-14.3,34.2-41.9c12.9,28.1,33.2,42.4,34.5,42.5s9.1-10.9,13.9-21.5a185.3,185.3,0,0,0,9.7-26.8c1.3,2.1,2.7,4.1,4.1,6s1.5,2.4,2.3,3.5c7,43.1,18.4,118.6,17.1,146.8,42-27.8,67.5-.1,58.8,19.2m-45.3-46c-1.4-29.3-6.7-68.1-12.6-99.2,7.6,6.7,13.4,10,14,10s4.6-3.9,8.3-9.1l41.1,105.5c-11.2-9.5-28.8-16.4-50.8-7.2m535.1-703c0,90.8-12.8,315.5-90.3,466.8-9.9,19.4-40.3,68.8-90.2,115.7-40.1,37.7-92.5,68.4-120.4,77.7s-38,10.2-38,10.2c-63.8,10.6-105.2-2.7-149.7-23.1-3.5-7.5-19.4-45.3-26.3-61.6,1-2.3,1.8-4.6,2.5-6.3l13,1.8c2,.3,103.5,15.3,173.6-17.5-7.1-5-23.1-16.8-37.4-27.1-.5-2.7-.9-5.4-1.4-8,16.8,9.5,32.9,11,45.3,10.6,1-11.1-1.9-25.4-7.6-41.6,16,3.6,28.2-.4,28.2-.4s-10.5-34-33.4-74.7c-32-57-76.7-108.8-100-140.3l5.2-4.2a25.4,25.4,0,0,0,5.9,4.2c1.1.6,9.6,5,17.2,5.2s14.1-1.4,17.2-5.9l.6-1.1c6.6-1.8,11.1-5.6,12.7-10.9a16.4,16.4,0,0,0,.5-3.2c5.8,2.1,9.5,3,14.3-1.2,6.3-5.3-2.4-32.3-31.9-60.3a198.8,198.8,0,0,0-58.1-38.9c-13.9-6.1-22,5.8-15.3,14,8.1,9.7,14.4,27,6.2,45-9.7-3.2-13.2-4.6-14.5-5.1s-4-1.8-4.6-2.2a20.8,20.8,0,0,1-7.2-6.1,22.2,22.2,0,0,1-1.5-3.5l14.1,1.9c-7.2-22,4.1-49.6,1.7-73.5,1.9,1.5,5.3,5,7.5,6.2,5.4-18.4,2.1-44.1-1.4-80.2.3-5.6,8-15.6,18.3-25.4l1.6-1.3c8.3,19.9,22,44,40.8,67.1,15.6,19.2,43.8,36.6,58.3,98.4,0,.1.1.2.1.4a137.5,137.5,0,0,0,10.3,28.1c9.4,19.6,8.8,31,8.8,31v-.3c-1,39,.7,119.6,10.3,164.7,8.3,39.5,22.3,59.6,22.3,59.6l2.2-1.9c3.7,13.4,10,37,25.4,55.5,0,0,13.2-26.4,37.2-227.4,26.4-221.2,39.7-452.2,39.7-452.2h0c2.5-40.9-6.8-88.7-18.5-123.7-21.6-55.7-58.8-109.7-81.6-132-13-12.6-27.2-16.4-41.2-14.8,23.7-30.2,47-59.8,53.9-69,110.3,195.5,103.8,422.3,103.8,424.2v16.7l23.3-12.6c89.3-51.4,116.5-74.8,145.2-98,1.2,23,2.9,72.8,3.4,103.3,0,1.3-.1,17.4-.1,47.1"/>
    </g>
    <g>
      <path d="M106.2,2561.9c0-24.4-10.1-37.6-36.7-37.6-8.3,0-38.1,1.4-38.1,44.7v69.9c0,45.3,13.1,56.8,38.1,56.8,18.9,0,31.5-5.2,37-9.2v-61.9H68.3v-22.9h64.5v100.6c-16.9,9.1-36.7,15.5-63.3,15.5-43.8,0-65.1-22.7-65.1-80v-68c0-41.2,21.3-67.5,65.1-67.5s65.9,16.3,64.2,59.6Z"/>
      <path d="M277.1,2639v-70c0-43.3-29.8-44.7-38.1-44.7s-38.2,1.4-38.2,44.7v70c0,45.2,13.3,56.7,38.2,56.7s38.1-11.5,38.1-56.7m-103.2-1.2v-67.9c0-41.3,21.2-67.7,65.1-67.7s65.1,26.4,65.1,67.7v67.9c0,57.3-21.3,80-65.1,80s-65.1-22.7-65.1-80"/>
    </g>
    <polygon points="414.5 2713.4 383 2713.4 323.1 2506.5 351.8 2506.5 399.1 2688.5 399.6 2688.5 448.1 2506.5 475 2506.5 414.5 2713.4"/>
    <polygon points="494.6 2713.4 494.6 2506.5 601.3 2506.5 601.3 2529.4 521 2529.4 521 2595.9 595.6 2595.9 595.6 2618.8 521 2618.8 521 2690.5 602.9 2690.5 602.9 2713.4 494.6 2713.4"/>
    <path d="M656.4,2595.4H696c18.9,0,28.1-16.4,28.1-34.4,0-14.9-7.5-31.6-27.8-31.6H656.4Zm0,22.9v95.1H630.1V2506.5h71.4c36.7,0,49.6,25.8,49.6,51.6s-13.5,43-37.9,47.4v.5c23.7,3.7,32.4,11.7,33.8,53.3.3,8.9,3.2,41.2,7.2,54.1H726.7c-7.5-14.3-5.8-41.2-8.1-68.7-2-25.3-22.3-26.4-31.2-26.4Z"/>
    <polygon points="926 2506.5 926 2713.4 889.9 2713.4 808.2 2534 807.7 2534 807.7 2713.4 784.1 2713.4 784.1 2506.5 821.4 2506.5 901.9 2683.7 902.5 2683.7 902.5 2506.5 926 2506.5"/>
    <polygon points="991.5 2713.4 966.9 2713.4 966.9 2506.5 1009.5 2506.5 1061.7 2680.2 1062.3 2680.2 1115 2506.5 1158.6 2506.5 1158.6 2713.4 1132.2 2713.4 1132.2 2529.4 1131.6 2529.4 1073.7 2713.4 1048.8 2713.4 992.1 2529.4 991.5 2529.4 991.5 2713.4"/>
    <polygon points="1197.9 2713.4 1197.9 2506.5 1304.5 2506.5 1304.5 2529.4 1224.3 2529.4 1224.3 2595.9 1298.8 2595.9 1298.8 2618.8 1224.3 2618.8 1224.3 2690.5 1306.3 2690.5 1306.3 2713.4 1197.9 2713.4"/>
    <polygon points="1477.2 2506.5 1477.2 2713.4 1441.2 2713.4 1359.4 2534 1358.9 2534 1358.9 2713.4 1335.4 2713.4 1335.4 2506.5 1372.6 2506.5 1453.2 2683.7 1453.7 2683.7 1453.7 2506.5 1477.2 2506.5"/>
    <polygon points="1633.8 2506.5 1633.8 2529.4 1579.4 2529.4 1579.4 2713.4 1553 2713.4 1553 2529.4 1498.5 2529.4 1498.5 2506.5 1633.8 2506.5"/>
    <path d="M1812.5,2639v-70c0-43.3-29.8-44.7-38.1-44.7s-38.1,1.4-38.1,44.7v70c0,45.2,13.2,56.7,38.1,56.7s38.1-11.5,38.1-56.7m-103.2-1.2v-67.9c0-41.3,21.2-67.7,65.1-67.7s65.1,26.4,65.1,67.7v67.9c0,57.3-21.3,80-65.1,80s-65.1-22.7-65.1-80"/>
    <polygon points="1876 2713.4 1876 2506.5 1978.6 2506.5 1978.6 2529.4 1902.3 2529.4 1902.3 2595.9 1974.6 2595.9 1974.6 2618.8 1902.3 2618.8 1902.3 2713.4 1876 2713.4"/>
    <path d="M2117.2,2530.9h-.6l-32.4,110.3h66.2Zm-16.1-24.4h33.5l67.4,206.9h-29.5l-14.9-49.2h-80l-15.4,49.2h-26.7Z"/>
    <g>
      <path d="M2251.1,2690.5h37.3c28.1,0,38.1-20,38.1-35.2,0-33-20.3-38.7-47.3-38.7h-28.1Zm0-96.8h38.4c20.7-.3,30.7-12.9,30.7-33,0-17.2-9.7-31.3-31.8-31.3h-37.3Zm-26.3,119.7V2506.5h67.3c28.7,0,38.4,9.8,46.2,21.2a55.1,55.1,0,0,1,8.3,27.6c0,25.7-8.9,42.9-35.5,49v1.4c29.4,3.4,42.4,21.2,42.4,49.6,0,53-38.7,58.1-62.2,58.1Z"/>
      <path d="M2389.1,2506.5h26.4V2639c0,45.2,13.8,56.7,38.7,56.7s38.7-11.5,38.7-56.7V2506.5h26.4v131.3c0,57.3-21.2,80-65.1,80s-65.1-22.7-65.1-80Z"/>
      <path d="M2641.1,2690.5h25c36.7,0,50.1-13.7,50.1-61.9v-41.9c0-41.8-12.9-57.3-40.4-57.3h-34.7Zm-26.3-184h63.6c26.4,0,45.3,9.5,55.6,31.6,8.3,17.4,9.2,58.7,9.2,65.3,0,44.1-4,69.7-12.6,83.4-11.2,17.8-32.1,26.6-68.2,26.6h-47.6Z"/>
    </g>
    <polygon points="2783.7 2713.4 2783.7 2506.5 2810.1 2506.5 2810.1 2595.9 2882.6 2595.9 2882.6 2506.5 2909 2506.5 2909 2713.4 2882.6 2713.4 2882.6 2618.8 2810.1 2618.8 2810.1 2713.4 2783.7 2713.4"/>
    <path d="M3012.6,2530.9h-.6l-32.4,110.3h66.2Zm-16.1-24.4h33.6l67.4,206.9h-29.6l-14.9-49.2h-79.9l-15.6,49.2h-26.6Z"/>
    <path d="M3146.6,2690.5h37.3c28,0,38-20,38-35.2,0-33-20.3-38.7-47.2-38.7h-28.1Zm0-96.8H3185c20.6-.3,30.6-12.9,30.6-33,0-17.2-9.7-31.3-31.7-31.3h-37.3Zm-26.4,119.7V2506.5h67.4c28.6,0,38.4,9.8,46.1,21.2a55.1,55.1,0,0,1,8.3,27.6c0,25.7-8.9,42.9-35.5,49v1.4c29.5,3.4,42.4,21.2,42.4,49.6,0,53-38.7,58.1-62.2,58.1Z"/>
    <rect x="3288.8" y="2506.5" width="26.4" height="206.92"/>
    <g>
      <path d="M112.2,2394.1a16,16,0,0,1-16,16,15.9,15.9,0,0,1-11.4-4.7,16.2,16.2,0,0,1,0-22.6,15.9,15.9,0,0,1,11.4-4.7,16,16,0,0,1,16,16m-53.3,0a15.1,15.1,0,0,1-4.7,11.3,15.9,15.9,0,0,1-22.6,0,15.9,15.9,0,0,1,0-22.6,15.9,15.9,0,0,1,22.6,0,15.1,15.1,0,0,1,4.7,11.3m145.3-138.7V2280H181.5l-44.2-141a47.7,47.7,0,0,0-16.6,9.5,61.2,61.2,0,0,0-12.1,13.8,65.5,65.5,0,0,0-7.3,16.5,69.8,69.8,0,0,0-2.3,17.3,52.6,52.6,0,0,0,12.7,34.8,163.7,163.7,0,0,0,29.3,27,78.2,78.2,0,0,1,6.8,4.9,15.3,15.3,0,0,1,4,4.5l6.2,9.9c0,7.2-1.7,15.2-4.8,24a78.6,78.6,0,0,1-14.8,25,80.8,80.8,0,0,1-26.7,19.7c-11,5.5-24.5,8.1-40.5,8.1a79.4,79.4,0,0,1-23.8-3.9,73.8,73.8,0,0,1-23.1-12,63.3,63.3,0,0,1-17.5-20.7c-4.5-8.2-6.8-18.3-6.8-29.9V2256H24.5v31.5a37.6,37.6,0,0,0,4.5,18.8,39.4,39.4,0,0,0,11.6,13.3,48.7,48.7,0,0,0,15.3,7.6,58,58,0,0,0,15.3,2.3c12.2,0,22.2-1.9,30-5.4a58.4,58.4,0,0,0,18.4-13.2,43.5,43.5,0,0,0,9.3-15.4,117.6,117.6,0,0,0,3.6-12.7l-1.4-1.8-16.3-12.1a122.5,122.5,0,0,1-18.6-17.7,100.4,100.4,0,0,1-15.3-24c-4.3-9.1-6.4-19.4-6.4-30.7a94.3,94.3,0,0,1,4.9-30.6,84.1,84.1,0,0,1,14.9-26.4,79,79,0,0,1,24.8-19.5c9.8-5.2,21.4-8.8,34.6-10.7l45.7,146.1Z"/>
      <path d="M228.2,2331.4a15.5,15.5,0,0,1,4.7-11.3,16.1,16.1,0,0,1,22.7,0,15.9,15.9,0,0,1,0,22.6,16.1,16.1,0,0,1-22.7,0,15.5,15.5,0,0,1-4.7-11.3m4.2-75.9V2135.2H257v120.3h21.2V2280h-74a16.9,16.9,0,0,1-11.8-4.2q-4.8-4.4-4.8-8.1c0-2.5,1.6-5.1,4.8-7.9a16.5,16.5,0,0,1,11.8-4.3Z"/>
      <path d="M813.9,2085.3a16,16,0,0,1-16.1,15.9,15.9,15.9,0,0,1-15.9-15.9,16,16,0,0,1,15.9-16,16.2,16.2,0,0,1,16.1,16m83.4,60.8c-28.2,2.5-51.6,8.3-70,17.5s-33.1,19.2-44.3,30.6-19.4,22.7-24.8,34.2-8.9,20.5-10.8,27.1H897.3ZM278.6,2280a16.8,16.8,0,0,1-11.7-4.2c-3.2-2.9-4.7-5.6-4.7-8.1s1.5-5.2,4.7-7.9a16.4,16.4,0,0,1,11.7-4.3H721.5V2031.1h24.4v170.1a193.2,193.2,0,0,1,22.9-28.5,155.6,155.6,0,0,1,33.7-25.9,203.6,203.6,0,0,1,46.2-19.1c17.7-5,37.8-7.6,60.4-7.6h12.8V2280Z"/>
      <path d="M1047.3,2255.4V2146.1q-31.3,8.4-50.1,27.1c-12.5,12.4-18.8,27-18.8,43.6,0,12,4.7,21.4,14.3,28.3s24.5,10.3,45,10.3Zm24.4,36.8a240,240,0,0,1-2.2,33.1,86,86,0,0,1-9.1,28.5,51.4,51.4,0,0,1-19.1,20.2c-8.3,5.3-19.4,7.8-33.2,7.8v-24.5c9.8,0,17.3-1.9,22.7-5.9a34.2,34.2,0,0,0,11.7-16,76.3,76.3,0,0,0,4.5-22.9c.5-8.7.7-17.8.7-27.3V2280h-8.5q-42,0-63.6-17t-21.7-45.2a84.4,84.4,0,0,1,8.6-37.4,99.5,99.5,0,0,1,24.5-30.7c10.5-9.1,23-16.3,37.4-22s30.1-9.2,47.3-10.8v138.5H1093V2280h-21.3Z"/>
      <path d="M1544.2,2331.4a15.2,15.2,0,0,1,4.8-11.3,15.4,15.4,0,0,1,11.2-4.7,16,16,0,1,1,0,32,15.4,15.4,0,0,1-11.2-4.7,15.2,15.2,0,0,1-4.8-11.3m4.3-75.9V2135.2H1573V2280H1093.5a17.1,17.1,0,0,1-11.8-4.2q-4.8-4.4-4.8-8.1c0-2.5,1.6-5.1,4.8-7.9a16.7,16.7,0,0,1,11.8-4.3Z"/>
      <path d="M1613.6,2050.9H1638V2280h-24.4Zm41.9-55.9c-7.2-3.2-14-4.9-20.3-4.9a18.6,18.6,0,0,0-9.9,2.5c-2.5,1.6-3.7,4.5-3.7,8.5,0,6.1,2.3,10.4,7,13.2s10.5,4.1,17.4,4.1h11.8v12.3h-63.1v-12.3H1615c-1.3-.6-2.5-2.8-3.8-6.4a32.9,32.9,0,0,1-1.9-10.9c0-8.5,2.7-14.6,8-18.1a32.3,32.3,0,0,1,17.5-5.2,67.9,67.9,0,0,1,25.4,5.2Z"/>
      <path d="M1863,2070.2a15.4,15.4,0,0,1-4.8,11.3,15,15,0,0,1-11.3,4.7,15.1,15.1,0,0,1-11.3-4.7,15.7,15.7,0,0,1-4.8-11.3,15.6,15.6,0,0,1,4.8-11.3,15.2,15.2,0,0,1,11.3-4.8,15,15,0,0,1,11.3,4.8,15.2,15.2,0,0,1,4.8,11.3m-53.3,0a15.6,15.6,0,0,1-4.7,11.3,15.3,15.3,0,0,1-11.3,4.7,15,15,0,0,1-11.3-4.7,15.4,15.4,0,0,1-4.8-11.3,15.2,15.2,0,0,1,4.8-11.3,15,15,0,0,1,11.3-4.8,16.2,16.2,0,0,1,16,16.1m54.3,178.7c0,4.4,1.8,6.6,5.5,6.6h15.7V2280h-19c-8,0-14.5-2.6-19.5-8s-7.3-13.1-7.3-23.1l-.5-103.3c-5.7,2.9-12.3,6.4-19.9,10.6a121.9,121.9,0,0,0-21.4,15.4,87.8,87.8,0,0,0-17.1,20.7,50.7,50.7,0,0,0-7.1,26.8c0,13.9,4.2,23.5,12.7,29.1s21.8,9,40.1,10.7l-1.9,24.4c-16.1-.9-29-3.6-38.9-8s-17.5-9.7-22.9-15.8a49.3,49.3,0,0,1-10.9-19.8,83.3,83.3,0,0,1-2.7-20.6c0-17.3,4.6-32.3,13.6-45a139.5,139.5,0,0,1,32.3-32.3,187.7,187.7,0,0,1,37.9-21c13-5.1,23.3-8.9,31.3-11.1Z"/>
      <path d="M2388.9,2149.9a150.3,150.3,0,0,0-19.6,7.1,121.2,121.2,0,0,0-21.5,11.7,67,67,0,0,0-17,17,39.4,39.4,0,0,0-6.9,23.1c0,17.6,5.7,29.4,17.1,35.6s27.3,9.5,47.9,10.1Zm24.5-29.8V2280H1884.8a17.2,17.2,0,0,1-11.8-4.2c-3.1-2.9-4.7-5.6-4.7-8.1s1.6-5.1,4.7-7.9a16.9,16.9,0,0,1,11.8-4.4h430.3a62.6,62.6,0,0,1-11.3-19q-4.5-11.1-4.5-27.6c0-16.3,4.6-30.1,13.9-41.2a112,112,0,0,1,32.6-27.2,148.9,148.9,0,0,1,37.8-14.8c12.7-3,22.6-4.8,29.8-5.5"/>
      <path d="M2539.3,2255.4V2146.1q-31.4,8.4-50.1,27.1c-12.5,12.4-18.7,27-18.7,43.6,0,12,4.7,21.4,14.3,28.3s24.4,10.3,45.1,10.3Zm24.5,36.8a240,240,0,0,1-2.3,33.1,81.6,81.6,0,0,1-9.1,28.5,52.6,52.6,0,0,1-19,20.2c-8.4,5.3-19.4,7.8-33.2,7.8v-24.5c9.7,0,17.3-1.9,22.6-5.9a33.5,33.5,0,0,0,11.7-16,73.2,73.2,0,0,0,4.6-22.9c.5-8.7.7-17.8.7-27.3V2280h-8.4c-28.1,0-49.2-5.7-63.7-17s-21.7-26.4-21.7-45.2a83.2,83.2,0,0,1,8.7-37.4,96.3,96.3,0,0,1,24.4-30.7c10.5-9.1,23-16.3,37.3-22s30.2-9.2,47.4-10.8v138.5h21.3V2280h-21.3Z"/>
      <path d="M3131.7,2255.4h13.7V2280h-33.5a263.3,263.3,0,0,0-7.9-31.1,142.9,142.9,0,0,0-14.9-33.5,87.6,87.6,0,0,1,1.9,19.8,106.7,106.7,0,0,1-1.6,18.5c-1.1,6.6-3,15.3-5.7,26.3H2585.5a16.8,16.8,0,0,1-11.7-4.2q-4.8-4.4-4.8-8.1c0-2.5,1.6-5.2,4.8-7.9a16.5,16.5,0,0,1,11.7-4.4h479.2a106.6,106.6,0,0,0,1.9-20.2c0-14.8-3-27-9-36.5a74.4,74.4,0,0,0-22.2-23.1,99.6,99.6,0,0,0-28.1-13,257.4,257.4,0,0,0-26.1-6.2l3.8-11.2a129.3,129.3,0,0,1,27.7-48.3,241.7,241.7,0,0,1,40.8-37.3,331.7,331.7,0,0,1,42.2-26.2c13.6-6.9,24.1-12,31.7-15v61.2h-24.5v-21.7c-6.2,3.5-13.3,7.8-21.3,13s-15.9,11-24.2,17.7a180.2,180.2,0,0,0-23.6,21.9,121.7,121.7,0,0,0-18.2,25.2A343.8,343.8,0,0,1,3058,2155a167.6,167.6,0,0,1,33,24,133.7,133.7,0,0,1,24.4,32.5q10.2,18.6,16.3,43.9"/>
      <path d="M3145.7,2280a17.4,17.4,0,0,1-11.8-4.2c-3.1-2.9-4.6-5.6-4.6-8.1s1.5-5.1,4.6-7.9a17,17,0,0,1,11.8-4.3h123.6c-3.1-6.3-5.6-14.5-7.3-24.8s-3.1-23.2-4-39.3c-1-11.7-2.8-20.8-5.7-27.4s-6.3-11.5-10.4-14.8a29.7,29.7,0,0,0-13.1-6.4,69.1,69.1,0,0,0-14.2-1.4c-11,0-22.4,3.8-33.9,11.3l-15.2-19.3a90.9,90.9,0,0,1,21.8-11.6,75.9,75.9,0,0,1,27.8-4.9q31.1,0,47.6,18c11,12.2,17.6,30.3,19.8,54.6,1.9,21.4,3.8,36.7,5.7,46.2s5.9,15.1,12.2,16.9l13.2,3.7-1,23.7Z"/>
    </g>
  </g>
</svg>
