<svg id="Layer_1" data-name="Layer 1" xmlns="http://www.w3.org/2000/svg" viewBox="0 0 231.01 66"><defs><style>.cls-1{fill:#d7771a;}.cls-2{fill:#474c55;}</style></defs><title>Sharjah Broadcasting Authority</title><path id="Path_1" data-name="Path 1" class="cls-1" d="M50.29,9.85s-29.4.45-40.43,25.24c0,0,1.13,10.49,11.6,20.07a38.76,38.76,0,0,1,1-19.42A40.07,40.07,0,0,1,50.29,9.85"/><path id="Path_2" data-name="Path 2" class="cls-1" d="M43.59,15.71S19,31.19,29.14,60.75c0,0,13.82,9.09,33.63,3.34,0,0-23.82,0-28.81-21.53a26.28,26.28,0,0,1,9.63-26.85"/><path id="Path_3" data-name="Path 3" class="cls-1" d="M82.43,18.64c-1.7-2.17-4.24-3.49-6.62-4.9C75.82,13.73,64.27,0,43,0A40,40,0,0,1,57.75,9.28s1.45.29,6.19,1.84a9.9,9.9,0,0,1,1.11,2.32l-.56.69-4-1.75-3.86.42s1.13,1.14,2.32,2.64,2.4,3.28,2.4,3.28C43.54,26.06,49.3,41,49.3,41c.34-12.77,14.5-15.38,14.5-15.38,5.33-.7,11.67-1,15.12.06a4.39,4.39,0,0,1,3.15,3.2,4.53,4.53,0,0,1-1,3.68c1.35-.88,6.66-7.13,1.36-13.92"/><path id="Path_4" data-name="Path 4" class="cls-1" d="M33.38,1C23.21,2.9,5.93,11.44,0,31.1c0,0,13.48-24.65,51.52-22.64A45.33,45.33,0,0,0,33.38,1"/><path id="Path_5" data-name="Path 5" class="cls-2" d="M103.14,66a3,3,0,0,1-1.7-.55v-.1l.27-.38h.07a2.65,2.65,0,0,0,1.26.35c.68,0,1.06-.32,1.06-.88,0-.38-.11-.77-1-1.05s-1.7-.7-1.7-1.62.71-1.42,1.73-1.42a2.61,2.61,0,0,1,1.48.45,0,0,0,0,1,0,.05.06.06,0,0,1,0,.06l-.28.37h-.06a2.43,2.43,0,0,0-1.09-.26c-.47,0-1,.19-1,.71,0,.25.1.54.83.82,1.36.5,1.84,1,1.84,1.88A1.6,1.6,0,0,1,103.27,66h-.12"/><path id="Path_6" data-name="Path 6" class="cls-2" d="M109.39,65.89a.07.07,0,0,1-.08-.08V63.39h-2.55v2.42a.07.07,0,0,1-.07.08h-.62a.08.08,0,0,1-.08-.08v-5a.06.06,0,0,1,0-.06l.62-.45h0a.07.07,0,0,1,.1,0h0v2.32h2.55V60.82a.06.06,0,0,1,0-.06l.62-.45h0a.07.07,0,0,1,0,.07v5.41a.07.07,0,0,1-.07.08Z"/><path id="Path_7" data-name="Path 7" class="cls-2" d="M114.7,65.89a.08.08,0,0,1-.07,0l-.41-1.19H112l-.42,1.19a.07.07,0,0,1-.07,0h-.65a0,0,0,0,1-.06,0,.06.06,0,0,1,0-.06l1.9-5.31a.09.09,0,0,1,.07-.06h.65a.09.09,0,0,1,.07.06l1.9,5.25a0,0,0,0,1,0,.07.06.06,0,0,1-.06,0ZM114,64l-.87-2.54L112.24,64Z"/><path id="Path_8" data-name="Path 8" class="cls-2" d="M118.9,65.89a.08.08,0,0,1-.07,0l-1-2.14h-.32a4.44,4.44,0,0,1-.63,0V65.8a.08.08,0,0,1-.08.08h-.61a.08.08,0,0,1-.08-.08V60.51a.08.08,0,0,1,.06-.08,11.38,11.38,0,0,1,1.31-.11c1.7,0,2,1.06,2,1.7a1.52,1.52,0,0,1-.92,1.54l1,2.2s0,.09,0,.1h0Zm-2-2.86a4,4,0,0,0,.6,0c.77,0,1.15-.36,1.15-1.06s-.38-1-1.15-1a4,4,0,0,0-.6,0Z"/><path id="Path_9" data-name="Path 9" class="cls-2" d="M121,65.91a2,2,0,0,1-1-.34,0,0,0,0,1,0,0,0,0,0,0,1,0,0l.22-.34h.06a1.22,1.22,0,0,0,.56.17c.19,0,.44-.07.44-.6V60.82a.06.06,0,0,1,0-.06l.62-.45h.05a.08.08,0,0,1,0,.07v4.36c0,.77-.38,1.18-1,1.18"/><path id="Path_10" data-name="Path 10" class="cls-2" d="M126.67,65.89a.08.08,0,0,1-.07,0l-.41-1.19H124l-.42,1.19a.08.08,0,0,1-.07,0h-.65a.08.08,0,0,1-.07-.08v0l1.9-5.31a.09.09,0,0,1,.07-.06h.65a.09.09,0,0,1,.07.06l1.9,5.28a0,0,0,0,1,0,.07.06.06,0,0,1-.06,0ZM126,64l-.87-2.55L124.21,64Z"/><path id="Path_11" data-name="Path 11" class="cls-2" d="M131.52,65.89a.08.08,0,0,1-.08-.07V63.39h-2.55v2.43a.08.08,0,0,1-.08.07h-.62a.07.07,0,0,1-.07-.07v-5a.09.09,0,0,1,0-.07l.61-.45h.05a.07.07,0,0,1,0,.07V62.7h2.55V60.82a.06.06,0,0,1,0-.06l.62-.45h0a.08.08,0,0,1,0,.07v5.41a.09.09,0,0,1-.08.08Z"/><path id="Path_12" data-name="Path 12" class="cls-2" d="M136.43,66a10.69,10.69,0,0,1-1.38-.11.07.07,0,0,1-.06-.07v-5.3a.08.08,0,0,1,.06-.08,10.42,10.42,0,0,1,1.38-.11c1.62,0,1.86,1,1.86,1.55a1.22,1.22,0,0,1-.77,1.13,1.41,1.41,0,0,1,1,1.42c0,1-.77,1.55-2,1.55m-.68-.7a6.81,6.81,0,0,0,.78,0c.77,0,1.14-.32,1.14-.94a1,1,0,0,0-.88-1.08h-1Zm.78-2.63c.57,0,.94-.3.94-.77,0-.63-.35-.93-1.08-.93a4.63,4.63,0,0,0-.65,0v1.68Z"/><path id="Path_13" data-name="Path 13" class="cls-2" d="M142.24,65.89a.07.07,0,0,1-.07,0l-1-2.14h-.32a4.44,4.44,0,0,1-.63,0V65.8a.08.08,0,0,1-.07.08h-.62a.09.09,0,0,1-.08-.08V60.51a.09.09,0,0,1,.06-.08,11.57,11.57,0,0,1,1.31-.11c1.7,0,2,1.06,2,1.7a1.55,1.55,0,0,1-.92,1.54l1,2.2a0,0,0,0,1,0,.07s0,0-.06,0Zm-2-2.86a4,4,0,0,0,.6,0c.78,0,1.16-.36,1.16-1.06s-.39-1-1.16-1a4,4,0,0,0-.6,0Z"/><path id="Path_14" data-name="Path 14" class="cls-2" d="M145.89,66c-1.63,0-2.36-1.46-2.36-2.82s.77-2.85,2.36-2.85,2.32,1.48,2.32,2.85S147.43,66,145.89,66m0-5c-1.14,0-1.55,1.11-1.55,2.16,0,1.34.57,2.13,1.55,2.13s1.54-.77,1.54-2.13c0-1.05-.41-2.16-1.54-2.16"/><path id="Path_15" data-name="Path 15" class="cls-2" d="M152.53,65.89a.08.08,0,0,1-.07,0l-.41-1.19h-2.2l-.42,1.19a.07.07,0,0,1-.07,0h-.65a0,0,0,0,1-.06,0,.06.06,0,0,1,0-.06l1.9-5.31a.09.09,0,0,1,.07-.06h.65a.09.09,0,0,1,.07.06l1.9,5.25a0,0,0,0,1,0,.07.06.06,0,0,1-.06,0ZM151.81,64l-.87-2.54L150.09,64Z"/><path id="Path_16" data-name="Path 16" class="cls-2" d="M155.38,66a9.8,9.8,0,0,1-1.33-.11.07.07,0,0,1-.06-.07v-5.3a.08.08,0,0,1,.06-.08,10.87,10.87,0,0,1,1.28-.11,2.84,2.84,0,0,1,.06,5.68m-.63-.7c.21,0,.41,0,.62,0,1.25,0,1.93-.78,1.93-2.2S156.54,61,155.36,61a4,4,0,0,0-.6.05Z"/><path id="Path_17" data-name="Path 17" class="cls-2" d="M161.23,66a2.47,2.47,0,0,1-2.44-2.51,2.11,2.11,0,0,1,0-.26c0-1.4.81-2.9,2.32-2.9a2.34,2.34,0,0,1,1.54.54.07.07,0,0,1,0,.1l-.25.38h-.1A1.94,1.94,0,0,0,161.2,61c-1,0-1.6.86-1.6,2.2s.66,2.08,1.68,2.08a2,2,0,0,0,1.11-.38h.05a0,0,0,0,1,0,0l.26.37a.09.09,0,0,1,0,.1,2.45,2.45,0,0,1-1.55.59"/><path id="Path_18" data-name="Path 18" class="cls-2" d="M167.11,65.89a.08.08,0,0,1-.07,0l-.41-1.19h-2.2l-.41,1.2a.08.08,0,0,1-.07.05h-.7a.09.09,0,0,1-.08-.08v0l1.9-5.31a.09.09,0,0,1,.07-.06h.65a.09.09,0,0,1,.07.06l1.92,5.27a.06.06,0,0,1,0,.07.06.06,0,0,1-.06,0ZM166.33,64l-.87-2.54L164.59,64Z"/><path id="Path_19" data-name="Path 19" class="cls-2" d="M169.93,66a2.92,2.92,0,0,1-1.7-.55.17.17,0,0,1,0-.1l.27-.38h.1a2.66,2.66,0,0,0,1.27.35c.67,0,1.06-.32,1.06-.88,0-.38-.12-.77-1-1.05s-1.69-.7-1.69-1.62.7-1.42,1.71-1.42a2.64,2.64,0,0,1,1.49.45v.11l-.28.37h-.06A2.43,2.43,0,0,0,170,61c-.48,0-1,.19-1,.71,0,.25.1.54.83.82,1.36.5,1.84,1,1.84,1.88A1.6,1.6,0,0,1,170.08,66H170"/><path id="Path_20" data-name="Path 20" class="cls-2" d="M173.92,65.89a.07.07,0,0,1-.07-.08V61.12H172.3a.08.08,0,0,1-.08-.07V60.5a.08.08,0,0,1,.08-.07h4a.08.08,0,0,1,.08.07V61a.09.09,0,0,1-.08.08h-1.67v4.72a.08.08,0,0,1-.08.08Z"/><path id="Path_21" data-name="Path 21" class="cls-2" d="M177.27,65.89a.07.07,0,0,1-.08-.07v-5a.09.09,0,0,1,0-.07l.62-.45h0a.08.08,0,0,1,.09,0v5.41a.08.08,0,0,1-.08.07Z"/><path id="Path_22" data-name="Path 22" class="cls-2" d="M182.66,65.89a.06.06,0,0,1-.06,0c-.47-.7-1.23-2-1.84-3l-.66-1.08v4a.08.08,0,0,1-.08.07h-.62a.07.07,0,0,1-.07-.07v-5.1a.09.09,0,0,1,0-.07l.48-.37h.1c.62.93,1.9,3,2.6,4.23V60.82a.06.06,0,0,1,0-.06l.62-.45h.05a.08.08,0,0,1,0,.07v5.41a.09.09,0,0,1-.08.08Z"/><path id="Path_23" data-name="Path 23" class="cls-2" d="M186.7,66c-1.64,0-2.36-1.41-2.36-2.82s.82-2.85,2.32-2.85a2.45,2.45,0,0,1,1.54.54.07.07,0,0,1,0,.1l-.25.37a.06.06,0,0,1-.06,0h0a2.05,2.05,0,0,0-1.13-.34c-.78,0-1.6.69-1.6,2.19,0,1.28.64,2.1,1.63,2.1a2.53,2.53,0,0,0,.94-.18V63.62h-.85a.08.08,0,0,1-.08-.08V63a.08.08,0,0,1,.08-.08h1.54a.08.08,0,0,1,.08.08v2.45a.06.06,0,0,1,0,.06,3.39,3.39,0,0,1-1.73.48"/><path id="Path_24" data-name="Path 24" class="cls-2" d="M194.34,65.89a.08.08,0,0,1-.07,0l-.41-1.19h-2.2l-.42,1.19a.08.08,0,0,1-.07,0h-.65a0,0,0,0,1-.06-.07l1.9-5.31a.09.09,0,0,1,.07-.06h.65a.09.09,0,0,1,.07.06l1.9,5.25a0,0,0,0,1,0,.07s0,0-.06,0h0ZM193.62,64l-.87-2.54L191.87,64Z"/><path id="Path_25" data-name="Path 25" class="cls-2" d="M197.76,66c-1.28,0-2-.85-2-2.39V60.82a.06.06,0,0,1,0-.06l.62-.46h.05a.07.07,0,0,1,0,.07v3.42c0,1,.4,1.55,1.19,1.55s1.18-.52,1.18-1.55v-3l.64-.46h0a.07.07,0,0,1,0,.07v3.24c0,1.55-.7,2.39-2,2.39"/><path id="Path_26" data-name="Path 26" class="cls-2" d="M202.25,65.89a.07.07,0,0,1-.08-.08V61.12h-1.55a.07.07,0,0,1-.07-.07V60.5a.07.07,0,0,1,.07-.07h4a.07.07,0,0,1,.07.07V61a.08.08,0,0,1-.07.08H203v4.72a.09.09,0,0,1-.08.08Z"/><path id="Path_27" data-name="Path 27" class="cls-2" d="M208.88,65.89a.08.08,0,0,1-.08-.07V63.39h-2.54v2.43a.08.08,0,0,1-.08.07h-.62a.07.07,0,0,1-.07-.07v-5a.09.09,0,0,1,0-.07l.61-.45h.05a.07.07,0,0,1,0,.07V62.7h2.55V60.82a.06.06,0,0,1,0-.06l.61-.45h.05a.07.07,0,0,1,0,.07v5.41a.09.09,0,0,1-.08.08Z"/><path id="Path_28" data-name="Path 28" class="cls-2" d="M213,66c-1.63,0-2.36-1.46-2.36-2.82s.77-2.85,2.36-2.85,2.32,1.48,2.32,2.85S214.53,66,213,66m0-5c-1.14,0-1.55,1.11-1.55,2.16,0,1.34.57,2.13,1.55,2.13s1.54-.77,1.54-2.13c0-1.05-.41-2.16-1.54-2.16"/><path id="Path_29" data-name="Path 29" class="cls-2" d="M219.11,65.89a.1.1,0,0,1-.07,0l-1-2.14h-.32a4.44,4.44,0,0,1-.63,0V65.8a.08.08,0,0,1-.08.08h-.61a.08.08,0,0,1-.08-.08V60.51a.08.08,0,0,1,.06-.08,11.38,11.38,0,0,1,1.31-.11c1.7,0,2,1.06,2,1.7a1.54,1.54,0,0,1-.93,1.54l1.05,2.2s0,0,0,.07-.05,0-.06,0Zm-2-2.86a4,4,0,0,0,.6,0c.77,0,1.15-.36,1.15-1.06s-.38-1-1.15-1a4,4,0,0,0-.6,0Z"/><path id="Path_30" data-name="Path 30" class="cls-2" d="M220.82,65.89a.08.08,0,0,1-.08-.07v-5a.09.09,0,0,1,0-.07l.62-.45h0a.08.08,0,0,1,0,.07v5.41a.08.08,0,0,1-.08.08Z"/><path id="Path_31" data-name="Path 31" class="cls-2" d="M224,65.89a.07.07,0,0,1-.08-.08V61.12H222.4a.07.07,0,0,1-.07-.07V60.5a.07.07,0,0,1,.07-.07h4a.07.07,0,0,1,.08.07V61a.08.08,0,0,1-.08.08h-1.67v4.72a.08.08,0,0,1-.07.08Z"/><path id="Path_32" data-name="Path 32" class="cls-2" d="M228.51,65.89a.07.07,0,0,1-.07-.08V63.73l-1.76-3.19a.11.11,0,0,1,0-.08h.71a.07.07,0,0,1,.07,0l1.38,2.57,1.38-2.57a.07.07,0,0,1,.07,0H231a.11.11,0,0,1,0,.08l-1.79,3.23v2a.08.08,0,0,1-.08.08Z"/><path id="Path_33" data-name="Path 33" class="cls-2" d="M105.1,26.55a3.74,3.74,0,0,0,2.44-.83,2.08,2.08,0,0,0,1.71.74h10.36a2,2,0,0,0,2.13-1.76,2.28,2.28,0,0,0,0-.37V18.15h-3.37a4.09,4.09,0,0,0-4.17,4v.12a3.61,3.61,0,0,0,.77,2.32h-5.65a.34.34,0,0,1-.34-.34v-8l-1.88,1.21v.67h-1.82A4,4,0,0,0,101.17,22c0,.12,0,.23,0,.34a3.92,3.92,0,0,0,3.62,4.21l.29,0m13.33-6.63h1.42v4.31a.34.34,0,0,1-.34.34h-1.07a2.32,2.32,0,0,1,0-4.64h0m-13.11,0h1.78V22.3a2.13,2.13,0,0,1-1.83,2.39h-.17c-1.29,0-2-1.09-2-2.4a2.17,2.17,0,0,1,1.94-2.37h.26"/><path id="Path_34" data-name="Path 34" class="cls-2" d="M103.92,16.25a1,1,0,0,0,.91-1.08.93.93,0,0,0-1.83-.33.92.92,0,0,0,0,.33,1,1,0,0,0,.92,1.08"/><path id="Path_35" data-name="Path 35" class="cls-2" d="M106.18,16.25a1,1,0,0,0,.91-1.08.93.93,0,0,0-1.83-.33.91.91,0,0,0,0,.33,1,1,0,0,0,.91,1.08"/><path id="Path_36" data-name="Path 36" class="cls-2" d="M117.32,16.47a1,1,0,0,0,.91-1.07.93.93,0,0,0-1.83-.34,1,1,0,0,0,0,.34,1,1,0,0,0,.92,1.07"/><path id="Path_37" data-name="Path 37" class="cls-2" d="M119.55,16.47a1,1,0,0,0,.91-1.07.93.93,0,0,0-1.82-.34,1,1,0,0,0,0,.34,1,1,0,0,0,.91,1.07"/><path id="Path_38" data-name="Path 38" class="cls-2" d="M125.78,26.57a2.38,2.38,0,0,1-1,2.11,2.7,2.7,0,0,1-1.49.38,6.78,6.78,0,0,1-2-.34l.82,1.88a1.6,1.6,0,0,0,.39.11,6.56,6.56,0,0,0,1.25.14,3.83,3.83,0,0,0,2.42-.78,4.51,4.51,0,0,0,1.48-3.77V17.94l-1.88,1.22Z"/><path id="Path_39" data-name="Path 39" class="cls-2" d="M159.63,14.1a1,1,0,0,0,.9-1.06.9.9,0,0,0-1.78-.28.66.66,0,0,0,0,.28,1,1,0,0,0,.9,1.06"/><path id="Path_40" data-name="Path 40" class="cls-2" d="M158.49,16.4a1,1,0,0,0,.88-1.07.92.92,0,0,0-.75-1.08.94.94,0,0,0-1.08.74,1,1,0,0,0,0,.34,1,1,0,0,0,.92,1.07"/><path id="Path_41" data-name="Path 41" class="cls-2" d="M159.83,15.33a.92.92,0,0,0,1.8.39.86.86,0,0,0,0-.39.92.92,0,0,0-1.8-.4.9.9,0,0,0,0,.4"/><path id="Path_42" data-name="Path 42" class="cls-2" d="M170.26,24.33V13l-1.88,1.38v9.84a.34.34,0,0,1-.34.34H165V17.94l-1.86,1.2v5.1a.34.34,0,0,1-.33.34h-2.28V17.94l-1.87,1.2v5.1a.34.34,0,0,1-.34.34H156V17.94l-1.88,1.2v5.1a.32.32,0,0,1-.31.34H133.52a.32.32,0,0,1-.34-.31V13l-1.88,1.2V24.33a1.94,1.94,0,0,0,1.75,2.13h21.36a2,2,0,0,0,1.13-.52.83.83,0,0,0,.82.56h2a2.11,2.11,0,0,0,1.55-.57.82.82,0,0,0,.82.57h2.06a2.12,2.12,0,0,0,1.55-.57.81.81,0,0,0,.82.57h2.86a2,2,0,0,0,2.13-1.76,2.28,2.28,0,0,0,0-.37"/><path id="Path_43" data-name="Path 43" class="cls-2" d="M174.88,13,173,14.22V26.46h1.88Z"/><path id="Path_44" data-name="Path 44" class="cls-2" d="M183.21,16.25a1,1,0,0,0,.92-1.05.93.93,0,1,0-1.83-.33.92.92,0,0,0,0,.33,1,1,0,0,0,.91,1.05"/><path id="Path_45" data-name="Path 45" class="cls-2" d="M185.46,16.25a1,1,0,0,0,.91-1.08.92.92,0,1,0-1.82-.33.91.91,0,0,0,0,.33,1,1,0,0,0,.91,1.08"/><path id="Path_46" data-name="Path 46" class="cls-2" d="M209.14,16.58l.39-.82h-1.36a.63.63,0,0,1,0-1.25h.57l.41-.77H208a1.44,1.44,0,0,0-1.45,1.43,1.29,1.29,0,0,0,.13.58,1,1,0,0,0-.63.27v.78a1.37,1.37,0,0,1,.9-.23Z"/><path id="Path_47" data-name="Path 47" class="cls-2" d="M215.07,29.25a.92.92,0,0,0-1.06-.77.93.93,0,0,0,.15,1.85,1,1,0,0,0,.91-1.08"/><path id="Path_48" data-name="Path 48" class="cls-2" d="M211.88,28.16a1.11,1.11,0,1,0,.85,1.31.91.91,0,0,0,0-.23,1.11,1.11,0,0,0-.88-1.08"/><path id="Path_49" data-name="Path 49" class="cls-2" d="M215.35,26.46h5.35a3.64,3.64,0,0,0,2-.4,3.75,3.75,0,0,0,2,.4h4a1.94,1.94,0,0,0,2.12-1.74,1.28,1.28,0,0,0,0-.39v-2a4.06,4.06,0,0,0-4-4.15.28.28,0,0,0-.13,0h-5.45l.66,1.2a3.37,3.37,0,0,0-2.32,3.3,2.92,2.92,0,0,0,.72,1.95h-5.21V17.94l-1.88,1.2v5.1a.34.34,0,0,1-.34.34h-3.72V17.94l-1.88,1.2v5.1a.34.34,0,0,1-.34.34H188.6a.34.34,0,0,1-.34-.34v-8l-1.88,1.21v.67h-1.82A4,4,0,0,0,180.45,22c0,.12,0,.23,0,.34a3.94,3.94,0,0,0,3.62,4.22h.3a3.69,3.69,0,0,0,2.41-.82,2.09,2.09,0,0,0,1.72.73H207a2.11,2.11,0,0,0,1.55-.56.84.84,0,0,0,.82.56h3.53a2.13,2.13,0,0,0,1.55-.56.83.83,0,0,0,.82.56m11.38-6.52A2.22,2.22,0,0,1,229,22a.81.81,0,0,1,0,.22v2a.35.35,0,0,1-.34.34h-3.53a2.94,2.94,0,0,0,.74-1.95,3.4,3.4,0,0,0-1.27-2.71Zm-3.93.84a1.61,1.61,0,0,1,1.39,1.76,1.43,1.43,0,1,1-2.79.62,1.3,1.3,0,0,1,0-.62,1.59,1.59,0,0,1,1.39-1.76m-36.32,1.55a2.13,2.13,0,0,1-1.83,2.38l-.17,0c-1.29,0-2-1.09-2-2.4A2.17,2.17,0,0,1,184.36,20a1.11,1.11,0,0,1,.26,0h1.78Z"/><path id="Path_50" data-name="Path 50" class="cls-2" d="M104.66,40.57a1,1,0,0,0,1.17.83,1,1,0,0,0-.17-2,1.11,1.11,0,0,0-1,1.18"/><path id="Path_51" data-name="Path 51" class="cls-2" d="M108.94,47.11c0,2-1.22,3.43-3,3.43s-3-1.44-3-3.43V44.23l-1.88,1.2v1.65c0,3.09,2,5.3,4.85,5.3s4.85-2.24,4.85-5.3V39.42l-1.88,1.21Z"/><path id="Path_52" data-name="Path 52" class="cls-2" d="M122.89,49.63a1.07,1.07,0,1,0,.92,1.08,1.11,1.11,0,0,0-.92-1.08"/><path id="Path_53" data-name="Path 53" class="cls-2" d="M125.15,49.63a1.1,1.1,0,1,0-.38,2.17,1.13,1.13,0,0,0,1.29-1.08,1,1,0,0,0-.9-1.09h0"/><path id="Path_54" data-name="Path 54" class="cls-2" d="M124.91,45.72a.35.35,0,0,1-.34.34H120.8V39.61h-3.3a4.18,4.18,0,0,0,0,8.36h1.45a2.62,2.62,0,0,1-.88,2.22,3.06,3.06,0,0,1-1.54.38,8,8,0,0,1-1.61-.2l-.48-.14.82,1.88a1.93,1.93,0,0,0,.34.11,6,6,0,0,0,1.34.13c2.63,0,3.87-1.9,3.93-4.38h3.86a2,2,0,0,0,2.13-1.76,2.29,2.29,0,0,0,0-.37V39.42l-1.88,1.2Zm-6,.34H117.5a2.33,2.33,0,0,1,0-4.65h1.41Z"/><path id="Path_55" data-name="Path 55" class="cls-2" d="M132.9,38a1.12,1.12,0,0,0,1-1.2,1,1,0,0,0-2-.32.86.86,0,0,0,0,.32,1.11,1.11,0,0,0,1,1.2"/><path id="Path_56" data-name="Path 56" class="cls-2" d="M142.22,36.83a1,1,0,0,0-2-.32.86.86,0,0,0,0,.32,1,1,0,1,0,2,.35,1,1,0,0,0,0-.35"/><path id="Path_57" data-name="Path 57" class="cls-2" d="M152.81,37a1,1,0,0,0-.9-1.09h0a1.1,1.1,0,0,0,0,2.17,1,1,0,0,0,.9-1.07h0"/><path id="Path_58" data-name="Path 58" class="cls-2" d="M155.06,37a.93.93,0,1,0-.91,1.07,1,1,0,0,0,.91-1.07"/><path id="Path_59" data-name="Path 59" class="cls-2" d="M158.48,45.72a.35.35,0,0,1-.34.34h-3V39.42l-1.88,1.2v5.1a.34.34,0,0,1-.34.34h-3V34.49L148,35.87v9.85a.35.35,0,0,1-.34.34H144.5V39.62h-3.35a4.1,4.1,0,0,0-4.17,4v.12a3.67,3.67,0,0,0,.78,2.32h-3.92V39.42L132,40.62V48a2.4,2.4,0,0,1-1,2.12,2.66,2.66,0,0,1-1.48.38,6.84,6.84,0,0,1-2.06-.34l.83,1.88a1.59,1.59,0,0,0,.39.1,5.27,5.27,0,0,0,1.25.14,3.88,3.88,0,0,0,2.44-.77,4.53,4.53,0,0,0,1.47-3.64,1.22,1.22,0,0,0,.27,0h8.34a2.22,2.22,0,0,0,1.55-.56.83.83,0,0,0,.82.56h2.94a2.18,2.18,0,0,0,1.54-.56.85.85,0,0,0,.82.56H153a2.19,2.19,0,0,0,1.54-.56.85.85,0,0,0,.82.56h2.85a1.94,1.94,0,0,0,2.12-1.76,1.15,1.15,0,0,0,0-.37V34.49l-1.88,1.38Zm-15.78,0a.34.34,0,0,1-.34.34h-1.08a2.33,2.33,0,0,1,0-4.65h1.42Z"/><path id="Path_60" data-name="Path 60" class="cls-2" d="M163.1,47.93H165V34.49l-1.88,1.2Z"/><path id="Path_61" data-name="Path 61" class="cls-2" d="M167.45,43.77a4.1,4.1,0,0,0,4,4.19h1.59a2.65,2.65,0,0,1-.88,2.22,3,3,0,0,1-1.54.37,7.17,7.17,0,0,1-1.61-.2l-.48-.13.82,1.88a1.91,1.91,0,0,0,.34.1,6,6,0,0,0,1.33.14,3.77,3.77,0,0,0,2.54-.86A4.64,4.64,0,0,0,175,47.83V39.61h-3.3a4.11,4.11,0,0,0-4.22,4,.38.38,0,0,0,0,.15m5.64,2.32h-1.42a2.33,2.33,0,0,1,0-4.65h1.42Z"/><path id="Path_62" data-name="Path 62" class="cls-2" d="M185.88,37.75a1.1,1.1,0,1,0-.9-1.27,1.23,1.23,0,0,0,0,.19,1,1,0,0,0,.92,1.08"/><path id="Path_63" data-name="Path 63" class="cls-2" d="M184.54,36.68a.93.93,0,0,0-1.07-.77.93.93,0,0,0,.16,1.84,1,1,0,0,0,.91-1.07"/><path id="Path_64" data-name="Path 64" class="cls-2" d="M193.86,43.73A2.23,2.23,0,0,1,196,41.41h2l.77-1.79h-2.67a4.1,4.1,0,0,0-4.17,4v.14a3.67,3.67,0,0,0,.78,2.32h-3.67a.34.34,0,0,1-.34-.34v-8L186.83,39v.65H185a4,4,0,0,0-4.1,3.85v.34A3.94,3.94,0,0,0,184.53,48h.3a3.68,3.68,0,0,0,2.4-.82,2.08,2.08,0,0,0,1.71.74H199.6V46.06h-3.49a2.25,2.25,0,0,1-2.32-2.14v-.19m-7,.06a2.13,2.13,0,0,1-1.83,2.38l-.17,0c-1.29,0-2-1.09-2-2.4a2.17,2.17,0,0,1,1.94-2.37,1.11,1.11,0,0,1,.26,0h1.78Z"/><path id="Path_65" data-name="Path 65" class="cls-2" d="M202.11,47.93H204V34.49l-1.88,1.2Z"/><path id="Path_66" data-name="Path 66" class="cls-2" d="M208.46,38a1.12,1.12,0,0,0,1-1.2,1,1,0,0,0-2-.32.86.86,0,0,0,0,.32,1.11,1.11,0,0,0,1,1.2"/><path id="Path_67" data-name="Path 67" class="cls-2" d="M209.29,39.61h-1.81l.77,1.79h1a2.22,2.22,0,0,1,2.32,2.11v2.2c0,.23-.07.34-.35.34H206.5V48h4.85a1.93,1.93,0,0,0,2.11-1.74,2.54,2.54,0,0,0,0-.39V43.77a4.08,4.08,0,0,0-4-4.16h-.16"/><path id="Path_68" data-name="Path 68" class="cls-2" d="M218.42,51.24a.63.63,0,0,1,.61-.65h.69l.41-.78h-1.19a1.44,1.44,0,0,0-1.41,1.45,1.28,1.28,0,0,0,.12.61.93.93,0,0,0-.63.25v.77a1.39,1.39,0,0,1,.9-.23h2.17l.4-.83h-1.36a.62.62,0,0,1-.68-.54v-.08"/><path id="Path_69" data-name="Path 69" class="cls-2" d="M229,35.87v9.84a.34.34,0,0,1-.34.34h-3.1V34.47l-1.88,1.22V45.75a.32.32,0,0,1-.3.34h-3.13V38l-1.88,1.2v6.82h-2.45V48h7.53a2.18,2.18,0,0,0,1.6-.57.82.82,0,0,0,.82.57h2.87a2,2,0,0,0,2.13-1.76,2.29,2.29,0,0,0,0-.37V34.49Z"/></svg>