<svg id="Layer_1" data-name="Layer 1" xmlns="http://www.w3.org/2000/svg" viewBox="0 0 595.3 222.2"><defs><style>.cls-1{fill:#212951;}.cls-2{fill:#2eabe3;}</style></defs><title>Smart Dubai</title><path class="cls-1" d="M48,129.8H40c-4.6,0-7.7-2.3-9.6-7-1.4,2.2-4.2,3.4-8.1,3.4-6.8,0-11.2-5.9-11.2-13.8,0-8.5,4.3-14,11.8-14,0-.1,5.1-.1,15.2-.1v17.9c0,3.8,1.9,5.8,5.8,5.8H48ZM24.6,93.1H17.5V86.5h7.1Zm5.3,18.7v-7.5H24.7c-3.2,0-5.6,3.6-5.6,8,0,4,2.3,7.3,5.5,7.3S29.9,116.5,29.9,111.8Zm5.4-18.7H28.2V86.5h7.1Z"/><path class="cls-1" d="M58.7,129.8H46.5v-7.6H58.7Z"/><path class="cls-1" d="M63.6,139.3H56.5v-6.6h7.1Zm19.9-9.5H57.9v-7.6h5.2c2.7,0,4-1.8,4-5.5V104h8v12.4a18.08,18.08,0,0,1-.9,5.8h9.3Zm-9.2,9.5H67.2v-6.6h7.1Z"/><path class="cls-1" d="M121.3,129.8h-9.1c-2.3,3.2-5.9,4.9-10.6,4.9s-8.4-1.7-10.8-4.9H82v-7.6h6.4c0-8.2,4.7-13.3,12.9-13.3s13.3,5,13.3,13.3h6.7ZM106.7,122c0-4.5-1.7-6.8-5.1-6.8H101c-2.9,0-4.8,2.7-4.8,6.4s1.9,6.5,5.3,6.5C104.7,128.2,106.7,125.8,106.7,122Z"/><path class="cls-1" d="M153,116.8a12.66,12.66,0,0,1-3.6,9.4c-2.3,2.4-5.5,3.6-9.5,3.6H119.5v-7.6h8.1a15.53,15.53,0,0,1-.9-5.3c0-7.9,5-12.9,12.9-12.9a13.68,13.68,0,0,1,9.7,3.4C151.8,109.6,153,112.8,153,116.8ZM137.7,99.7h-7.1V93.2h7.1Zm7.4,17.4c0-4.5-1.7-6.7-5.1-6.7h-.6a4.43,4.43,0,0,0-3.8,2.1,8.58,8.58,0,0,0-1.1,4.3,7.38,7.38,0,0,0,1.3,4.6,4.69,4.69,0,0,0,4.1,2.1,4.41,4.41,0,0,0,3.9-1.9A7.89,7.89,0,0,0,145.1,117.1Zm3.3-17.4h-7.1V93.2h7.1Z"/><path class="cls-1" d="M181.8,129.8H173c-1.3,6.3-6.4,9.4-15.5,9.4v-6.4c5.2,0,7.9-2.5,7.9-7.5V104h8v18.2h8.4v7.6Z"/><path class="cls-1" d="M196.7,118.8a11.68,11.68,0,0,1-2.5,7.5,9.68,9.68,0,0,1-7.9,3.5h-7.5v-7.6h5.9c2.7,0,4-1.9,4-5.6V93.1h8Z"/><path class="cls-1" d="M210.2,129.8h-8V93.1h8Z"/><path class="cls-1" d="M271.6,129.8h-.4c-4.6,0-8-1.1-10.3-3.4-1.8,7.7-9.9,12.8-19.1,12.8-11.4,0-20.4-8.4-20.4-19.4V113h8v6.1c0,7.6,4.5,12.8,12.6,12.8,6.2,0,12-3.9,12-9.2a5.14,5.14,0,0,0-5.3-5,6.75,6.75,0,0,0-1.4.2V111a17.92,17.92,0,0,1,3.5-.1c5.8,0,10,2.6,12.8,7.9,1.4,2.6,3.4,3.5,6.8,3.5h1.3v7.5Zm-30.7,21.3h-7.1v-6.5h7.1Zm10.7,0h-7.1v-6.5h7.1Z"/><path class="cls-1" d="M283.1,129.8H270.9v-7.6h12.2Z"/><path class="cls-1" d="M294.4,129.8H282.2v-7.6h12.2Z"/><path class="cls-1" d="M305.6,129.8H293.4v-7.6h12.2Z"/><path class="cls-1" d="M316.9,129.8H304.7v-7.6h12.2Z"/><path class="cls-1" d="M328.2,129.8H316v-7.6h12.2Z"/><path class="cls-1" d="M339.5,129.8H327.3v-7.6h12.2Z"/><path class="cls-1" d="M350.7,129.8H338.5v-7.6h12.2Z"/><path class="cls-1" d="M362,129.8H349.8v-7.6H362Z"/><path class="cls-1" d="M373.3,129.8H361.1v-7.6h12.2Z"/><path class="cls-1" d="M389.4,118.8a11.68,11.68,0,0,1-2.5,7.5,9.61,9.61,0,0,1-7.8,3.5h-6.8v-7.6h5.1c2.7,0,4-1.9,4-5.6V104h8v14.8Zm-.4,20.5h-7.1v-6.6H389Z"/><path class="cls-1" d="M423.1,129.8H394.5v-7.6h20.7c0-8-4.3-11.5-14.5-11.5V104c5,0,8.5.3,10.6,1.1,7.7,2.7,11.8,8.4,11.8,17Z"/><path class="cls-1" d="M11.1,166H26.3a23.2,23.2,0,0,1,8.4,1.5,20.39,20.39,0,0,1,6.6,4.1,18.76,18.76,0,0,1,4.3,6.1,19.44,19.44,0,0,1,1.5,7.6v.1a19.94,19.94,0,0,1-1.5,7.7,17.75,17.75,0,0,1-4.3,6.2,20,20,0,0,1-6.6,4.1,22.44,22.44,0,0,1-8.4,1.5H11.1Zm15.2,31.1a15.1,15.1,0,0,0,4.8-.8,11.82,11.82,0,0,0,3.7-2.4,12,12,0,0,0,3.3-8.4v-.1a12,12,0,0,0-3.3-8.4,11.82,11.82,0,0,0-3.7-2.4,12.09,12.09,0,0,0-4.8-.9H19.7v23.5h6.6Z"/><path class="cls-1" d="M53.2,166h8.6v38.9H53.2Z"/><path class="cls-1" d="M88.5,205.5a22.28,22.28,0,0,1-8.3-1.5,17.83,17.83,0,0,1-6.4-4.2,19.33,19.33,0,0,1-4.2-6.3,20.73,20.73,0,0,1-1.5-8v-.1a20.08,20.08,0,0,1,1.5-7.8,18.52,18.52,0,0,1,4.3-6.4,20.27,20.27,0,0,1,14.6-5.9,24.55,24.55,0,0,1,4.8.4,23.39,23.39,0,0,1,4,1,13.53,13.53,0,0,1,3.4,1.7,22.59,22.59,0,0,1,3.1,2.3l-5.4,6.5c-.7-.6-1.5-1.2-2.2-1.7a10.08,10.08,0,0,0-2.3-1.2,19.75,19.75,0,0,0-2.6-.8,14.16,14.16,0,0,0-3.1-.3,9.47,9.47,0,0,0-4.4,1,13.24,13.24,0,0,0-3.6,2.6,13.6,13.6,0,0,0-2.4,3.8,12.29,12.29,0,0,0-.9,4.7v.1a13,13,0,0,0,.9,4.9,12.8,12.8,0,0,0,2.4,3.9,11.83,11.83,0,0,0,3.7,2.6,12.09,12.09,0,0,0,4.8.9,13.4,13.4,0,0,0,8.1-2.4v-5.6H88.2v-7.4h16.9v16.9a29.42,29.42,0,0,1-7.1,4.4A22.4,22.4,0,0,1,88.5,205.5Z"/><path class="cls-1" d="M111.9,166h8.6v38.9h-8.6Z"/><path class="cls-1" d="M137.5,173.9H125.7V166h32.2v7.9H146.1v31h-8.6v-31Z"/><path class="cls-1" d="M176,165.7h7.9l16.7,39.2h-9l-3.6-8.7H171.5l-3.6,8.7h-8.7Zm9,22.9L179.8,176l-5.2,12.6Z"/><path class="cls-1" d="M204.8,166h8.6v31.2h19.4v7.7h-28Z"/><path class="cls-1" d="M251.6,166h15.2a23.2,23.2,0,0,1,8.4,1.5,20.39,20.39,0,0,1,6.6,4.1,18.76,18.76,0,0,1,4.3,6.1,19.44,19.44,0,0,1,1.5,7.6v.1a19.94,19.94,0,0,1-1.5,7.7,17.75,17.75,0,0,1-4.3,6.2,20,20,0,0,1-6.6,4.1,22.44,22.44,0,0,1-8.4,1.5H251.6V166Zm15.2,31.1a15.1,15.1,0,0,0,4.8-.8,11.46,11.46,0,0,0,7-10.8v-.1a11.06,11.06,0,0,0-7-10.8,12.09,12.09,0,0,0-4.8-.9h-6.6v23.5h6.6Z"/><path class="cls-1" d="M309.5,205.5c-5.2,0-9.3-1.4-12.3-4.3s-4.5-7.2-4.5-13V166h8.6v22c0,3.2.7,5.6,2.2,7.2a8,8,0,0,0,6.2,2.4,8.46,8.46,0,0,0,6.2-2.3c1.5-1.6,2.2-3.9,2.2-7V166h8.6v22a22.24,22.24,0,0,1-1.2,7.7,14.64,14.64,0,0,1-3.4,5.5,13.6,13.6,0,0,1-5.4,3.3A27.22,27.22,0,0,1,309.5,205.5Z"/><path class="cls-1" d="M333.5,166h18c4.5,0,7.9,1.1,10.2,3.4a9,9,0,0,1,2.7,6.6v.1a8.47,8.47,0,0,1-.4,2.9,8.17,8.17,0,0,1-1.1,2.3,9.34,9.34,0,0,1-1.6,1.8,8.58,8.58,0,0,1-2,1.3,12.94,12.94,0,0,1,5.3,3.5,8.92,8.92,0,0,1,1.9,6.1v.1a9.09,9.09,0,0,1-3.9,8,12.85,12.85,0,0,1-4.6,2,27.45,27.45,0,0,1-6,.7H333.5Zm16.3,15.7a8.34,8.34,0,0,0,4.5-1,3.34,3.34,0,0,0,1.7-3.1v-.1a3.61,3.61,0,0,0-1.4-3,7.26,7.26,0,0,0-4.2-1h-8.5v8.2Zm2.3,15.7a7.75,7.75,0,0,0,4.4-1,3.53,3.53,0,0,0,1.6-3.2V193a3.75,3.75,0,0,0-1.5-3.1c-1-.8-2.6-1.1-4.8-1.1h-9.9v8.6Z"/><path class="cls-1" d="M385.2,165.7h7.9l16.7,39.2h-9l-3.6-8.7H380.7l-3.6,8.7h-8.7Zm9.1,22.9L389.1,176l-5.2,12.6Z"/><path class="cls-1" d="M414.4,166H423v38.9h-8.6Z"/><path class="cls-2" d="M491.2,186H452.6v19.6h38.6a92.9,92.9,0,1,0,0-185.8H392.1V39.4h99.1a73.3,73.3,0,1,1,0,146.6Z"/><path class="cls-2" d="M491.2,58.6H428.9V78h62.3a34.6,34.6,0,0,1,0,69.2H471.8v-51H452.4v70.5h38.8a54.05,54.05,0,0,0,0-108.1Z"/></svg>