<svg id="Layer_1" data-name="Layer 1" xmlns="http://www.w3.org/2000/svg" xmlns:xlink="http://www.w3.org/1999/xlink" viewBox="0 0 351.74 35.02"><defs><style>.cls-1{fill:none;}.cls-2{clip-path:url(#clip-path);}.cls-3{fill:#3f4c61;}.cls-4{fill:#9d805f;}.cls-5{fill:#344b61;}</style><clipPath id="clip-path"><rect class="cls-1" x="-16.22" y="-22.52" width="383.63" height="80.07"/></clipPath></defs><title>Telecommunications Regulatory Authority (TRA) and the Digital Government</title><g class="cls-2"><path class="cls-3" d="M154.78,15.48l-2.6,1.33h-2.65V15.48Zm-1.62,7.66H151.6V16.83a1.23,1.23,0,0,1,.58-1.07,1.49,1.49,0,0,1,.89-.28h2.3v1.33h-2.21ZM157.85,20v1.79h4v1.33h-4.07a1.42,1.42,0,0,1-1.18-.55,1.25,1.25,0,0,1-.29-.8v-5a1.23,1.23,0,0,1,.59-1.07,1.45,1.45,0,0,1,.88-.24h4.12v1.33h-4v1.88h3.67V20Zm7.41,1.79h3.67v1.33h-3.76a1.42,1.42,0,0,1-1.19-.56,1.26,1.26,0,0,1-.27-.79V15.48h1.55Zm-13.08,5.67h.94a4,4,0,0,1,1.73.39,2.31,2.31,0,0,1,.55.37l-1.22.94a1.36,1.36,0,0,0-.9-.48h-1.1a1.16,1.16,0,0,0-1,.56,1.62,1.62,0,0,0-.26.88V31.8a1.41,1.41,0,0,0,.51,1.15,1.2,1.2,0,0,0,.79.29H154V30.92h1.42v2.24a1.16,1.16,0,0,1-.53,1,1.44,1.44,0,0,1-.8.24h-1.9a2.66,2.66,0,0,1-1.95-.81,2.5,2.5,0,0,1-.76-1.84V30.08a2.48,2.48,0,0,1,.82-1.91,2.63,2.63,0,0,1,1.85-.69m7.84,7h-.94a2.68,2.68,0,0,1-2-.81,2.5,2.5,0,0,1-.76-1.84V30a2.51,2.51,0,0,1,.81-1.89,2.68,2.68,0,0,1,1.9-.75H160a2.67,2.67,0,0,1,1.94.8,2.56,2.56,0,0,1,.87,1.84v1.85a2.53,2.53,0,0,1-.81,1.9,2.68,2.68,0,0,1-1.9.75m-.94-1.21h.94a1.19,1.19,0,0,0,1-.57,1.49,1.49,0,0,0,.27-.87V30a1.42,1.42,0,0,0-.53-1.15,1.17,1.17,0,0,0-.76-.28h-.94a1.16,1.16,0,0,0-1,.56,1.43,1.43,0,0,0-.28.87v1.85a1.42,1.42,0,0,0,.52,1.15,1.23,1.23,0,0,0,.78.29M171.72,20v1.79h4v1.33h-4.07a1.45,1.45,0,0,1-1.19-.55,1.3,1.3,0,0,1-.28-.8v-5a1.2,1.2,0,0,1,.59-1.07,1.38,1.38,0,0,1,.88-.28h4v1.33h-4v1.88h3.66V20Zm7.06-1.62v1.83a1.56,1.56,0,0,0,.57,1.26,1.29,1.29,0,0,0,.86.32h1a1.48,1.48,0,0,0,1.07-.42l.1-.11,1.35,1A3.43,3.43,0,0,1,182,23a3.84,3.84,0,0,1-.76.08h-1a2.88,2.88,0,0,1-2.14-.88,2.8,2.8,0,0,1-.84-2V18.4a2.77,2.77,0,0,1,.89-2.09,3,3,0,0,1,2.09-.83h1a4.38,4.38,0,0,1,1.91.44,2.47,2.47,0,0,1,.61.4l-1.35,1a1.47,1.47,0,0,0-1-.54h-1.22a1.32,1.32,0,0,0-1.13.62,1.68,1.68,0,0,0-.3,1m9.85,4.84h-1a2.88,2.88,0,0,1-2.14-.88,2.8,2.8,0,0,1-.84-2v-2a2.78,2.78,0,0,1,.89-2.08,3,3,0,0,1,2.09-.83h1a2.91,2.91,0,0,1,2.14.89,2.78,2.78,0,0,1,.84,2v2a2.8,2.8,0,0,1-.89,2.09,3,3,0,0,1-2.09.82m-1-1.33h1a1.3,1.3,0,0,0,1.12-.62,1.62,1.62,0,0,0,.3-1v-2a1.56,1.56,0,0,0-.58-1.27,1.3,1.3,0,0,0-.84-.31h-1a1.3,1.3,0,0,0-1.12.62,1.63,1.63,0,0,0-.31,1v2a1.54,1.54,0,0,0,.57,1.26,1.29,1.29,0,0,0,.86.32m12.29-4.85L198.14,22H196.5l-1.72-4.95-.58,6.07h-1.67l.71-6.38a1.42,1.42,0,0,1,.82-1.2,1.59,1.59,0,0,1,.61-.13,1.21,1.21,0,0,1,1.07.54,1.51,1.51,0,0,1,.15.28l1.43,4.23,1.46-4.23a1.19,1.19,0,0,1,.9-.78H200a1.33,1.33,0,0,1,1.14.57,1.61,1.61,0,0,1,.29.76l.71,6.38h-1.66Zm10.49,0L208.64,22H207l-1.73-4.95-.59,6.07H203l.71-6.38a1.42,1.42,0,0,1,.81-1.2,1.68,1.68,0,0,1,.62-.13,1.23,1.23,0,0,1,1.07.54,1.51,1.51,0,0,1,.15.28l1.4,4.23,1.44-4.19a1.19,1.19,0,0,1,.9-.78h.32a1.35,1.35,0,0,1,1.14.57,1.61,1.61,0,0,1,.29.76l.71,6.38h-1.67Zm3.42-1.59h1.56v4.75a1.56,1.56,0,0,0,.54,1.25,1.28,1.28,0,0,0,.84.31h.84a1.28,1.28,0,0,0,1.12-.61,1.63,1.63,0,0,0,.31-1v-4.7h1.55v4.75a2.81,2.81,0,0,1-.9,2.09,2.94,2.94,0,0,1-2.08.82h-.84a2.92,2.92,0,0,1-2.14-.88,2.8,2.8,0,0,1-.84-2Zm9.7,0a1.55,1.55,0,0,1,1.38,1l.17.36,2.16,5.06V15.48h1.59v6.36a1.22,1.22,0,0,1-.62,1.06,1.66,1.66,0,0,1-.94.29,1.55,1.55,0,0,1-1.38-1l-.17-.37-2.16-5.06v6.36H222V16.78a1.23,1.23,0,0,1,.62-1.06,1.66,1.66,0,0,1,.94-.29m6.74.05h1.55v7.66h-1.55Zm4.26,2.92v1.83a1.56,1.56,0,0,0,.57,1.26,1.29,1.29,0,0,0,.86.32h1a1.44,1.44,0,0,0,1.06-.42l.11-.11,1.34,1a3.44,3.44,0,0,1-1.75.75,3.84,3.84,0,0,1-.76.08h-1a2.92,2.92,0,0,1-2.14-.88,2.8,2.8,0,0,1-.84-2V18.4a2.81,2.81,0,0,1,.9-2.09,2.93,2.93,0,0,1,2.08-.83h1a4.38,4.38,0,0,1,1.91.44,2.17,2.17,0,0,1,.6.4l-1.34,1a1.47,1.47,0,0,0-1-.54H235.9a1.3,1.3,0,0,0-1.12.62,1.63,1.63,0,0,0-.31,1m11.09,3.73h-3.85l-.22-1.34h3.6L243.78,17l-2.16,6.11H240l2.26-6.41q.5-1.34,1.56-1.35c.7,0,1.21.46,1.54,1.35l2.27,6.41h-1.66ZM252,15.48l-2.23,1.33h-2.65V15.48Zm-1.25,7.66h-1.56V16.83a1.23,1.23,0,0,1,.59-1.07,1.46,1.46,0,0,1,.88-.28h2.3v1.33H250.7ZM254,15.48h1.55v7.66H254Zm6.75,7.76h-1a2.88,2.88,0,0,1-2.14-.88,2.8,2.8,0,0,1-.84-2v-2a2.77,2.77,0,0,1,.89-2.08,3,3,0,0,1,2.09-.9h1a2.91,2.91,0,0,1,2.14.89,2.74,2.74,0,0,1,.85,2v2a2.81,2.81,0,0,1-.9,2.09,2.91,2.91,0,0,1-2.09.82m-1-1.33h1a1.3,1.3,0,0,0,1.13-.62,1.68,1.68,0,0,0,.29-1v-2a1.55,1.55,0,0,0-.57-1.27,1.33,1.33,0,0,0-.85-.31h-1a1.32,1.32,0,0,0-1.13.62,1.62,1.62,0,0,0-.3,1v2a1.54,1.54,0,0,0,.57,1.26,1.29,1.29,0,0,0,.86.32m6.78-6.37a1.56,1.56,0,0,1,1.37,1l.18.36,2.16,5.06V15.48h1.51v6.36a1.23,1.23,0,0,1-.62,1.06,1.66,1.66,0,0,1-.94.29,1.55,1.55,0,0,1-1.38-1c-.06-.11-.11-.23-.17-.37l-2.17-5.06v6.36H265V16.78a1.25,1.25,0,0,1,.62-1.06,1.69,1.69,0,0,1,.95-.29m6.5,2.24a1.9,1.9,0,0,1,.87-1.57,3.25,3.25,0,0,1,2-.62h1a4,4,0,0,1,1.83.44,2.92,2.92,0,0,1,.59.4l-1.36,1a1.32,1.32,0,0,0-.92-.54h-1.17a1.48,1.48,0,0,0-1.15.43.74.74,0,0,0-.17.43c0,.26.28.49.84.68l.89.25a8.46,8.46,0,0,1,2.13.76,1.85,1.85,0,0,1,1,1.6,1.88,1.88,0,0,1-.9,1.56,3.54,3.54,0,0,1-2.09.62h-1a4.52,4.52,0,0,1-1.91-.43,2.42,2.42,0,0,1-.6-.4l1.33-1a1.45,1.45,0,0,0,1,.52h1.21a1.61,1.61,0,0,0,1.24-.43.65.65,0,0,0,.19-.42c0-.3-.29-.54-.85-.74-.08,0-.57-.17-1.47-.41a4.64,4.64,0,0,1-2.11-1,1.62,1.62,0,0,1-.44-1.14m15.71,4.47H284.9l-.12-1.34h3.45L286.91,17l-2.13,6.11h-1.66l2.26-6.41c.33-.89.85-1.34,1.55-1.35s1.22.46,1.54,1.35l2.31,6.41h-1.67Zm4.45-6.65a1.55,1.55,0,0,1,1.38,1l.17.36,2.16,5.06V15.48h1.56v6.36a1.23,1.23,0,0,1-.62,1.06,1.69,1.69,0,0,1-.95.29,1.59,1.59,0,0,1-1.38-1l-.17-.37-2.16-5.06v6.36H291.6V16.78a1.25,1.25,0,0,1,.62-1.06,1.66,1.66,0,0,1,.94-.29m6.72,1.4a1.24,1.24,0,0,1,.58-1.08,1.55,1.55,0,0,1,.88-.27h2.1a2.91,2.91,0,0,1,2.13.89,2.79,2.79,0,0,1,.85,2V20.2a2.8,2.8,0,0,1-.89,2.09,3,3,0,0,1-2.09.82h-3.56Zm5,3.4V18.4a1.56,1.56,0,0,0-.58-1.27,1.29,1.29,0,0,0-.84-.32h-2v5h2a1.28,1.28,0,0,0,1.12-.62,1.62,1.62,0,0,0,.3-1m5.9-3.36a1.22,1.22,0,0,1,.59-1.08,1.49,1.49,0,0,1,.87-.27h2.1a2.91,2.91,0,0,1,2.14.89,2.8,2.8,0,0,1,.84,2V20.2a2.8,2.8,0,0,1-.89,2.09,3,3,0,0,1-2.09.82h-3.56Zm5,3.4V18.4a1.54,1.54,0,0,0-.58-1.27,1.29,1.29,0,0,0-.84-.32h-2v5h2a1.27,1.27,0,0,0,1.12-.62,1.62,1.62,0,0,0,.3-1m2.78-4.71h1.55v7.66h-1.55Zm5.67,0h1a4.38,4.38,0,0,1,1.91.44,2.47,2.47,0,0,1,.61.4l-1.35,1a1.47,1.47,0,0,0-1-.54h-1.22a1.3,1.3,0,0,0-1.12.62,1.7,1.7,0,0,0-.29,1v1.83a1.56,1.56,0,0,0,.57,1.26,1.29,1.29,0,0,0,.86.32h2V19.32h1.58v2.47a1.26,1.26,0,0,1-.59,1.09,1.44,1.44,0,0,1-.87.26h-2.1a2.88,2.88,0,0,1-2.14-.88,2.8,2.8,0,0,1-.84-2V18.4a2.78,2.78,0,0,1,.9-2.1,2.88,2.88,0,0,1,2.06-.82m5,0h1.55v7.66h-1.55Zm7.4,0-2.14,1.33h-2.6V15.48Zm-1.11,7.66H334V16.83a1.23,1.23,0,0,1,.59-1.07,1.49,1.49,0,0,1,.89-.28h2.35v1.33h-2.21Zm7.16-1H338.6l.64-1.34h3L340.92,17l-2.14,6.11h-1.7l2.26-6.41c.33-.89.85-1.34,1.55-1.35s1.22.46,1.54,1.35l2.28,6.41H343Zm4.46-.32h3.64v1.33H347a1.42,1.42,0,0,1-1.19-.56,1.26,1.26,0,0,1-.27-.79V15.48h1.55ZM166.87,33l2-5.55h1.51l-2,5.82c-.31.81-.78,1.22-1.42,1.23s-1.1-.42-1.4-1.23l-2.1-5.77h1.51Zm5.63-1.43v1.63h3.61v1.21h-3.72a1.34,1.34,0,0,1-1.08-.51,1.17,1.17,0,0,1-.25-.72v-4.5a1.13,1.13,0,0,1,.53-1,1.33,1.33,0,0,1,.8-.25h3.68v1.21h-3.61v1.7h3.32v1.21Z"/><path class="cls-3" d="M179.2,28.64v5.75h-1.42V28.66a1.12,1.12,0,0,1,.54-1,1.39,1.39,0,0,1,.79-.24H181a2.78,2.78,0,0,1,2,.76,2.19,2.19,0,0,1,.66,1.6v.27a2.16,2.16,0,0,1-1,1.85,2.85,2.85,0,0,1-.79.37l1.89,2.11h-1.76l-1.75-2h-1.54V31.17H181a1.21,1.21,0,0,0,1.17-.59,1.38,1.38,0,0,0,.12-.56v-.27a1,1,0,0,0-.75-1.07,1.42,1.42,0,0,0-.54-.08Zm7.12-1.26a1.41,1.41,0,0,1,1.25.9l.16.33,2,4.6V27.48h1.41v5.78a1.14,1.14,0,0,1-.56,1,1.55,1.55,0,0,1-.86.26,1.39,1.39,0,0,1-1.25-.89l-.16-.33-2-4.6v5.78H184.9V28.61a1.14,1.14,0,0,1,.56-1,1.46,1.46,0,0,1,.86-.27m12.52,1.53-1.57,4.5h-1.49l-1.56-4.5-.54,5.52h-1.51l.64-5.8a1.31,1.31,0,0,1,.74-1.09,1.38,1.38,0,0,1,.56-.12,1.08,1.08,0,0,1,1,.49,1.23,1.23,0,0,1,.14.25l1.31,3.81,1.31-3.81a1.08,1.08,0,0,1,.82-.7,1.31,1.31,0,0,1,.28,0,1.21,1.21,0,0,1,1,.52,1.53,1.53,0,0,1,.26.69l.65,5.8h-1.52Zm4.46,2.68v1.63h3.61v1.21h-3.66a1.34,1.34,0,0,1-1.08-.51,1.12,1.12,0,0,1-.26-.72v-4.5a1.16,1.16,0,0,1,.53-1,1.32,1.32,0,0,1,.81-.25H207v1.21h-3.61v1.7h3.33v1.21ZM210,27.38a1.41,1.41,0,0,1,1.25.9l.16.33,2,4.6V27.48h1.35v5.78a1.14,1.14,0,0,1-.56,1,1.55,1.55,0,0,1-.86.26,1.39,1.39,0,0,1-1.25-.89L212,33.3l-2-4.6v5.78h-1.41V28.61a1.14,1.14,0,0,1,.56-1,1.46,1.46,0,0,1,.86-.27m9.2.14-.89,1.21h-2.49V27.48Zm-.09,7h-1.42V28.66a1.13,1.13,0,0,1,.53-1,1.33,1.33,0,0,1,.8-.25h2.09v1.21h-2Zm7.19-5.84v5.75h-1.41V28.66a1.12,1.12,0,0,1,.54-1,1.39,1.39,0,0,1,.79-.24h1.91a2.78,2.78,0,0,1,2,.76,2.19,2.19,0,0,1,.66,1.6v.27a2.16,2.16,0,0,1-1,1.85,2.76,2.76,0,0,1-.8.37l1.9,2.11h-1.76l-1.75-2h-1.61l.21-1.21h2.1a1.21,1.21,0,0,0,1.17-.59,1.38,1.38,0,0,0,.12-.56v-.27a1,1,0,0,0-.75-1.07,1.64,1.64,0,0,0-.54-.08Zm7,2.91v1.63h3.61v1.21h-3.73a1.34,1.34,0,0,1-1.08-.51,1.12,1.12,0,0,1-.26-.72v-4.5a1.1,1.1,0,0,1,.54-1,1.27,1.27,0,0,1,.8-.25h3.73v1.21H233.3v1.7h3.33v1.21ZM241,27.48h.94a4,4,0,0,1,1.73.39,2.31,2.31,0,0,1,.55.37l-1.22.94a1.36,1.36,0,0,0-.9-.48H241a1.16,1.16,0,0,0-1,.56,1.62,1.62,0,0,0-.26.88V31.8a1.41,1.41,0,0,0,.51,1.15,1.2,1.2,0,0,0,.79.29h1.75V30.92h1.42v2.24a1.12,1.12,0,0,1-.54,1,1.39,1.39,0,0,1-.79.24H241a2.64,2.64,0,0,1-2-.81,2.5,2.5,0,0,1-.76-1.84V30.08a2.48,2.48,0,0,1,.82-1.91,2.65,2.65,0,0,1,1.87-.74m4.52.05h1.42v4.31a1.4,1.4,0,0,0,.52,1.16,1.22,1.22,0,0,0,.77.28h.75a1.22,1.22,0,0,0,1-.56,1.55,1.55,0,0,0,.27-.88V27.48h1.41v4.31a2.53,2.53,0,0,1-.81,1.9,2.68,2.68,0,0,1-1.9.75h-.75a2.68,2.68,0,0,1-2-.81,2.5,2.5,0,0,1-.76-1.84Zm8.79,5.7h3.33v1.21H254.1a1.26,1.26,0,0,1-1.07-.52,1.14,1.14,0,0,1-.25-.71V27.48h1.41Zm9.07.3H259.6l.41-1.21h2.84l-1.2-3.41-1.95,5.55h-1.51l2-5.83c.31-.81.78-1.22,1.41-1.22s1.11.41,1.41,1.22l2.06,5.83h-1.51Zm5.26-6-1.13,1.21h-2.76V27.48Zm-.59,7h-1.42V28.66a1.16,1.16,0,0,1,.53-1,1.32,1.32,0,0,1,.81-.25H270v1.21h-2Zm6.32,0h-.94a2.64,2.64,0,0,1-1.94-.81,2.51,2.51,0,0,1-.77-1.84V30a2.51,2.51,0,0,1,.81-1.89,2.68,2.68,0,0,1,1.9-.75h.94a2.67,2.67,0,0,1,1.94.8A2.51,2.51,0,0,1,277,30v1.85a2.53,2.53,0,0,1-.81,1.9,2.68,2.68,0,0,1-1.9.75m-.94-1.21h.94a1.19,1.19,0,0,0,1-.57,1.49,1.49,0,0,0,.27-.87V30a1.39,1.39,0,0,0-.53-1.15,1.17,1.17,0,0,0-.76-.28h-.94a1.16,1.16,0,0,0-1,.56A1.43,1.43,0,0,0,272,30v1.85a1.42,1.42,0,0,0,.52,1.15,1.23,1.23,0,0,0,.78.29m6.18-4.63v5.75H278.1V28.66a1.12,1.12,0,0,1,.54-1,1.39,1.39,0,0,1,.79-.24h1.91a2.78,2.78,0,0,1,2.05.76,2.19,2.19,0,0,1,.66,1.6v.27a2.14,2.14,0,0,1-.95,1.85,2.76,2.76,0,0,1-.8.37l1.9,2.11h-1.76l-1.75-2h-1.42V31.17h2.09a1.21,1.21,0,0,0,1.17-.59,1.38,1.38,0,0,0,.12-.56v-.27a1,1,0,0,0-.75-1.07,1.64,1.64,0,0,0-.54-.08Zm18.54,4.84h-3.74l.32-1.21h3l-1.2-3.41-1.95,5.55H293l2-5.83c.3-.81.77-1.22,1.41-1.22s1.11.41,1.4,1.22l2.07,5.83h-1.52Zm2.58-6H302v4.31a1.44,1.44,0,0,0,.53,1.16,1.17,1.17,0,0,0,.76.28h.76a1.22,1.22,0,0,0,1-.56,1.38,1.38,0,0,0,.28-.88V27.48h1.41v4.31a2.53,2.53,0,0,1-.81,1.9,2.68,2.68,0,0,1-1.9.75h-.76a2.64,2.64,0,0,1-1.94-.81,2.5,2.5,0,0,1-.76-1.84Zm10.85,0-1.22,1.21H307.7V27.48Zm-.48,7h-1.42V28.66a1.1,1.1,0,0,1,.54-1,1.27,1.27,0,0,1,.8-.25H313v1.21h-2Zm4.43-3.38-.37-.76h3.4V27.43h1.42v7h-1.42V31.55h-3v2.84H314v-7h1.41Zm9.16,3.38h-.94a2.64,2.64,0,0,1-1.94-.81,2.51,2.51,0,0,1-.77-1.84V30a2.51,2.51,0,0,1,.81-1.89,2.68,2.68,0,0,1,1.9-.75h.94a2.69,2.69,0,0,1,2,.8A2.54,2.54,0,0,1,327.3,30v1.85a2.53,2.53,0,0,1-.81,1.9,2.68,2.68,0,0,1-1.9.75m-.94-1.21h.94a1.19,1.19,0,0,0,1-.57,1.58,1.58,0,0,0,.26-.87V30a1.42,1.42,0,0,0-.52-1.15,1.2,1.2,0,0,0-.77-.28h-.94a1.16,1.16,0,0,0-1,.56,1.5,1.5,0,0,0-.28.87v1.85a1.45,1.45,0,0,0,.52,1.15,1.23,1.23,0,0,0,.78.29m6.2-4.63v5.75h-1.41V28.66a1.16,1.16,0,0,1,.53-1,1.38,1.38,0,0,1,.82-.18h1.91a2.81,2.81,0,0,1,2.06.76,2.18,2.18,0,0,1,.65,1.6v.27a2.14,2.14,0,0,1-.95,1.85,2.85,2.85,0,0,1-.79.37l1.9,2.11h-1.78l-1.75-2h-1.62l-.23-1.21h2.49a1.19,1.19,0,0,0,1.17-.59,1.38,1.38,0,0,0,.12-.56v-.27a1,1,0,0,0-.75-1.07,1.42,1.42,0,0,0-.54-.08Zm5.75-1.21H337v7h-1.41Zm6,.05-.92,1.21H338V27.48Zm-.27,7h-1.42V28.66a1.16,1.16,0,0,1,.53-1,1.33,1.33,0,0,1,.8-.25h2.1v1.21h-2Zm5.82-4,1.95-3h1.52l-2.07,3.29a2.92,2.92,0,0,1-.68.8v2.87h-1.42v-2.9a2.67,2.67,0,0,1-.71-.82l-2.05-3.24h1.51Zm-59.35,0,2-3h1.51l-2.06,3.29a3.25,3.25,0,0,1-.68.8v2.87h-1.42v-2.9a2.67,2.67,0,0,1-.71-.82l-2.07-3.24h1.51Z"/><path class="cls-4" d="M119.49,6.54c-1.18-3.4-3.24-6-6.8-6s-5.61,2.61-6.8,6L96,35h7.3l1.58-4.55,2.06-5.91,5.8-16.7L122.14,35h7.3Z"/><path class="cls-5" d="M153.14,3.68V3.13a.12.12,0,0,1,.11-.13h1.53c.08,0,.12,0,.12.13V7a.72.72,0,0,0,.15.53.68.68,0,0,0,.46.14h.39c.34,0,.51.26.51.77a1.08,1.08,0,0,1-.12.61.47.47,0,0,1-.39.15h-1.31a2,2,0,0,1-1-.19,1,1,0,0,1-.47-.74,2,2,0,0,1-.64.34,2.58,2.58,0,0,1-.78.11,3,3,0,0,1-.94-.14,2,2,0,0,1-.79-.43,1.86,1.86,0,0,1-.54-.76,3,3,0,0,1-.2-1.14A3.19,3.19,0,0,1,149.45,5a2.11,2.11,0,0,1,.59-.8,2.26,2.26,0,0,1,.82-.41,3.73,3.73,0,0,1,.94-.12Zm-2.57-1.57a.12.12,0,0,1-.13-.11V.74c0-.09,0-.13.13-.13h1.27c.08,0,.12,0,.12.13V2c0,.08,0,.13-.12.13Zm1.53,5.1a1.06,1.06,0,0,0,.76-.27,1.14,1.14,0,0,0,.28-.86V5.21h-1a1.22,1.22,0,0,0-.76.23,1,1,0,0,0-.29.83.84.84,0,0,0,.29.73,1.18,1.18,0,0,0,.73.21m.42-5.1c-.08,0-.12,0-.12-.13V.74c0-.09,0-.13.12-.13h1.25c.09,0,.13,0,.13.13V2a.12.12,0,0,1-.11.13h-1.27Z"/><path class="cls-5" d="M157.48,4c0-.09,0-.13.13-.13h1.52c.08,0,.12,0,.12.13V7a.68.68,0,0,0,.28.5,1.12,1.12,0,0,0,.69.18h.29a.44.44,0,0,1,.38.18,1.08,1.08,0,0,1,.13.58c0,.52-.17.77-.51.77a2.66,2.66,0,0,1-.84-.11,1.15,1.15,0,0,1-.59-.52,1,1,0,0,1-.6.52,4,4,0,0,1-1.09.11h-1.31a.5.5,0,0,1-.38-.15,1,1,0,0,1-.12-.59,1.08,1.08,0,0,1,.12-.61.44.44,0,0,1,.38-.18h.79c.27,0,.44-.08.51-.23a2.23,2.23,0,0,0,.1-.81Zm-.8,7.8a.12.12,0,0,1-.13-.11V10.48c0-.08,0-.12.13-.12H158a.11.11,0,0,1,.12.1v1.26c0,.09,0,.13-.12.13Zm1.95,0c-.08,0-.12,0-.12-.13V10.48a.11.11,0,0,1,.1-.12h1.3c.09,0,.13,0,.13.12v1.24c0,.09,0,.13-.13.13Z"/><path class="cls-5" d="M164.47,9.31a4,4,0,0,1-1.24-.17,2,2,0,0,1-.94-.6,1.09,1.09,0,0,1-.37.37,2.06,2.06,0,0,1-.48.21,4.21,4.21,0,0,1-.49.09h-.43a.46.46,0,0,1-.38-.17,1,1,0,0,1-.12-.58,1.17,1.17,0,0,1,.11-.61.43.43,0,0,1,.39-.18h.37a.73.73,0,0,0,.53-.24,1.38,1.38,0,0,0,.26-.9V6.28a2.57,2.57,0,0,1,.72-1.95,3.42,3.42,0,0,1,4.12,0,2.83,2.83,0,0,1,.76,2.16v.17a1,1,0,0,0,.23.78.76.76,0,0,0,.54.19h.37a.44.44,0,0,1,.38.18,1,1,0,0,1,.13.58q0,.78-.51.78H168a2.46,2.46,0,0,1-.47-.1,1.75,1.75,0,0,1-.43-.22,1.72,1.72,0,0,1-.36-.4,2.06,2.06,0,0,1-.95.64,4.53,4.53,0,0,1-1.27.18m0-4.1c-.7,0-1,.43-1,1.28a1.48,1.48,0,0,0,.26,1,1.23,1.23,0,0,0,1.56,0,1.54,1.54,0,0,0,.26-1c0-.85-.35-1.28-1-1.28"/><path class="cls-5" d="M168.47,9.22a.46.46,0,0,1-.38-.15,1.12,1.12,0,0,1-.12-.62,1,1,0,0,1,.12-.59.44.44,0,0,1,.38-.18h1a2.62,2.62,0,0,1-.2-1.14,3.43,3.43,0,0,1,.23-1.38,2.3,2.3,0,0,1,.63-.88,2.21,2.21,0,0,1,.9-.46,3.77,3.77,0,0,1,1-.14,3.54,3.54,0,0,1,1.07.14,2.15,2.15,0,0,1,1.51,1.34,3.48,3.48,0,0,1,.23,1.39,3.53,3.53,0,0,1-.21,1.29,2.11,2.11,0,0,1-.59.82,2.25,2.25,0,0,1-.89.44,5.17,5.17,0,0,1-1.11.12Zm1.94-6.61a.11.11,0,0,1-.12-.1V1.24a.11.11,0,0,1,.1-.12h1.29c.08,0,.13,0,.13.12V2.48c0,.08-.05.12-.13.12Zm1.64,2.6c-.68,0-1,.41-1,1.23a1.54,1.54,0,0,0,.26,1,1,1,0,0,0,.77.28,1,1,0,0,0,.78-.27,1.43,1.43,0,0,0,.26-1c0-.85-.35-1.27-1-1.27m.32-2.6c-.09,0-.13,0-.13-.12V1.24c0-.08,0-.12.13-.12h1.28a.11.11,0,0,1,.12.1V2.48a.11.11,0,0,1-.1.12h0ZM176.88,4c0-.09,0-.13.13-.13h1.54c.09,0,.13,0,.13.13V7a.67.67,0,0,0,.27.5,1.21,1.21,0,0,0,.69.18h.28a.44.44,0,0,1,.38.18,1,1,0,0,1,.13.58c0,.52-.17.77-.51.77a2.49,2.49,0,0,1-.72-.08,1,1,0,0,1-.52-.35V9a3.36,3.36,0,0,1-.56,2.13,2.28,2.28,0,0,1-1.9.69h-.58c-.09,0-.13,0-.13-.13V10.42c0-.09,0-.13.13-.13h.28a1.1,1.1,0,0,0,.53-.11.59.59,0,0,0,.28-.32,1.13,1.13,0,0,0,.12-.51V8.66Z"/><path class="cls-5" d="M179.92,9.22a.73.73,0,0,1-.38-.08.43.43,0,0,1-.12-.36,1.93,1.93,0,0,1,0-.34,2.37,2.37,0,0,1,.09-.36.72.72,0,0,1,.15-.27.27.27,0,0,1,.23-.12h.45a.68.68,0,0,0,.46-.14A.72.72,0,0,0,181,7V.74c0-.09,0-.13.12-.13h1.55a.12.12,0,0,1,.13.11V7.63a1.81,1.81,0,0,1-.35,1.21,1.41,1.41,0,0,1-1.14.38Z"/><rect class="cls-5" x="184.29" y="0.61" width="1.78" height="8.61" rx="0.13"/><path class="cls-5" d="M194.14,3.68V3.13c0-.08,0-.13.12-.13h1.52a.12.12,0,0,1,.13.11V7a.76.76,0,0,0,.14.53.68.68,0,0,0,.46.14h.4c.34,0,.51.26.51.77a1.08,1.08,0,0,1-.12.61.47.47,0,0,1-.39.15h-1.32a2,2,0,0,1-1-.19,1,1,0,0,1-.46-.74,1.92,1.92,0,0,1-.65.34,2.52,2.52,0,0,1-.77.11,3.06,3.06,0,0,1-1-.14,2,2,0,0,1-.79-.43,1.86,1.86,0,0,1-.54-.76,3,3,0,0,1-.2-1.14A3.2,3.2,0,0,1,190.41,5a2.2,2.2,0,0,1,.58-.8,2.26,2.26,0,0,1,.82-.41,4.21,4.21,0,0,1,1-.12Zm-2.58-1.57c-.08,0-.12,0-.12-.13V.74c0-.09,0-.13.12-.13h1.27a.12.12,0,0,1,.13.11V2a.12.12,0,0,1-.11.13h-1.29Zm1.53,5.1a1.06,1.06,0,0,0,.76-.27,1.13,1.13,0,0,0,.29-.86V5.21h-1a1.23,1.23,0,0,0-.77.23,1,1,0,0,0-.29.83.84.84,0,0,0,.29.73,1.18,1.18,0,0,0,.73.21m.42-5.1c-.08,0-.12,0-.12-.13V.74c0-.09,0-.13.12-.13h1.26c.08,0,.12,0,.12.13V2c0,.08,0,.13-.12.13Z"/><path class="cls-5" d="M201,9.31a4,4,0,0,1-1.24-.17,2,2,0,0,1-.95-.6,1.38,1.38,0,0,1-.41.39,2.76,2.76,0,0,1-.47.2,2.43,2.43,0,0,1-.47.08H197a.43.43,0,0,1-.38-.17,1,1,0,0,1-.13-.58,1.12,1.12,0,0,1,.12-.62.45.45,0,0,1,.39-.17h.37a.73.73,0,0,0,.52-.24,1.33,1.33,0,0,0,.26-.9V6.28A3,3,0,0,1,198.43,5a2.34,2.34,0,0,1,.62-.81,2.53,2.53,0,0,1,.89-.43A4.63,4.63,0,0,1,201,3.66a3.88,3.88,0,0,1,1.07.14,2.17,2.17,0,0,1,.89.46,2.21,2.21,0,0,1,.62.89,3.61,3.61,0,0,1,.23,1.38,3.44,3.44,0,0,1-.22,1.31,2.11,2.11,0,0,1-.59.85,2.17,2.17,0,0,1-.89.46,3.8,3.8,0,0,1-1.11.14m0-4.1c-.7,0-1,.43-1,1.28a1.48,1.48,0,0,0,.27,1,1.25,1.25,0,0,0,1.52,0,1.53,1.53,0,0,0,.25-1c0-.85-.34-1.28-1-1.28m5.13,6.62c-.09,0-.13,0-.13-.13V10.42c0-.09,0-.13.13-.13h1.45a2.61,2.61,0,0,0,.48,0,.73.73,0,0,0,.35-.15.72.72,0,0,0,.21-.33,1.37,1.37,0,0,0,.08-.53h-1.22a2.75,2.75,0,0,1-1.91-.6,2.66,2.66,0,0,1-.66-2,3.76,3.76,0,0,1,.23-1.37,2.57,2.57,0,0,1,.63-.9,2.16,2.16,0,0,1,.89-.49,3.37,3.37,0,0,1,1-.15,3.88,3.88,0,0,1,1.07.14,2.17,2.17,0,0,1,.89.46,2.27,2.27,0,0,1,.6.87,3.71,3.71,0,0,1,.23,1.36V7.73h.86c.34,0,.5.26.5.76a1.13,1.13,0,0,1-.12.63.46.46,0,0,1-.38.15h-.86v.21a2.35,2.35,0,0,1-.61,1.77,2.64,2.64,0,0,1-1.89.58Zm1.62-6.61a.92.92,0,0,0-.78.35,1.55,1.55,0,0,0-.27,1,1.2,1.2,0,0,0,.29.93,1.28,1.28,0,0,0,.78.23h1V6.48c0-.83-.33-1.25-1-1.25"/><path class="cls-5" d="M214.31,3.8a7,7,0,0,1,1.11.13,2.15,2.15,0,0,1,.85.36,1.7,1.7,0,0,1,.54.7A2.94,2.94,0,0,1,217,6.13v.92a.52.52,0,0,0,.26.47,1.32,1.32,0,0,0,.7.17h.28a.44.44,0,0,1,.38.18,1,1,0,0,1,.16.61c0,.52-.17.77-.51.77a2.55,2.55,0,0,1-.91-.14,1.1,1.1,0,0,1-.62-.58,1.27,1.27,0,0,1-.64.57,2.82,2.82,0,0,1-1,.15h-3.72a.45.45,0,0,1-.39-.17,1.18,1.18,0,0,1-.12-.64.94.94,0,0,1,.12-.57.47.47,0,0,1,.39-.15h2.84a2,2,0,0,0,.49,0,.51.51,0,0,0,.29-.13.43.43,0,0,0,.13-.26,1.48,1.48,0,0,0,0-.42V6.33a.91.91,0,0,0-.28-.73,1.28,1.28,0,0,0-.87-.23h-1.9c-.08,0-.12,0-.12-.13v-1a.34.34,0,0,1,.09-.19l.16-.17L214.92.67a.14.14,0,0,1,.17,0l1,.89a.13.13,0,0,1,0,.18h0Z"/><path class="cls-5" d="M218.78,4.69a4,4,0,0,1,1-.73,3,3,0,0,1,1.37-.28,3.82,3.82,0,0,1,1.42.24,2.47,2.47,0,0,1,.94.66,2.66,2.66,0,0,1,.52,1,4.83,4.83,0,0,1,.17,1.25V7a.65.65,0,0,0,.27.49,1.23,1.23,0,0,0,.68.17h.29a.44.44,0,0,1,.38.18,1,1,0,0,1,.13.58q0,.78-.51.78a2.67,2.67,0,0,1-.93-.15,1.27,1.27,0,0,1-.64-.63,1.29,1.29,0,0,1-.72.62,3.75,3.75,0,0,1-1.1.16H218.2a.44.44,0,0,1-.38-.18,1,1,0,0,1,0-.57,1.24,1.24,0,0,1,.12-.6.42.42,0,0,1,.39-.19h3.14a2.09,2.09,0,0,0,.5,0,.57.57,0,0,0,.3-.15.61.61,0,0,0,.15-.3,1.77,1.77,0,0,0,0-.46,2.88,2.88,0,0,0-.06-.59,1.09,1.09,0,0,0-.22-.49,1,1,0,0,0-.39-.33,1.35,1.35,0,0,0-.62-.12,1.49,1.49,0,0,0-.72.16,2.92,2.92,0,0,0-.59.4.11.11,0,0,1-.15,0l0,0-.75-.9c-.08-.08-.09-.14,0-.19"/><path class="cls-5" d="M225.48,9.22a.73.73,0,0,1-.38-.08.41.41,0,0,1-.13-.36,1.93,1.93,0,0,1,0-.34.74.74,0,0,1,.09-.36.74.74,0,0,1,.16-.27.27.27,0,0,1,.23-.12h.44a.71.71,0,0,0,.47-.14A.76.76,0,0,0,226.5,7V.74a.12.12,0,0,1,.11-.13h1.57c.08,0,.12,0,.12.13V7.63A1.75,1.75,0,0,1,228,8.84a1.45,1.45,0,0,1-1.14.38Z"/><rect class="cls-5" x="229.85" y="0.61" width="1.78" height="8.61" rx="0.13"/><path class="cls-5" d="M234.18,11.82c-.09,0-.13,0-.13-.13V10.42c0-.09,0-.13.13-.13h1.46a3.38,3.38,0,0,0,.45,0,.65.65,0,0,0,.35-.15.62.62,0,0,0,.23-.32,1.52,1.52,0,0,0,.08-.56h-.53a10.35,10.35,0,0,1-1.36-.09,2.39,2.39,0,0,1-1-.38,1.81,1.81,0,0,1-.65-.8A3.75,3.75,0,0,1,233,6.62a3.57,3.57,0,0,1,.24-1.37,2.42,2.42,0,0,1,.62-.9,2.23,2.23,0,0,1,.89-.49,3.37,3.37,0,0,1,1-.15,3.54,3.54,0,0,1,1.07.14,2.16,2.16,0,0,1,1.5,1.33,4,4,0,0,1,.22,1.36v3a2.35,2.35,0,0,1-.61,1.77,2.64,2.64,0,0,1-1.89.58Zm1.6-6.61a.92.92,0,0,0-.78.35,1.55,1.55,0,0,0-.27,1,1.17,1.17,0,0,0,.3.93,1.28,1.28,0,0,0,.78.23h1V6.48c0-.83-.33-1.25-1-1.25M250.5,7.55a.72.72,0,0,0,.15-.53V4c0-.09,0-.13.13-.13h1.54c.09,0,.13,0,.13.13V7.63a1.75,1.75,0,0,1-.34,1.21,1.48,1.48,0,0,1-1.17.38h-6.58a1.45,1.45,0,0,1-1.14-.38,1.75,1.75,0,0,1-.34-1.21V4.83c0-.09,0-.13.12-.13h1.55a.12.12,0,0,1,.13.11V7a.76.76,0,0,0,.14.53.71.71,0,0,0,.47.14H250a.61.61,0,0,0,.47-.14M246,3.36c-.08,0-.12,0-.12-.13V2a.11.11,0,0,1,.1-.12h1.29c.09,0,.13,0,.13.12V3.23c0,.09,0,.13-.13.13Zm2,0c-.09,0-.13,0-.13-.13V2c0-.08,0-.12.13-.12h1.28a.11.11,0,0,1,.12.1V3.23c0,.09,0,.13-.12.13Zm9.38,4.33h1.15a.68.68,0,0,0,.46-.14.72.72,0,0,0,.15-.53V.74c0-.09,0-.13.13-.13h1.54c.09,0,.13,0,.13.13V7.63a1.75,1.75,0,0,1-.34,1.21,1.45,1.45,0,0,1-1.14.38h-5.9c-.08,0-.13,0-.13-.12V7.82a.12.12,0,0,1,.11-.13h2V2.48a.11.11,0,0,1,.1-.12h1.57c.09,0,.13,0,.13.12ZM262.49.74c0-.09,0-.13.13-.13h1.52c.09,0,.13,0,.13.13V7a.76.76,0,0,0,.14.53.71.71,0,0,0,.47.14h.34a.41.41,0,0,1,.38.19,1.5,1.5,0,0,1,0,1.21.52.52,0,0,1-.39.13H264a1.45,1.45,0,0,1-1.14-.38,1.86,1.86,0,0,1-.34-1.21Z"/><path class="cls-5" d="M266.26,3.92c0-.09,0-.13.12-.13h1.53c.08,0,.12,0,.12.13V4.3a8.3,8.3,0,0,1,1.27-.44,5.66,5.66,0,0,1,1.48-.18,3.37,3.37,0,0,1,2.35.73,3,3,0,0,1,.8,2.32v.15a.33.33,0,0,1,0,.14.61.61,0,0,0,.28.49,1.21,1.21,0,0,0,.69.18h.28a.44.44,0,0,1,.38.18,1,1,0,0,1,.13.58q0,.78-.51.78a2.73,2.73,0,0,1-.94-.16,1.2,1.2,0,0,1-.63-.64,1.35,1.35,0,0,1-.8.64,5.1,5.1,0,0,1-1.4.16h-3.25a1.3,1.3,0,0,1-.34-.08A.34.34,0,0,1,267.6,9a1,1,0,0,1-.49.22,5.49,5.49,0,0,1-.7,0h-1.13a.47.47,0,0,1-.38-.16,1.09,1.09,0,0,1-.13-.61,1.12,1.12,0,0,1,.12-.62.44.44,0,0,1,.39-.15h.5a.61.61,0,0,0,.3-.08.48.48,0,0,0,.15-.22,1.86,1.86,0,0,0,.06-.34V6.64Zm4.14,1.29a4.45,4.45,0,0,0-1.25.18,11.42,11.42,0,0,0-1.12.39V7.71h3.29a1.06,1.06,0,0,0,.46-.13.52.52,0,0,0,.22-.32,2.7,2.7,0,0,0,0-1.2.89.89,0,0,0-.26-.45,1.16,1.16,0,0,0-.5-.27,2.69,2.69,0,0,0-.8-.09"/><path class="cls-5" d="M275.13,9.22a.5.5,0,0,1-.38-.15.94.94,0,0,1-.12-.57c0-.54.17-.81.5-.81h.79a.68.68,0,0,0,.46-.14.72.72,0,0,0,.15-.53V4c0-.09,0-.13.12-.13h1.53c.08,0,.12,0,.12.13V7.63A1.75,1.75,0,0,1,278,8.84a1.39,1.39,0,0,1-1.13.38Zm.59-6.61c-.09,0-.13,0-.13-.12V1.24c0-.08,0-.12.13-.12H277a.11.11,0,0,1,.12.1V2.48a.11.11,0,0,1-.1.12h-1.29Zm1.95,0c-.08,0-.13,0-.13-.12V1.24c0-.08,0-.12.13-.12H279c.09,0,.13,0,.13.12V2.48c0,.08,0,.12-.13.12Zm5.83,5.08h1.16a.68.68,0,0,0,.46-.14.72.72,0,0,0,.15-.53V.74c0-.09,0-.13.12-.13h1.55a.12.12,0,0,1,.13.11V7.63a1.81,1.81,0,0,1-.35,1.21,1.45,1.45,0,0,1-1.14.38h-5.89c-.09,0-.13,0-.13-.12V7.82c0-.09,0-.13.13-.13h2V2.48c0-.08,0-.12.13-.12h1.55a.11.11,0,0,1,.12.1V7.69Z"/><rect class="cls-5" x="288.58" y="0.61" width="1.78" height="8.61" rx="0.13"/><path class="cls-5" d="M298.71,9.31a3.37,3.37,0,0,1-1-.14,2,2,0,0,1-.83-.46.76.76,0,0,1-.19.21l-.2.17a1.19,1.19,0,0,0-.16.23,1.09,1.09,0,0,0-.06.36v2.14h-1.8V9.42a1.91,1.91,0,0,1,.1-.71,1.66,1.66,0,0,1,.6-.76l.36-.24a1.7,1.7,0,0,0,.3-.23.7.7,0,0,0,.15-.39V6.58a3.61,3.61,0,0,1,.23-1.38,2.21,2.21,0,0,1,.62-.89,2.29,2.29,0,0,1,.89-.46,4.09,4.09,0,0,1,2.14,0,2.21,2.21,0,0,1,.9.46,2.36,2.36,0,0,1,.61.89,3.61,3.61,0,0,1,.23,1.38.49.49,0,0,1,0,.17v.16a.88.88,0,0,0,.23.57.76.76,0,0,0,.54.19h.36a.44.44,0,0,1,.38.18,1.08,1.08,0,0,1,.13.58q0,.78-.51.78h-.46a2.36,2.36,0,0,1-.46-.1,1.5,1.5,0,0,1-.8-.62,2,2,0,0,1-1,.64,4.46,4.46,0,0,1-1.26.18m0-4.1c-.69,0-1,.43-1,1.28a1.48,1.48,0,0,0,.26,1,1.22,1.22,0,0,0,1.55,0,1.54,1.54,0,0,0,.26-1c0-.85-.35-1.28-1-1.28"/><path class="cls-5" d="M304.07,4c0-.09,0-.13.12-.13h1.53c.08,0,.12,0,.12.13V7a.68.68,0,0,0,.28.5,1.12,1.12,0,0,0,.69.18h.29a.44.44,0,0,1,.38.18,1.08,1.08,0,0,1,.13.58c0,.52-.17.77-.51.77a2.66,2.66,0,0,1-.84-.11,1.15,1.15,0,0,1-.59-.52,1,1,0,0,1-.6.52,4,4,0,0,1-1.09.11h-1.31a.5.5,0,0,1-.38-.15,1,1,0,0,1-.12-.59,1.08,1.08,0,0,1,.12-.61.44.44,0,0,1,.38-.18h.79c.27,0,.44-.08.51-.23a2.47,2.47,0,0,0,.1-.81Zm-.8,7.8a.12.12,0,0,1-.13-.11V10.48c0-.08.05-.12.13-.12h1.27a.11.11,0,0,1,.12.1v1.26c0,.09,0,.13-.12.13Zm2,0c-.08,0-.12,0-.12-.13V10.48a.11.11,0,0,1,.1-.12h1.3c.09,0,.13,0,.13.12v1.24c0,.09,0,.13-.13.13Z"/><path class="cls-5" d="M307.7,7.69a.55.55,0,0,0,.35-.1.69.69,0,0,0,.2-.28,1.86,1.86,0,0,0,.08-.41V.74a.12.12,0,0,1,.11-.13H310a.12.12,0,0,1,.13.11V4.3a8.18,8.18,0,0,1,1.26-.44,5.56,5.56,0,0,1,1.41-.18,3.31,3.31,0,0,1,2.34.74,3,3,0,0,1,.82,2.31V7a.67.67,0,0,0,.27.5,1.22,1.22,0,0,0,.7.18h.29a.44.44,0,0,1,.38.18,1,1,0,0,1,.2.61c0,.52-.17.77-.51.77a2.59,2.59,0,0,1-.95-.15.74.74,0,0,0-1.46,0,5.75,5.75,0,0,1-1.43.15h-3A.9.9,0,0,1,309.7,9a.86.86,0,0,1-.57.21,6.91,6.91,0,0,1-.91,0h-1a.46.46,0,0,1-.38-.15,1.09,1.09,0,0,1-.13-.61,1,1,0,0,1,.12-.62.44.44,0,0,1,.39-.15Zm4.78-2.48a4.46,4.46,0,0,0-1.26.18,11.07,11.07,0,0,0-1.1.39V7.2a4,4,0,0,1,0,.49h3.29a1.06,1.06,0,0,0,.46-.13.45.45,0,0,0,.22-.32,2.7,2.7,0,0,0,0-1.2,1,1,0,0,0-.27-.45,1.18,1.18,0,0,0-.49-.27,2.69,2.69,0,0,0-.8-.09m-.4-2.6a.11.11,0,0,1-.12-.1V1.24a.11.11,0,0,1,.1-.12h1.59c.09,0,.13,0,.13.12V2.48c0,.08,0,.12-.13.12Z"/><path class="cls-5" d="M319.89,8.59a1,1,0,0,1-.59.51,3.86,3.86,0,0,1-1.07.12h-1a.73.73,0,0,1-.38-.08c-.09-.05-.13-.17-.13-.36a2,2,0,0,1,0-.35,1.55,1.55,0,0,1,.08-.36A1,1,0,0,1,317,7.8a.33.33,0,0,1,.25-.11h.42c.26,0,.43-.07.5-.22a1.92,1.92,0,0,0,.11-.79V4q0-.1.18-.12h1.49c.09,0,.13,0,.13.13V7a.67.67,0,0,0,.27.5,1.21,1.21,0,0,0,.69.18h.3a.44.44,0,0,1,.38.18,1.07,1.07,0,0,1,.12.58c0,.52-.17.77-.5.77a2.66,2.66,0,0,1-.84-.11,1.1,1.1,0,0,1-.6-.52m-1.51-6a.11.11,0,0,1-.12-.1V1.24a.11.11,0,0,1,.1-.12h1.6a.11.11,0,0,1,.12.1V2.48a.11.11,0,0,1-.1.12h-1.6Z"/><path class="cls-5" d="M321.27,9.22a.5.5,0,0,1-.38-.15,1,1,0,0,1-.11-.59c0-.54.17-.81.5-.81h.79a.68.68,0,0,0,.46-.14.72.72,0,0,0,.15-.53V4c0-.09,0-.13.12-.13h1.53c.08,0,.12,0,.12.13V7.61a1.75,1.75,0,0,1-.34,1.21A1.39,1.39,0,0,1,323,9.2Zm.59-6.61c-.09,0-.13,0-.13-.12V1.24c0-.08,0-.12.13-.12h1.27a.11.11,0,0,1,.12.1V2.48a.11.11,0,0,1-.1.12h-1.29Zm1.95,0c-.08,0-.13,0-.13-.12V1.24c0-.08.05-.12.13-.12h1.28c.09,0,.13,0,.13.12V2.48c0,.08,0,.12-.13.12Zm8.8,1.07V3.13a.12.12,0,0,1,.11-.13h1.56a.12.12,0,0,1,.13.11V7a.72.72,0,0,0,.15.53.68.68,0,0,0,.46.14h.39c.34,0,.51.26.51.77a1.08,1.08,0,0,1-.12.61.47.47,0,0,1-.39.15h-1.32a2,2,0,0,1-1-.19,1.07,1.07,0,0,1-.46-.74,1.92,1.92,0,0,1-.65.34,2.52,2.52,0,0,1-.77.11,3,3,0,0,1-.94-.14,2.08,2.08,0,0,1-.8-.43,2,2,0,0,1-.53-.76,2.77,2.77,0,0,1-.2-1.14A3.19,3.19,0,0,1,329,5a2,2,0,0,1,1.41-1.21,3.73,3.73,0,0,1,.94-.12ZM330,2.11a.12.12,0,0,1-.13-.11V.74c0-.09,0-.13.13-.13h1.26c.09,0,.13,0,.13.13V2a.12.12,0,0,1-.11.13H330Zm1.52,5.1a1.09,1.09,0,0,0,.77-.27,1.14,1.14,0,0,0,.28-.86V5.21h-1a1.23,1.23,0,0,0-.77.23,1,1,0,0,0-.29.83.84.84,0,0,0,.29.73,1.2,1.2,0,0,0,.73.21m.43-5.1a.12.12,0,0,1-.13-.11V.74c0-.09,0-.13.13-.13h1.28a.12.12,0,0,1,.13.11V2a.12.12,0,0,1-.11.13H332Z"/><path class="cls-5" d="M338.23,8.59a1,1,0,0,1-.6.51,3.79,3.79,0,0,1-1.06.12h-1a.73.73,0,0,1-.38-.08q-.12-.08-.12-.36a2,2,0,0,1,0-.35,2.37,2.37,0,0,1,.09-.36.92.92,0,0,1,.16-.27.36.36,0,0,1,.26-.11H336c.26,0,.43-.07.5-.22a2.1,2.1,0,0,0,.1-.79V4c0-.07.07-.11.19-.12h1.49a.12.12,0,0,1,.13.11V7a.6.6,0,0,0,.27.5,1.12,1.12,0,0,0,.69.18h.29a.44.44,0,0,1,.38.18,1,1,0,0,1,.13.58c0,.52-.17.77-.51.77a2.66,2.66,0,0,1-.84-.11,1.15,1.15,0,0,1-.59-.52M336.49,1.9a2.39,2.39,0,0,1-.13-.28,1.49,1.49,0,0,1-.05-.36,1.17,1.17,0,0,1,.09-.45,1,1,0,0,1,.25-.39,1.09,1.09,0,0,1,.44-.29,1.87,1.87,0,0,1,.66-.11,1.79,1.79,0,0,1,.72.15,1.24,1.24,0,0,1,.48.37.09.09,0,0,1,0,.13h0l-.41.43h-.11a1.37,1.37,0,0,0-.29-.2.71.71,0,0,0-.35-.07.51.51,0,0,0-.39.14.46.46,0,0,0-.15.37.56.56,0,0,0,.11.37.78.78,0,0,0,.26.22H339s.07,0,.07.09v.59c0,.06,0,.09-.07.09h-2.89a.08.08,0,0,1-.08-.09V2c0-.06,0-.09.08-.09Z"/><path class="cls-5" d="M341,4c0-.09,0-.13.13-.13h1.52c.09,0,.13,0,.13.13V7a.67.67,0,0,0,.27.5,1.21,1.21,0,0,0,.69.18h.29a.44.44,0,0,1,.38.18,1,1,0,0,1,.13.58c0,.52-.17.77-.51.77a2.6,2.6,0,0,1-.83-.11,1.1,1.1,0,0,1-.6-.52.94.94,0,0,1-.6.52,4,4,0,0,1-1.09.11h-1.3a.46.46,0,0,1-.38-.15,1,1,0,0,1-.13-.59,1.08,1.08,0,0,1,.12-.61.43.43,0,0,1,.39-.18h.78c.27,0,.44-.08.51-.23a2.23,2.23,0,0,0,.1-.81Zm-.8,7.8c-.08,0-.12,0-.12-.13V10.48a.11.11,0,0,1,.1-.12h1.29c.09,0,.13,0,.13.12v1.24c0,.09,0,.13-.13.13Zm2,0c-.09,0-.13,0-.13-.13V10.48c0-.08,0-.12.13-.12h1.28a.11.11,0,0,1,.12.1v1.26c0,.09,0,.13-.12.13Z"/><path class="cls-5" d="M344.09,9.22a.43.43,0,0,1-.38-.17.94.94,0,0,1-.13-.57,1.12,1.12,0,0,1,.12-.6.42.42,0,0,1,.39-.19h1.24a1.93,1.93,0,0,1-.18-.88,2.08,2.08,0,0,1,.17-.89,1.67,1.67,0,0,1,.45-.6,1.76,1.76,0,0,1,.62-.33,2.65,2.65,0,0,1,.74-.11,2.25,2.25,0,0,1,1.5.46,1.83,1.83,0,0,1,.54,1.47,1.59,1.59,0,0,1-.07.48,2.78,2.78,0,0,1-.16.4.77.77,0,0,0,.76-.35,1.66,1.66,0,0,0,.19-.85,2.07,2.07,0,0,0-.16-.85,1.4,1.4,0,0,0-.44-.58,1.89,1.89,0,0,0-.68-.34,3.8,3.8,0,0,0-.89-.11,6.82,6.82,0,0,0-.9.07,7.36,7.36,0,0,0-.93.21h-.13a.08.08,0,0,1-.1-.06h0l-.27-1a.33.33,0,0,1,0-.14.15.15,0,0,1,.1-.09,8.62,8.62,0,0,1,1.22-.38,6.25,6.25,0,0,1,1.43-.14,4.67,4.67,0,0,1,1.77.29,3,3,0,0,1,1.11.75,2.65,2.65,0,0,1,.58,1,4.46,4.46,0,0,1,.18,1.26,5.17,5.17,0,0,1-.12,1.24,2,2,0,0,1-.43.86,1.77,1.77,0,0,1-.78.51,3.8,3.8,0,0,1-1.21.16ZM347.15,6a.68.68,0,0,0-.55.23,1,1,0,0,0-.19.67,1,1,0,0,0,.17.65.65.65,0,0,0,.49.23h.14a.62.62,0,0,0,.49-.23,1.05,1.05,0,0,0,.16-.65,1.13,1.13,0,0,0-.18-.67.64.64,0,0,0-.53-.23M16.78.91H0V6.83H9.13V35H16V6.83h9.72V.91Z"/><path class="cls-5" d="M36.69.91H45.9A13,13,0,0,1,59,13.81V22A13,13,0,0,1,45.93,35H30.25V7a6.25,6.25,0,0,1,6.44-6m15.47,12.9c0-3.85-2.79-7-6.26-7H37.1V29h8.8c3.47,0,6.26-3.17,6.26-7ZM16.88.89H.15V6.81H9.28V34.93h6.84V6.81h9.72V.89Z"/><path class="cls-5" d="M36.84.89h9.22A13,13,0,0,1,59.15,13.8V22A13,13,0,0,1,46.08,34.93H30.4v-28a6.25,6.25,0,0,1,6.44-6m15.47,12.9c0-3.85-2.79-7-6.25-7H37.25V29h8.81c3.46,0,6.25-3.17,6.25-7ZM84.84,24.61c4.93-1.47,8.4-5.37,8.4-10.87V12.48C93.24,5.33,87.35.92,80.14.92H70.92a6.23,6.23,0,0,0-6.43,6v28h6.84V25.3H77l8.44,9.63H94ZM71.33,19.38V6.81h8.81c3.47,0,6.25,1.79,6.25,5.64v1.29c0,3.85-2.78,5.64-6.25,5.64ZM138.12.91H139V35h-.84Z"/></g></svg>