<svg id="Layer_1" data-name="Layer 1" xmlns="http://www.w3.org/2000/svg" xmlns:xlink="http://www.w3.org/1999/xlink" viewBox="0 0 283.46 232.36"><defs><style>.cls-1{fill:#ed1a3b;}.cls-2{fill:#231f20;}.cls-3{fill:url(#linear-gradient);}.cls-4{fill:url(#linear-gradient-2);}.cls-5{fill:url(#linear-gradient-3);}.cls-6{fill:url(#linear-gradient-4);}.cls-7{fill:#414042;}.cls-8{fill:url(#linear-gradient-5);}.cls-9{fill:#fff;}.cls-10{fill:url(#linear-gradient-6);}.cls-11{fill:url(#linear-gradient-7);}.cls-12{fill:url(#linear-gradient-8);}.cls-13{fill:url(#linear-gradient-9);}.cls-14{fill:url(#linear-gradient-10);}.cls-15{fill:url(#linear-gradient-11);}.cls-16{fill:url(#linear-gradient-12);}</style><linearGradient id="linear-gradient" x1="138.91" y1="142.88" x2="138.91" y2="52.23" gradientUnits="userSpaceOnUse"><stop offset="0" stop-color="#d1d3d4"/><stop offset="0.16" stop-color="#f1f2f2"/><stop offset="0.16" stop-color="#f0f1f1"/><stop offset="0.26" stop-color="#e8e9ea"/><stop offset="0.44" stop-color="#e6e7e8"/><stop offset="0.56" stop-color="#cfd0d1"/><stop offset="0.81" stop-color="#949596"/><stop offset="1" stop-color="#636466"/></linearGradient><linearGradient id="linear-gradient-2" x1="155.27" y1="64.79" x2="124.5" y2="38.98" gradientUnits="userSpaceOnUse"><stop offset="0" stop-color="#e6e7e8"/><stop offset="0.44" stop-color="#e6e7e8"/><stop offset="0.56" stop-color="#cfd0d1"/><stop offset="0.81" stop-color="#949596"/><stop offset="1" stop-color="#636466"/></linearGradient><linearGradient id="linear-gradient-3" x1="158.23" y1="107.2" x2="113.74" y2="81.51" xlink:href="#linear-gradient-2"/><linearGradient id="linear-gradient-4" x1="138.91" y1="73.8" x2="138.91" y2="24.68" xlink:href="#linear-gradient-2"/><linearGradient id="linear-gradient-5" x1="138.91" y1="0.62" x2="138.91" y2="159.74" gradientUnits="userSpaceOnUse"><stop offset="0" stop-color="#c7c8ca"/><stop offset="0.04" stop-color="#d4d5d6"/><stop offset="0.12" stop-color="#e6e7e8"/><stop offset="0.12" stop-color="#e8e9ea"/><stop offset="0.15" stop-color="#eff0f0"/><stop offset="0.21" stop-color="#f1f2f2"/><stop offset="0.55" stop-color="#f1f2f2"/><stop offset="0.61" stop-color="#cdcece"/><stop offset="0.69" stop-color="#a7a8a9"/><stop offset="0.77" stop-color="#898a8c"/><stop offset="0.85" stop-color="#747577"/><stop offset="0.93" stop-color="#67686a"/><stop offset="1" stop-color="#636466"/></linearGradient><linearGradient id="linear-gradient-6" x1="138.91" y1="0.62" x2="138.91" y2="159.73" xlink:href="#linear-gradient-5"/><linearGradient id="linear-gradient-7" x1="138.91" y1="0.63" x2="138.91" y2="159.75" xlink:href="#linear-gradient-5"/><linearGradient id="linear-gradient-8" x1="138.91" y1="33.62" x2="138.91" y2="78.97" gradientUnits="userSpaceOnUse"><stop offset="0.01" stop-color="#e6e7e8"/><stop offset="1" stop-color="#6d6e71"/></linearGradient><linearGradient id="linear-gradient-9" x1="154.62" y1="0.62" x2="154.62" y2="78.52" xlink:href="#linear-gradient-2"/><linearGradient id="linear-gradient-10" x1="123.2" y1="0.62" x2="123.2" y2="78.52" xlink:href="#linear-gradient-2"/><linearGradient id="linear-gradient-11" x1="122.27" y1="0.62" x2="122.27" y2="129.45" xlink:href="#linear-gradient-2"/><linearGradient id="linear-gradient-12" x1="155.56" y1="0.62" x2="155.56" y2="129.45" xlink:href="#linear-gradient-2"/></defs><title>Toyota</title><path class="cls-1" d="M141.4,207.13a25.13,25.13,0,0,1,25.23-25.22,25.23,25.23,0,1,1-25.23,25.22Zm25.23,15.94c7.57-.12,13.86-7.24,13.93-15.94-.07-8.86-6.36-16-13.93-15.94-7.9-.05-14.19,7.08-13.94,15.94-.25,8.7,6,15.82,13.94,15.94"/><polyline class="cls-1" points="220.4 192.53 220.4 231.03 209.78 231.03 209.78 192.53 194.51 192.53 194.51 183.9 235 183.9 235 192.53 220.4 192.53"/><path class="cls-1" d="M247.61,220.41h0l-4,10.62H231l19.91-47.13h13.27L283.46,231h-12.6l-4-10.62Zm10-8h6.63l-6.63-17.26-6.64,17.26h6.64"/><polyline class="cls-1" points="25.22 192.53 25.22 231.03 14.6 231.03 14.6 192.53 0 192.53 0 183.9 39.83 183.9 39.83 192.53 25.22 192.53"/><path class="cls-1" d="M42.48,207.13a25.23,25.23,0,0,1,50.45,0,25.23,25.23,0,1,1-50.45,0ZM67.7,223.07c7.67-.12,13.94-7.24,13.94-15.94,0-8.86-6.27-16-13.94-15.94-7.83-.05-14.11,7.08-13.93,15.94-.18,8.7,6.1,15.82,13.93,15.94"/><polyline class="cls-1" points="116.84 231.03 122.14 231.03 122.14 213.1 140.73 183.9 128.79 183.9 116.84 203.81 105.55 183.9 92.93 183.9 111.53 213.1 111.53 231.03 116.84 231.03"/><path class="cls-2" d="M9.94,80.19c0,44.21,57.86,80.18,129,80.18s129-36,129-80.18S210,0,138.91,0,9.94,36,9.94,80.19Zm1.25,0c0-43.53,57.29-78.94,127.72-78.94S266.64,36.66,266.64,80.19s-57.3,78.93-127.73,78.93S11.19,123.71,11.19,80.19Z"/><path class="cls-2" d="M126.68,14.82c-29.5,1.8-51.7,9.72-55.24,19.69a8.74,8.74,0,0,0-.51,2.9A9.05,9.05,0,0,0,72.27,42c4,6.85,16.82,12.57,35.12,15.68l.62.11.1-.62c3.13-19.06,10.06-34.09,19-41.26l1.54-1.23ZM73.35,41.38a7.7,7.7,0,0,1-1.16-4,7.39,7.39,0,0,1,.43-2.47h0C75.87,25.77,97.3,18.15,125,16.2c-8.42,7.64-14.93,22.06-18,40.15C89.65,53.32,77.08,47.75,73.35,41.38Zm-1.91-6.87Z"/><path class="cls-2" d="M122.37,58.85l-.12.68.69,0c5.2.39,10.57.59,16,.59s10.77-.2,16-.59l.68,0-.12-.68C152.61,42.9,146.27,33,138.91,33S125.21,42.9,122.37,58.85Zm16.54-24.61c6.61,0,12.38,9.25,15.16,24.13-4.95.36-10,.55-15.16.55s-10.22-.19-15.16-.55C126.53,43.49,132.3,34.24,138.91,34.24Z"/><path class="cls-2" d="M150.71,15.93c8.94,7.17,15.87,22.2,19,41.26l.1.62.62-.11c18.3-3.11,31.1-8.83,35.12-15.69a8.56,8.56,0,0,0,.82-7.5c-3.53-10-25.73-17.89-55.23-19.69l-2-.12Zm2.11.27c27.7,1.95,49.13,9.57,52.38,18.73a7.4,7.4,0,0,1,.44,2.47,7.79,7.79,0,0,1-1.16,4c-3.74,6.37-16.31,11.94-33.66,15C167.75,38.26,161.24,23.84,152.82,16.2Z"/><path class="cls-2" d="M51.73,43C38.34,54.17,31.27,67.45,31.27,81.36c0,33,40.57,60.91,94.37,64.93l1.9.14-1.45-1.24c-12.24-10.47-19.84-35.11-19.84-64.31l.1-5.69-.52-.11c-29.68-5.33-50-17.5-53.09-31.77l-.21-1ZM32.52,81.36c0-13.26,6.69-26,19.29-36.79,3.86,14.25,24.07,26.29,53.27,31.64,0,.86-.08,4.67-.08,4.67,0,28.46,7.22,52.66,18.92,64C71.7,140.41,32.52,113.33,32.52,81.36Z"/><path class="cls-2" d="M120.76,77.76v.73c0,25.58,8,45.62,18.16,45.62s18.16-20,18.16-45.62l0-1.4-.67.06c-5.69.5-11.57.75-17.47.75s-11.77-.25-17.47-.75l-.67-.06Zm1.24.73v0c5.53.46,11.21.71,16.91.71s11.39-.25,16.91-.71v0c0,24.88-7.43,44.37-16.91,44.37S122,103.37,122,78.49Z"/><path class="cls-2" d="M225.08,43.31C222,57.58,201.67,69.75,172,75.08l-.52.1.1,5.7c0,29.2-7.6,53.84-19.84,64.31l-1.45,1.24,1.91-.14c53.8-4,94.37-31.93,94.37-64.93,0-13.91-7.08-27.19-20.47-38.4l-.79-.67Zm.93,1.26c12.6,10.83,19.3,23.53,19.3,36.79,0,32-39.18,59.05-91.41,63.5,11.7-11.32,18.92-35.52,18.92-64,0,0-.07-3.81-.08-4.67C201.94,70.86,222.15,58.82,226,44.57Z"/><path class="cls-3" d="M225.14,32.71c.19.52.35,1,.49,1.56a15.24,15.24,0,0,1-.37,8.8c13,10.73,20.67,24,20.67,38.29,0,35.79-47.92,64.8-107,64.8s-107-29-107-64.8c0-14.32,7.68-27.56,20.68-38.29a15.32,15.32,0,0,1-.38-8.8,9.85,9.85,0,0,1,.62-1.65C35.07,45.26,24.3,61.83,24.3,80c0,39.64,51.31,71.76,114.61,71.76S253.52,119.62,253.52,80C253.52,61.88,242.81,45.34,225.14,32.71Z"/><path class="cls-4" d="M123,59l-3.31,2.39C122.39,40.8,130,27.64,138.91,27.64s16.52,13.16,19.24,33.71L154.84,59h0c-2.77-15.59-8.86-25.34-15.92-25.34S125.76,43.37,123,59Z"/><path class="cls-5" d="M159.13,72.92l-2.69,4.85h0v.72c0,25.6-7.85,45-17.53,45s-17.53-19.39-17.53-45c0-.29,0-.56,0-.84l-2.69-4.73c-.07,1.81-.11,3.66-.11,5.55,0,29,9.1,51,20.32,51s20.32-22,20.32-51C159.23,76.58,159.19,74.73,159.13,72.92Z"/><path class="cls-6" d="M154.83,59c-5.05.39-10.37.6-15.92.6S128,59.34,123,59h0l-3.31,2.39c6.09.54,12.53.84,19.24.84s13.15-.3,19.24-.84L154.84,59Zm58.54-25.14c-4-13.29-37.19-23.05-74.46-23.05S68.48,20.52,64.45,33.81C61,45.35,80,56,110.1,60.26l-2.61-3.17h0C83.16,52.94,68.7,44.12,72,34.72c4-11.38,33.41-19.65,66.88-19.65s62.84,8.27,66.88,19.65c3.33,9.4-11.13,18.22-35.46,22.36h0l-2.61,3.17C197.8,56,216.86,45.35,213.37,33.81Z"/><path class="cls-7" d="M225.26,43.07A66.33,66.33,0,0,1,237.7,56.41a46,46,0,0,0-8.76-20.83c-1.23-1-2.49-1.93-3.8-2.87.19.52.35,1,.49,1.56A15.24,15.24,0,0,1,225.26,43.07Z"/><path class="cls-7" d="M52.57,43.07a15.32,15.32,0,0,1-.38-8.8,9.85,9.85,0,0,1,.62-1.65q-2,1.46-3.93,3a45.87,45.87,0,0,0-8.76,20.82A66.39,66.39,0,0,1,52.57,43.07Z"/><path class="cls-8" d="M10.56,80.19C10.56,36.24,68,.62,138.91.62S267.26,36.24,267.26,80.19s-57.46,79.55-128.35,79.55S10.56,124.12,10.56,80.19Zm128.35,71.55c63.3,0,114.61-32.12,114.61-71.76S202.21,8.22,138.91,8.22,24.3,40.35,24.3,80,75.61,151.74,138.91,151.74Z"/><path class="cls-9" d="M23.55,80c0,40,51.75,72.51,115.36,72.51S254.27,120,254.27,80,202.52,7.47,138.91,7.47,23.55,40,23.55,80Zm1.5,0c0-39.15,51.08-71,113.86-71S252.77,40.83,252.77,80s-51.08,71-113.86,71S25.05,119.14,25.05,80Z"/><path class="cls-10" d="M108.76,80.88c0-38.32,13.5-70.12,30.15-70.12s30.15,31.8,30.15,70.12c0,38.73-13.5,70.12-30.15,70.12S108.76,119.61,108.76,80.88Zm30.15,48.57c11.23,0,20.32-22,20.32-51,0-30.1-9.09-50.83-20.32-50.83s-20.32,20.73-20.32,50.83C118.59,107.48,127.69,129.45,138.91,129.45Z"/><path class="cls-11" d="M52.19,34.27C55.5,21.17,95.51,2.11,138.91,2.11s82,13.62,86.72,32.16c5.25,20.79-33.31,39.58-86.72,39.58S46.94,55.06,52.19,34.27Zm86.72-23.51c-37.27,0-70.43,9.76-74.46,23.05-4.51,14.9,28.6,28.38,74.46,28.38s79-13.48,74.46-28.38C209.35,20.52,176.18,10.76,138.91,10.76Z"/><path class="cls-12" d="M118.67,72.9l0,0,2.75,4.85q8.42.74,17.46.75t17.53-.76l2.69-4.84v0c-6.45.62-13.2.95-20.23.95S125.12,73.52,118.67,72.9ZM226.08,38.76c-.69,14.86-23.52,28-57.29,33h0l3.3,3.94C205.13,69.75,226.87,55.17,226.08,38.76Zm-174.34,0c-.78,16.42,20.95,31,54,36.93l3.3-3.94h0C75.26,66.78,52.43,53.62,51.74,38.76Z"/><path class="cls-13" d="M167.72,60.27h0l2.61-3.17c-4.55-27.72-16.91-46.34-31.42-46.34C152.46,10.76,163.91,31.79,167.72,60.27Z"/><path class="cls-14" d="M110.11,60.27c3.8-28.48,15.26-49.51,28.8-49.51-14.51,0-26.87,18.62-31.42,46.34l2.62,3.17Z"/><path class="cls-15" d="M108.76,80.88c0-3.09.1-6.14.27-9.13h0l-3.3,3.94c-.06,1.71-.09,3.43-.09,5.19,0,41,14.62,70.12,33.28,70.12C122.26,151,108.76,119.61,108.76,80.88Z"/><path class="cls-16" d="M172.1,75.69l-3.3-3.94h0c.17,3,.27,6,.27,9.13,0,38.73-13.5,70.12-30.15,70.12,18.67,0,33.29-29.12,33.29-70.12C172.2,79.12,172.16,77.4,172.1,75.69Z"/></svg>