<svg id="Layer_1" data-name="Layer 1" xmlns="http://www.w3.org/2000/svg" viewBox="0 0 2897.4 508.5"><defs><style>.cls-1{fill:#e4e5e5;}.cls-2{fill:#d3202e;}.cls-3,.cls-6{fill:#fff;}.cls-4{fill:#857e6e;}.cls-5{fill:#231f20;}.cls-12,.cls-6,.cls-9{fill-rule:evenodd;}.cls-7{fill:#ec1c24;}.cls-12,.cls-8{fill:#00a84f;}.cls-10,.cls-9{fill:#f0e5c7;}.cls-11{fill:#d9c792;}</style></defs><title>United Arab Emirates University (UAEU)</title><rect class="cls-1" x="912.46" width="1984.94" height="508.5"/><rect class="cls-2" width="912" height="508.5"/><path class="cls-3" d="M360.4,273.74H398L379.66,215.5l-18.8,58.24m57.77,61.9-10.09-29.81H350.77l-10.55,29.81H295.75L344.81,204H290.24v62.82c0,48.14-22,72-72.44,72s-72.45-23.85-72.45-72V169.19h43.56v100c0,21.55,7.8,32.56,28.89,32.56s28.89-11,28.89-32.56v-100h155l45.85,131.6h20.63V169.19H600.66V204H511.25v28.89h81.62V266.4H511.25V298H603v37.14H418.17Zm348.48-68.78c0,48.14-22,72-72.45,72s-72.44-23.85-72.44-72V169.19h43.1v100c0,21.55,7.79,32.56,28.88,32.56s28.89-11,28.89-32.56v-100h43.56v97.67Z"/><path class="cls-4" d="M1059.65,196.25a24.61,24.61,0,0,1,1.83-10.09,20.85,20.85,0,0,1,5-7.8,18.06,18.06,0,0,1,7.34-4.58,35.67,35.67,0,0,1,10.09-1.84,20.47,20.47,0,0,1,9.17,1.84,22.35,22.35,0,0,1,6.42,5,17.57,17.57,0,0,1,3.67,7.8,35.17,35.17,0,0,1,1.37,9.63v23.38h-19.72q-24.75,0-24.76-23.38M1072.94,166a7.33,7.33,0,0,1-5-2.29,5.43,5.43,0,0,1-1.83-5,9.6,9.6,0,0,1,1.83-5.05,6.7,6.7,0,0,1,10.09,0,7.87,7.87,0,0,1,0,10.09,7.35,7.35,0,0,1-5,2.29m18.34,43.1V194.41c0-3.21-.45-6.42-2.29-9.17a7.44,7.44,0,0,0-6.42-3.21,9.79,9.79,0,0,0-6.88,3.21,16.56,16.56,0,0,0-2.75,9.17c0,4.13.46,7.8,2.75,11.47a11.82,11.82,0,0,0,10.09,3.2h5.5Zm0-43.1a7.35,7.35,0,0,1-5-2.29,6.86,6.86,0,0,1-1.83-5,9.6,9.6,0,0,1,1.83-5.05,6.7,6.7,0,0,1,10.09,0,7.87,7.87,0,0,1,0,10.09,7.35,7.35,0,0,1-5,2.29"/><path class="cls-4" d="M1230.22,166a7.35,7.35,0,0,1-5-2.29,6.9,6.9,0,0,1-1.83-5,9.69,9.69,0,0,1,1.83-5.05,6.7,6.7,0,0,1,10.09,0,7.87,7.87,0,0,1,0,10.09,7.35,7.35,0,0,1-5,2.29m17.88,0a7.35,7.35,0,0,1-5-2.29,6.9,6.9,0,0,1-1.83-5,9.69,9.69,0,0,1,1.83-5.05,6.7,6.7,0,0,1,10.09,0,7.84,7.84,0,0,1,0,10.09,7.33,7.33,0,0,1-5,2.29"/><path class="cls-4" d="M1305.41,209.08V194.41c0-3.21-.45-6.88-2.29-9.63a8.16,8.16,0,0,0-13.3.46,15.12,15.12,0,0,0-2.75,8.71c0,4.13.46,7.8,2.75,11.47,2.76,2.75,6.42,3.66,10.55,3.21h5m-15.13,10.08a22.74,22.74,0,0,1-6-2.29c-1.37-.46-2.75-1.83-4.12-2.75a19.35,19.35,0,0,1-2.3-3.21c-.91,2.75-2.29,5-5,6.42-2.75,1.83-6.42,2.29-9.63,2.29H1113.75V208.63h29.35a22.67,22.67,0,0,0-.92-7.8,21.74,21.74,0,0,0-3.67-8.25,28,28,0,0,0-7.33-7.34,32.26,32.26,0,0,0-12.84-5.5l.91-11a43,43,0,0,1,17,5.05,35.53,35.53,0,0,1,11,9.17,32.31,32.31,0,0,1,6,11.92,39.44,39.44,0,0,1,1.84,12.84h40.81v-9.17a22.7,22.7,0,0,0-.92-7.8,11.88,11.88,0,0,0-3.21-5,15.43,15.43,0,0,0-5.5-2.75,50.33,50.33,0,0,0-8.26-.92h-9.17l.92-10.09h9.63a48.19,48.19,0,0,1,14.21,1.84,24.31,24.31,0,0,1,9.63,5,17.72,17.72,0,0,1,5,7.8,35.17,35.17,0,0,1,1.37,9.63v11.46H1233V171.94h12.84v35.77h18.8c1.37,0,2.29,0,3.2-.92a12,12,0,0,0,2.3-2.75c.46-1.37,1.37-2.29,1.37-3.67s.46-2.75.46-4.12a31.6,31.6,0,0,1,1.84-11.47,19.11,19.11,0,0,1,5-8.25,16.85,16.85,0,0,1,7.79-4.59,35.17,35.17,0,0,1,9.63-1.37,18.73,18.73,0,0,1,8.72,1.83,16.44,16.44,0,0,1,6.41,5,25.39,25.39,0,0,1,4.13,7.79,35.66,35.66,0,0,1,1.38,10.09v12.84h23.38V149.48h12.84v69.23h-55.94a25.56,25.56,0,0,1-8.25-.91"/><rect class="cls-4" x="1370.98" y="150.4" width="12.84" height="69.24"/><path class="cls-4" d="M1437.47,166a7.35,7.35,0,0,1-5-2.29,6.9,6.9,0,0,1-1.83-5,9.69,9.69,0,0,1,1.83-5.05,6.7,6.7,0,0,1,10.09,0,7.84,7.84,0,0,1,0,10.09,7.33,7.33,0,0,1-5,2.29m16.51,43.1V183a7.76,7.76,0,0,1-3.21-.46H1448a10,10,0,0,0-8.25,3.67,14.4,14.4,0,0,0-3.21,9.63,22.24,22.24,0,0,0,.46,5.5,6.41,6.41,0,0,0,2.29,4.59,12.42,12.42,0,0,0,3.67,3.2,8.72,8.72,0,0,0,6,.92h4.59Zm1.37-43.1a7.33,7.33,0,0,1-5-2.29,6.87,6.87,0,0,1-1.84-5,9.61,9.61,0,0,1,1.84-5.05,6.69,6.69,0,0,1,10.08,0,7.84,7.84,0,0,1,0,10.09,7.33,7.33,0,0,1-5,2.29m50.9,75.66a7.4,7.4,0,0,1-5-2.29,5.91,5.91,0,0,1-1.83-5.5,9.69,9.69,0,0,1,1.83-5,6.7,6.7,0,0,1,10.09,0,6.89,6.89,0,0,1,1.83,5,8,8,0,0,1-1.83,5.5,7.37,7.37,0,0,1-5,2.29m17.88,0a7.37,7.37,0,0,1-5-2.29,5.89,5.89,0,0,1-1.84-5.5,9.61,9.61,0,0,1,1.84-5,6.69,6.69,0,0,1,10.08,0,6.89,6.89,0,0,1,1.84,5,8,8,0,0,1-1.84,5.5,7.37,7.37,0,0,1-5,2.29m-94.46-28a22.41,22.41,0,0,1-6-16.51,34.81,34.81,0,0,1,1.38-9.63c1.83-6.41,6.88-11,12.84-13.75a31.81,31.81,0,0,1,11.46-2.29h8.71a50.55,50.55,0,0,1,8.26.91v35.77h48.14V172.4h12.84v35.77h32.55V172.4h12.84v46.31H1448a26.08,26.08,0,0,1-18.34-6m130.68,28.89a7.24,7.24,0,0,1-7.33-7.34,7.34,7.34,0,0,1,14.67,0,8.5,8.5,0,0,1-2.29,5.51,7.4,7.4,0,0,1-5.05,2.29"/><path class="cls-4" d="M1660.77,199.46a14.43,14.43,0,0,0,4.13-5.05,9.28,9.28,0,0,0,1.37-5,7.4,7.4,0,0,0-2.75-6,12.32,12.32,0,0,0-6.88-2.29c-2.29,0-4.58,0-6.88,1.37a38.21,38.21,0,0,0-6,3.21,14.53,14.53,0,0,1,4.59,2.29,26.14,26.14,0,0,1,4.13,3.21,30.21,30.21,0,0,1,4.12,3.67l4.59,4.59m-76.12,44.93h-5l.92-10.54h4.58c3.21,0,6.88-.92,9.17-2.76,2.29-3.21,3.67-6.87,3.21-10.54V173.32h12.84v35.76h20.63a52.79,52.79,0,0,0,18.8-3.66l-4.12-4.13a29.61,29.61,0,0,0-4.13-3.67,31.4,31.4,0,0,0-5-3.21,47.66,47.66,0,0,0-6.88-3.21l1.37-11a65.57,65.57,0,0,1,12.38-6.88,33,33,0,0,1,13.3-2.75c3.21,0,6.42,0,9.63,1.37a24.63,24.63,0,0,1,6.88,3.67,15.77,15.77,0,0,1,4.12,5.51,18.31,18.31,0,0,1,1.38,6.87,19,19,0,0,1-2.29,8.71,30.15,30.15,0,0,1-6.88,8.26l5.5,2.75a13.52,13.52,0,0,0,6,.92h22.93V149.94h12.84v69.23h-36.23a38.81,38.81,0,0,1-12.38-1.83,32.42,32.42,0,0,1-9.63-5.05,62,62,0,0,1-12.83,5.05,46.59,46.59,0,0,1-13.3,1.83h-22c0,3.67,0,6.42-.92,9.63a25.53,25.53,0,0,1-4.12,7.8,24.17,24.17,0,0,1-7.8,5.5c-4.13,1.37-8.25,2.29-12.38,1.83"/><rect class="cls-4" x="1733.22" y="150.4" width="12.84" height="69.24"/><path class="cls-4" d="M1801.54,216.88a37.56,37.56,0,0,1-11.93-6.42,21.33,21.33,0,0,1-6-9.63,31.76,31.76,0,0,1-1.83-11.46,34.62,34.62,0,0,1,.46-6.88c0-2.29.91-4.58,1.37-6.88l13.76-2.75a19.19,19.19,0,0,0-1.84,7.34c0,2.75-.45,5-.45,7.79s0,6,1.37,8.71c.92,2.76,2.29,5.05,4.59,6.42a27.78,27.78,0,0,0,8.25,4.13,62.07,62.07,0,0,0,13.3,1.38h49.52V172.86H1885v46.31h-64.2c-6.42,0-12.84-.46-18.8-2.29m29.35-48.15a7.33,7.33,0,0,1-5-2.29,6.87,6.87,0,0,1-1.84-5,9.61,9.61,0,0,1,1.84-5.05,6.69,6.69,0,0,1,10.08,0,7.84,7.84,0,0,1,0,10.09,7.33,7.33,0,0,1-5,2.29m17.88,0a7.33,7.33,0,0,1-5-2.29,6.87,6.87,0,0,1-1.84-5,9.61,9.61,0,0,1,1.84-5.05,6.7,6.7,0,0,1,10.09,0,7.87,7.87,0,0,1,0,10.09,7.35,7.35,0,0,1-5,2.29"/><rect class="cls-4" x="1900.58" y="150.4" width="12.84" height="69.24"/><path class="cls-4" d="M1919.38,244.39h-5.05l.92-10.54h4.58c3.21,0,6.88-.92,9.17-2.76,2.3-3.21,3.67-6.87,3.21-10.54V173.32h12.84v46.77c0,3.21,0,6.42-.91,9.17a25.61,25.61,0,0,1-4.13,7.79,23.94,23.94,0,0,1-7.8,5.51c-4.12,1.37-8.25,2.29-12.38,1.83"/><path class="cls-4" d="M1959.27,219.63V150.39h12.84v58.69h22c1.38,0,2.3,0,3.21-.91a12.38,12.38,0,0,0,2.3-2.75c.46-1.38,1.37-2.3,1.37-3.67s.46-2.75.46-4.13a31.58,31.58,0,0,1,1.84-11.46,19.11,19.11,0,0,1,5-8.25,16.77,16.77,0,0,1,7.79-4.59,34.81,34.81,0,0,1,9.63-1.38,18.55,18.55,0,0,1,8.71,1.84,16.46,16.46,0,0,1,6.42,5,25.56,25.56,0,0,1,4.13,7.8,35.64,35.64,0,0,1,1.38,10.08v23.39h-19.72a25.29,25.29,0,0,1-8.25-.92,31.45,31.45,0,0,1-6-2.29c-1.38-.46-2.76-1.83-4.13-2.75a19.19,19.19,0,0,1-2.29-3.21c-.92,2.75-2.3,5-5,6.42-2.75,1.83-6.42,2.29-9.63,2.29h-33m75.2-10.55V194.41c0-3.21-.46-6.88-2.29-9.63a8.16,8.16,0,0,0-13.3.46,15,15,0,0,0-2.75,8.71c0,4.13.46,7.8,2.75,11.47,2.75,2.75,6.42,3.66,10.54,3.21h5Z"/><path class="cls-4" d="M2077.11,150.39v45.4a34.62,34.62,0,0,1-6.42,1.83c-2.29.46-4.13.92-6.42,1.38V150.39h12.84m-17.88,90.33h6.87c-.46-.46-.91-1.37-1.37-1.83v-2.75a5.55,5.55,0,0,1,.91-3.67,12.16,12.16,0,0,1,2.3-2.75,9.14,9.14,0,0,1,3.67-1.84,19.75,19.75,0,0,1,5-.91h3.21a6.75,6.75,0,0,1,3.21.91l-2.29,6c-.46,0-1.38-.92-2.3-.92h-2.75a3.36,3.36,0,0,0-2.75.92,3.46,3.46,0,0,0-.92,2.29c0,2.29,1.84,3.67,6.42,3.67h5.05v7.33h-24.76v-7.33Zm17.42-20.17a49.64,49.64,0,0,1-8.25-.46c-2.3,0-4.59-.92-7.34-1.38l1.37-12.38a34.47,34.47,0,0,0,7.34,2.3,40.8,40.8,0,0,0,7.34.91c3.67,0,7.33-.46,10.54-2.75a9.07,9.07,0,0,0,3.21-8.25V150.85h12.84v46.77a29.76,29.76,0,0,1-1.37,9.17,16.32,16.32,0,0,1-5,7.34c-2.29,2.29-5.5,3.67-8.71,5a39.44,39.44,0,0,1-12.84,1.84"/><rect class="cls-4" x="2119.75" y="150.4" width="12.84" height="69.24"/><path class="cls-4" d="M2183,166a7.35,7.35,0,0,1-5.05-2.29,7.87,7.87,0,0,1,0-10.09,6.7,6.7,0,0,1,10.09,0,7.87,7.87,0,0,1,0,10.09,7.35,7.35,0,0,1-5,2.29"/><path class="cls-4" d="M2201.37,166a7.35,7.35,0,0,1-5-2.29,5.45,5.45,0,0,1-1.83-5,9.69,9.69,0,0,1,1.83-5.05,6.7,6.7,0,0,1,10.09,0,7.87,7.87,0,0,1,0,10.09,7.33,7.33,0,0,1-5,2.29"/><path class="cls-4" d="M2200,209.08V183a7.78,7.78,0,0,1-3.21-.46H2194a10,10,0,0,0-8.25,3.67,14.35,14.35,0,0,0-3.21,9.63,22.24,22.24,0,0,0,.46,5.5,6.37,6.37,0,0,0,2.29,4.59,12.3,12.3,0,0,0,3.67,3.2,7.86,7.86,0,0,0,5.5.92h4.58m61.45-10.54a11.23,11.23,0,0,0,4.12-5.05,9.2,9.2,0,0,0,1.38-5,7.4,7.4,0,0,0-2.75-6,12.35,12.35,0,0,0-6.88-2.29c-2.29,0-4.59,0-6.88,1.37a38.21,38.21,0,0,0-6,3.21,14.53,14.53,0,0,1,4.59,2.29,25.64,25.64,0,0,1,4.12,3.21,30.26,30.26,0,0,1,4.13,3.67,41.29,41.29,0,0,1,4.13,4.59m-85.29,14.21a22.37,22.37,0,0,1-6-16.51,34.81,34.81,0,0,1,1.38-9.63,25.1,25.1,0,0,1,12.83-13.75,31.86,31.86,0,0,1,11.47-2.29h8.71a50.31,50.31,0,0,1,8.25.91v35.77h18.8a52.8,52.8,0,0,0,18.8-3.67l-4.12-4.13a30.87,30.87,0,0,0-4.13-3.67,37.39,37.39,0,0,0-11.92-6.41l1.37-11a66.13,66.13,0,0,1,12.38-6.88,33,33,0,0,1,13.3-2.75c3.21,0,6.42,0,9.63,1.38a24.13,24.13,0,0,1,6.88,3.67,15.65,15.65,0,0,1,4.12,5.5,18.32,18.32,0,0,1,1.38,6.88,19,19,0,0,1-2.29,8.71,30.1,30.1,0,0,1-6.88,8.25l5.5,2.75a13.5,13.5,0,0,0,6,.92h11.46c1.38,0,2.3,0,3.21-.92a12,12,0,0,0,2.3-2.75c.46-1.37.91-2.29,1.37-3.67,0-1.37.46-2.75.46-4.12a31.6,31.6,0,0,1,1.84-11.47,19.11,19.11,0,0,1,5-8.25,16.85,16.85,0,0,1,7.79-4.59,35.17,35.17,0,0,1,9.63-1.37,18.66,18.66,0,0,1,8.71,1.83,16.4,16.4,0,0,1,6.42,5,17.38,17.38,0,0,1,3.67,7.79,35.66,35.66,0,0,1,1.38,10.09v23.38h-19.72a25.56,25.56,0,0,1-8.25-.91,23,23,0,0,1-6-2.3,24.67,24.67,0,0,1-3.67-2.75,18.4,18.4,0,0,1-2.29-3.21c-.92,2.75-2.3,5.05-4.59,6.42-2.75,1.84-6.42,2.3-9.63,2.3h-10.09a38.54,38.54,0,0,1-12.38-1.84,32.56,32.56,0,0,1-9.62-5,62.32,62.32,0,0,1-12.84,5,46.27,46.27,0,0,1-13.3,1.84h-38.52a26.13,26.13,0,0,1-18.34-6m157.28-3.21V194.41c0-3.21-.46-6.88-2.3-9.63a8.15,8.15,0,0,0-13.29.46,15,15,0,0,0-2.75,8.71c0,4.13.45,7.8,2.75,11.47,2.75,2.75,6.42,3.66,10.54,3.21h5.05Z"/><path class="cls-4" d="M2360,219.63V150.39h12.83v58.69h49.07v-9.17a22.62,22.62,0,0,0-.92-7.79,11.82,11.82,0,0,0-3.21-5,15.47,15.47,0,0,0-5.5-2.76,51.64,51.64,0,0,0-8.71-.91h-9.17l.91-10.09H2405a48.64,48.64,0,0,1,14.22,1.83,24.36,24.36,0,0,1,9.62,5,17.63,17.63,0,0,1,5.05,7.79,34.79,34.79,0,0,1,1.37,9.63v21.55H2360m47.22,22.47a7.39,7.39,0,0,1-5-2.29,7.58,7.58,0,0,1-2.29-5.5,7.34,7.34,0,0,1,14.67,0,8.5,8.5,0,0,1-2.29,5.5,7.4,7.4,0,0,1-5.05,2.29"/><path class="cls-4" d="M1087.16,337.47c-20.64,0-25.22-11-25.22-23.84v-43.1h12.84v42.18c0,8.25,2.75,14.22,13.75,14.22s13.76-4.13,13.76-15.59V270.53h12.38v40.35c0,17.88-10.09,26.59-27.51,26.59"/><path class="cls-4" d="M1158.69,336.55V305.83c0-5-1.38-8.25-6-8.25s-11.47,7.34-11.47,15.59v23.38h-12.38v-39c-2.29,0-5.5-.92-8.25-.92v-7.79a148.11,148.11,0,0,1,20.17-.92,28.41,28.41,0,0,1-.91,8.71,18.71,18.71,0,0,1,16.5-9.63c11,0,14.22,6.88,14.22,15.59v33.93h-12.38"/><path class="cls-4" d="M1188,336.55v-39c-2.29,0-5.5-.92-8.25-.92v-7.79a154.83,154.83,0,0,1,20.63-.92V336.1H1188m6-55c-4.12,0-7.33-3.67-7.33-7.79a7.63,7.63,0,0,1,7.79-7.34c4.13,0,7.34,3.67,7.34,7.8s-3.67,7.33-7.8,7.33"/><path class="cls-4" d="M1230.22,337.47c-10.55,0-14.22-3.67-14.22-15.13V297.58h-8.25V288H1216V272.82l12.38-3.21V288h11.92v9.63h-11.92v21.55c0,6.42,1.38,8.25,6,8.25a11.74,11.74,0,0,0,5.51-.91l.91,9.63a39.37,39.37,0,0,1-10.54,1.37"/><path class="cls-4" d="M1289.82,314.55H1260a11.84,11.84,0,0,0,10.09,13.29h3.21a30.61,30.61,0,0,0,14.21-3.21l1.38,9.63a45.3,45.3,0,0,1-17.43,3.21c-15.13,0-23.84-7.79-23.84-24.76s8.25-25.68,22.47-25.68,20.17,9.63,20.17,21.55v6m-21.09-18.35a9.8,9.8,0,0,0-9.63,10.09h17.88c0-6.42-3.21-10.09-8.25-10.09"/><path class="cls-4" d="M1329.72,336.55a50.73,50.73,0,0,1,.45-8.25c-2.75,6-8.71,9.17-15.13,9.17-11.92,0-17.42-8.71-17.42-22.47s9.63-27.51,25.68-27.51h6V274.65c-2.3,0-5.51-.91-8.26-.91v-7.8a155,155,0,0,1,20.64-.92v61.45c2.29,0,5.5.91,8.25.91v7.8a148.11,148.11,0,0,1-20.17.92M1328.8,298a30.88,30.88,0,0,0-6.42-.92c-7.34,0-12.38,4.59-12.38,16.51s2.75,13.75,8.25,13.75,10.55-7.79,10.55-16V298Z"/><path class="cls-4" d="M1418.67,336.55l-4.59-13.29h-24.76l-4.58,13.29H1371.9L1394.83,271H1409l23.38,65.56h-14.21m-13.76-42.18c-.91-2.75-1.83-6-2.75-9.17-.91,3.21-1.37,6-2.75,9.17l-6.42,18.8h18.34Z"/><path class="cls-4" d="M1467.27,299.41c-9.17-1.83-13.75,4.13-13.75,17.43v19.71h-12.38v-39c-2.3,0-5.51-.92-8.26-.92v-7.79a148.18,148.18,0,0,1,20.18-.92,34.23,34.23,0,0,1-.92,9.63A14.47,14.47,0,0,1,1467.73,287v12.38"/><path class="cls-4" d="M1498.45,336.55a49.64,49.64,0,0,1,.46-8.25c-2.75,6-9.17,9.17-15.59,9.17-6.88.92-12.84-4.13-13.75-11v-1.84c0-11.46,11.46-17.42,28-17.42v-2.29c0-5.05-2.3-7.8-9.63-7.8a31.26,31.26,0,0,0-14.22,3.67l-1.37-10.09a55.51,55.51,0,0,1,17.42-2.75c15.59,0,20.18,6.42,20.18,17v22.92c2.29,0,5.5.92,8.25.92v7.79c-6.42.92-13.3.92-20.18.92m-.45-22.47c-12.84,0-16,3.21-16,7.34,0,2.75,2.29,5.5,5,5.5h.92A11.6,11.6,0,0,0,1498,315.92v-1.37Z"/><path class="cls-4" d="M1544.3,337.47a76.68,76.68,0,0,1-17.88-2.29V275.11c-2.29,0-5.5-.91-8.25-.91v-7.8a158.31,158.31,0,0,1,21.09-.92v20.64a34.23,34.23,0,0,1-.92,9.63,15.23,15.23,0,0,1,14.68-8.26c11.46,0,17.88,8.26,17.88,22.47s-9.63,27.51-26.14,27.51m4.59-39.89c-6.42,0-10.55,7.79-10.55,15.59v13.76a31.54,31.54,0,0,0,6.42.91c7.34,0,12.38-4.58,12.38-16.5s-2.75-13.76-8.25-13.76"/><polyline class="cls-4" points="1602.08 336.55 1602.08 270.99 1637.84 270.99 1637.84 281.53 1614.92 281.53 1614.92 297.58 1636.93 297.58 1636.93 308.13 1614.92 308.13 1614.92 326.01 1637.84 326.01 1637.84 336.55 1602.08 336.55"/><path class="cls-4" d="M1711.67,336.55V305.83c0-5-1.38-8.25-6-8.25s-11,6.42-11,16.05v22.92h-12.38V305.83c0-4.58-.92-8.25-6-8.25s-11,6.88-11,16.05v22.92H1653v-39c-2.29,0-5.5-.92-8.25-.92v-7.79a148.18,148.18,0,0,1,20.18-.92,55.29,55.29,0,0,1-.46,8.71,18,18,0,0,1,16-9.63,12.55,12.55,0,0,1,13.29,9.63,17.83,17.83,0,0,1,15.59-9.63c9.17,0,14.68,5.05,14.68,16.05v33h-12.38"/><path class="cls-4" d="M1741,336.55v-39c-2.29,0-5.5-.92-8.25-.92v-7.79a154.76,154.76,0,0,1,20.63-.92V336.1H1741m6-55c-4.13,0-7.34-3.67-7.34-7.79s3.67-7.34,7.8-7.34,7.34,3.67,7.34,7.8-3.67,7.79-7.8,7.33"/><path class="cls-4" d="M1796,299.41c-9.17-1.83-13.75,4.13-13.75,17.43v19.71H1769.9v-39c-2.3,0-5.5-.92-8.26-.92v-7.79a148.18,148.18,0,0,1,20.18-.92,34.23,34.23,0,0,1-.92,9.63A14.47,14.47,0,0,1,1796.49,287v12.38"/><path class="cls-4" d="M1827.21,336.55V328.3c-2.75,6-9.17,9.17-15.59,9.17-6.87.92-12.84-4.13-13.75-11v-1.84c0-11.46,11.46-17.42,28-17.42v-2.29c0-5.05-2.3-7.8-9.63-7.8a31.26,31.26,0,0,0-14.22,3.67l-1.37-10.09A55.51,55.51,0,0,1,1818,288c15.59,0,20.18,6.42,20.18,17v22.92c2.29,0,5.5.92,8.71.92v7.79c-6.42.92-13.3.92-20.18.92m-.91-22.47c-12.84,0-16,3.21-16,7.34,0,2.75,2.29,5.5,5,5.5h.92a11.61,11.61,0,0,0,10.55-11.92v-1.37Z"/><path class="cls-4" d="M1870.77,337.47c-10.54,0-14.21-3.67-14.21-15.13V297.58h-8.26V288h8.26V272.82l12.38-3.21V288h11.92v9.63h-11.92v21.55c0,6.42,1.37,8.25,6,8.25a11.7,11.7,0,0,0,5.5-.91l.92,9.63a42,42,0,0,1-10.55,1.37"/><path class="cls-4" d="M1930.38,314.55h-29.8a11.83,11.83,0,0,0,10.08,13.29h3.21a30.65,30.65,0,0,0,14.22-3.21l1.37,9.63a45.22,45.22,0,0,1-17.42,3.21c-15.13,0-23.84-7.79-23.84-24.76s8.25-25.68,22.46-25.68,20.18,9.63,20.18,21.55v6m-20.63-18.35a9.79,9.79,0,0,0-9.63,10.09h17.88c0-6.42-3.21-10.09-8.25-10.09"/><path class="cls-4" d="M1950.1,337.47c-3.67,0-7.34,0-11-1.37L1940,326a20.66,20.66,0,0,0,10.55,1.83c4.58,0,7.79-2.29,7.79-5.5,0-8.71-19.72-3.67-19.72-19.72s6.42-15.59,20.64-15.59c3.21,0,6,0,8.71.92v9.63a34.15,34.15,0,0,0-9.17-1.38c-5,0-7.34,1.84-7.34,5.05,0,7.79,20.18,4.12,20.18,19.71S1963.39,337,1950.1,337"/><path class="cls-4" d="M2026.67,337.47c-20.63,0-25.22-11-25.22-23.84v-43.1h12.84v42.18c0,8.25,2.75,14.22,13.76,14.22s13.75-4.13,13.75-15.59V270.53h12.38v40.35c0,17.88-10.09,26.59-27,26.59"/><path class="cls-4" d="M2100.49,336.55V305.83c0-5-1.37-8.25-6-8.25s-11.46,7.34-11.46,15.59v23.38h-12.38v-39c-2.29,0-5.5-.92-8.26-.92v-7.79a148.18,148.18,0,0,1,20.18-.92,28.12,28.12,0,0,1-.92,8.71A18.71,18.71,0,0,1,2098.2,287c11,0,14.21,6.88,14.21,15.59v33.93H2100"/><path class="cls-4" d="M2129.84,336.55v-39c-2.3,0-5.5-.92-8.26-.92v-7.79a155,155,0,0,1,20.64-.92V336.1h-12.38m6-55a7.34,7.34,0,1,1,0-14.67c4.12,0,7.79,3.21,7.79,7.34s-3.21,7.79-7.33,7.79h-.46"/><path class="cls-4" d="M2179.82,336.55H2167l-17.88-48.14h13.75l7.8,21.55c.91,3.67,2.29,7.34,3.21,10.55.91-3.67,1.83-6.88,2.75-10.55l7.79-22h13.3l-17.88,48.15"/><path class="cls-4" d="M2243.09,314.55h-29.8a11.84,11.84,0,0,0,10.09,13.29h3.21a30.61,30.61,0,0,0,14.21-3.21l1.38,9.63a45.3,45.3,0,0,1-17.43,3.21c-15.13,0-23.84-7.79-23.84-24.76s8.25-25.68,22.92-25.68,20.18,9.63,20.18,21.55v6m-21.55-18.35a9.8,9.8,0,0,0-9.63,10.09h17.88c0-6.42-3.21-10.09-8.25-10.09"/><path class="cls-4" d="M2281.61,299.41c-9.17-1.83-13.76,4.13-13.76,17.43v19.71h-12.38v-39c-2.29,0-5.5-.92-8.71-.92v-7.79a148.18,148.18,0,0,1,20.18-.92,34.23,34.23,0,0,1-.92,9.63A14.47,14.47,0,0,1,2281.61,287v12.38"/><path class="cls-4" d="M2299,337.47c-3.67,0-7.33,0-10.54-1.37l.91-10.09c3.21,1.37,6.88,2.29,10.09,1.83,4.59,0,7.8-2.29,7.8-5.5,0-8.71-19.72-3.67-19.72-19.72S2294,287,2308.2,287a28.12,28.12,0,0,1,8.71.92v9.63a34,34,0,0,0-9.17-1.38c-5,0-7.33,1.84-7.33,5.05,0,7.79,20.17,4.12,20.17,19.71S2311.87,337,2299,337"/><path class="cls-4" d="M2332.05,336.55v-39c-2.3,0-5.51-.92-8.26-.92v-7.79a155,155,0,0,1,20.64-.92V336.1h-12.38m6.42-55c-4.13,0-7.34-3.67-7.34-7.79s3.67-7.34,7.79-7.34a7.54,7.54,0,0,1,7.34,7.34c0,4.12-3.67,7.33-7.79,7.33"/><path class="cls-4" d="M2374.23,337.47c-10.55,0-14.21-3.67-14.21-15.13V297.58h-8.26V288H2360V272.82l12.38-3.21V288h11.92v9.63H2372.4v21.55c0,6.42,1.37,8.25,5.5,8.25a11.7,11.7,0,0,0,5.5-.91l.92,9.63a39.39,39.39,0,0,1-10.55,1.37"/><path class="cls-4" d="M2417.33,339.31c-6.42,17-13.3,21.55-24.3,21.55a34.62,34.62,0,0,1-6.88-.46l1.38-10.55a26.66,26.66,0,0,0,6,.92c4.12,0,8.25-1.84,11-9.63l1.38-4.59L2388,288.41h13.75l6.42,18.34c1.38,4.13,2.75,9.17,3.67,13.3.92-4.13,3.21-11,4.58-15.13l6-16.51h13.29l-19.26,50.9"/><path class="cls-5" d="M2698.78,192.38a6.15,6.15,0,0,0-.84-2.09,26,26,0,0,0-9.18-11.91c-2.09-1.46-3.35-1.25-4-.63-.42.63-.63,1.68.41,3.14,4,5,5.44,11.7,5.85,16.29a42,42,0,0,1-2.09,17.13c-3.76,10.23-12.74,18.17-17.75,22.35a22,22,0,0,0-3.13,2.92c-.42.84-.84,2.09-1.47,3.76-1,3.34-2.71,8.56-6.05,12.74-4.8,5.85-11.07,7.94-15,7.94-5.22,0-6.89-5.64-8.77-12.12-2.3-7.73-4.81-16.5-14.62-16.5a15.71,15.71,0,0,0-5.85,1,10.53,10.53,0,0,0-5,5c-.63.41-3.55,1.88-4.39,4.59a5.78,5.78,0,0,0-.21,1.88,5.89,5.89,0,0,0,.84,3.14h1c0-.42.63-2.51,3.76-2.51a3.35,3.35,0,0,1,2.93,1.67,6.67,6.67,0,0,1,.83,3.34,10.17,10.17,0,0,1-3.55,7.31,12.54,12.54,0,0,1-8.56,3.34c-4,0-10.44-2.08-15-7.93-3.34-4.18-5-9.19-6.06-12.74-.62-1.68-1-2.93-1.46-3.76a23.76,23.76,0,0,0-3.13-2.93c-4.8-4.17-14-12.11-17.75-22.35a41.55,41.55,0,0,1-2.09-17.12c.41-4.6,1.67-11.28,5.85-16.29,1-1.47,1-2.51.41-3.13s-1.88-.84-4,.62a25,25,0,0,0-9.19,11.91c-.2.63-.62,1.46-.83,2.09a2.64,2.64,0,0,0-1.25-.21c-2.09.83-4.18,7.1-5,9.81-1.47,5.23-2.31,10.66-2.09,13.79h-.63c-1.47.41-2.3,3.34-2.3,4-1,4.38-1,6.05-1,10.86v.83a39.46,39.46,0,0,0,1.46,11.07.77.77,0,0,0-.63.21c-1,.63-1.46,2.51-1.46,5.85,0,5.64,1.88,11.28,5.22,17.13a3,3,0,0,0-.84.62c-.62,1.05-.2,3.14,1,6.47a39.49,39.49,0,0,0,4,7.32,41.81,41.81,0,0,0,8.77,9.81,3.81,3.81,0,0,0,.21,3.34c1.46,2.93,6.27,6.69,12.95,10.45a4.62,4.62,0,0,0,1.25,3.76c2.92,3.76,10.86,6.89,15.25,8.14,5.85,1.88,12.32,3.34,16.08,3.55.21.42,1.05,1.46,1.05,4.6,0,1.67-2.3,5.85-4.39,10-3.34,6.27-5.43,10.24-4.6,11.7a1.3,1.3,0,0,0,1.05.62h.21c-.21.84-.63,2.09-.84,3.35a.21.21,0,0,1-.21-.21,4.28,4.28,0,0,0-2.92-.21,8.35,8.35,0,0,0-4.6,3.34,17.06,17.06,0,0,0-1.25,3.34,129.12,129.12,0,0,1-17.54-7.52l6.68-28.61a95,95,0,0,1,5.85-164.58l-21.93-20.89a123.91,123.91,0,0,0-12.95,200.3l-8.35,21.3c0,4.18,11.9,13.37,27.15,20.89,11.48,5.64,34.46,14.2,60.36,14.2s48.87-8.56,60.36-14.2c15.24-7.52,27.15-16.71,27.15-20.89l-8.36-21.3a123.92,123.92,0,0,0-12.94-200.3L2668.7,155.2a95,95,0,0,1,5.85,164.58l6.69,28.61a129.79,129.79,0,0,1-17.55,7.52,6.55,6.55,0,0,0-1.25-3.34,7.68,7.68,0,0,0-4.6-3.34,4.43,4.43,0,0,0-2.92.21.21.21,0,0,0-.21.21c-.42-1.26-.63-2.51-.83-3.35h.2c.63,0,1.05-.2,1.05-.62.83-1.46-1.05-5.43-4.6-11.7-2.29-4.17-4.38-8.35-4.38-10,0-3.14.83-4.39,1-4.6a78.81,78.81,0,0,0,16.09-3.55c4.38-1.46,12.11-4.38,15.24-8.14a4.62,4.62,0,0,0,1.25-3.76c6.69-3.76,11.49-7.52,12.95-10.45a3.79,3.79,0,0,0,.21-3.34,41.81,41.81,0,0,0,8.77-9.81c1.05-1.88,2.72-4.6,4-7.32,1.46-3.33,1.67-5.42,1-6.47a2.72,2.72,0,0,0-.84-.62c3.55-5.85,5.22-11.49,5.22-17.13,0-3.34-.42-5.22-1.46-5.85-.21,0-.42-.21-.63-.21a41.19,41.19,0,0,0,1.47-11.07v-.83c0-4.81,0-6.69-1.05-10.86-.21-.63-.83-3.56-2.3-4h-.62c.21-3.13-.63-8.56-2.09-13.79-.84-2.71-2.72-9-5-9.81.41-.21-.21-.21-.63,0"/><path class="cls-6" d="M2644.69,360.51v-4.18c.41-2.09,1-3.34,3.54-3.55a23.34,23.34,0,0,1-1.66-4.59c-.63,0-1.47-.84-3.35-3.76-.2-.21-.2-.42-.41-.63a21.68,21.68,0,0,1,.83,3.76c.21,1,.42,6.26-.62,7.52a.84.84,0,0,1-.84.42c-1.88,0-4-1.47-5.22-3.14-.21,1.67-.63,3.34-1.46,4.18a1.8,1.8,0,0,1-1.25.62c-1.26,0-3.14-1.88-4.6-4-.84,3.13-2.72,6.06-5,6.06s-4.17-2.93-5-6.06c-1.25,2.08-3.13,4-4.59,4a1.76,1.76,0,0,1-1.25-.62c-.84-.84-1.26-2.51-1.47-4.18-1.46,1.88-3.34,3.14-5.22,3.14-.21,0-.42,0-.83-.42-1.05-1.26-.84-6.48-.63-7.52.21-.84.42-2.09.83-3.76-.2.21-.2.42-.41.63-1.88,2.92-2.72,3.76-3.35,3.76-.62,1.67-1.25,3.13-1.67,4.59,2.3,0,3.14,1.46,3.35,3.55v4.18a125.47,125.47,0,0,0,19.84,1.67,127.47,127.47,0,0,0,20.47-1.67"/><path class="cls-5" d="M2635.7,128.47a9.49,9.49,0,0,0-.62,1.88v-.63a16.39,16.39,0,0,0-1.26-7.1H2633c-.63,1-1.88,3.13-2.71,4.38a15.06,15.06,0,0,0-.22-2.92,29.9,29.9,0,0,0-4.59-11.28h-1.25a28.05,28.05,0,0,0-4.6,11.28,15.77,15.77,0,0,0-.21,2.92c-.83-1.25-2.08-3.13-2.71-4.38h-.84a17.1,17.1,0,0,0-1.25,7.1v.63c-.21-.42-.42-1.26-.63-1.88h-1.25a19.91,19.91,0,0,0-.42,7.72,4.1,4.1,0,0,0,.21,1.47v.41h.42a70.42,70.42,0,0,0,24.23,0h.41v-.41a3.93,3.93,0,0,1,.22-1.47,18.56,18.56,0,0,0-.43-7.51h-1.67"/><path class="cls-7" d="M2620.25,128.68v-1.26a26.79,26.79,0,0,1,4.39-13.57,24.84,24.84,0,0,1,4.38,13.57v1.26l.84.41s2.5-4,3.13-5a18.78,18.78,0,0,1,.84,5.85,33.59,33.59,0,0,1-.21,3.76l1,.21s1.05-2.51,1.46-4a16.27,16.27,0,0,1,.42,2.92c0,1.05-.21,2.3-.21,3.35v1a62.77,62.77,0,0,1-11.69,1,65.36,65.36,0,0,1-11.7-1v-1c0-.84-.21-1.88-.21-2.93a9.69,9.69,0,0,1,.42-3.34c.62,1.46,1.46,4,1.46,4l1-.21a33.59,33.59,0,0,1-.21-3.76,18.78,18.78,0,0,1,.84-5.85c.84,1.25,3.13,5,3.13,5l.84-.41"/><path class="cls-5" d="M2601,150.61v34.46l23.6,9.82,23.6-9.82V148.31s-22.55,9.4-23.6,9.82c-1-.42-23.6-9.82-23.6-9.82v2.3"/><path class="cls-3" d="M2604,152.9c3.34,1.47,20.67,8.77,20.67,8.77s17.34-7.1,20.68-8.56v30.28c-1.67.63-19.63,8.15-20.68,8.57-1-.42-19-7.94-20.67-8.77V152.9"/><polygon class="cls-5" points="2624.64 164.18 2606.46 156.46 2606.46 181.52 2624.64 189.24 2643.01 181.52 2643.01 156.46 2624.64 164.18"/><path class="cls-5" d="M2649.49,190.5l-24.65,11.69-26.31-12.53-.21.42a45.39,45.39,0,0,1-4.8-3.55l-.21-.21h-.21l-6.27.63-.21.42,3.55,5.42h.21a26.19,26.19,0,0,1,5.64,1.67l-.21.43L2618,205.33l-8.15,4a86.58,86.58,0,0,0-9.39,5c-3.55,2.08-4.81,3.55-4.39,4.59q0,.32.63.63c2.3.84,10.65-2.92,15.45-5l12.33-5.84,12.32,5.84c4.8,2.3,13.16,5.86,15.45,5q.63-.32.63-.63c0-.21.21-.41,0-.83-.83-2.3-9-6.48-13.79-8.77l-8.14-4,20.47-9.82a3.75,3.75,0,0,0,2.09-.21c2.3-1,6.05-4,7.31-6.89l.21-.63-.63-.21c-2.72-.42-7.73.21-9.82,1.26-.21.62-.83,1-1,1.67"/><path class="cls-5" d="M2638.21,139.33a87.11,87.11,0,0,1-13.37,1.46,89.93,89.93,0,0,1-13.36-1.46l-.63-.21v.62c0,.22-.42,5.86,3.13,10,2.3,2.51,5.85,4,10.45,4s8.14-1.25,10.65-4c3.76-4,3.55-9.61,3.55-10v-.62l-.42.21"/><path class="cls-8" d="M2533.16,290.33a103.16,103.16,0,0,1-13.37-51.17,104.89,104.89,0,0,1,52-90.65l6.89,6.48a96.12,96.12,0,0,0-38.85,129.07"/><path class="cls-7" d="M2573.05,319.78,2546.52,334A119.68,119.68,0,0,1,2520,303.49l20.46-18.59a95.09,95.09,0,0,0,32.59,34.88"/><path class="cls-5" d="M2567.2,347.77a138.78,138.78,0,0,1-19.63-12.95l26.1-14-6.47,26.95"/><path class="cls-3" d="M2564.9,141.83l6.27,6.06A105.78,105.78,0,0,0,2532.53,291l-6.27,5.84a114.23,114.23,0,0,1,38.64-155"/><path class="cls-8" d="M2716.32,290.33a103.16,103.16,0,0,0,13.37-51.17,104.89,104.89,0,0,0-52-90.65l-6.89,6.48a96.12,96.12,0,0,1,38.85,129.07"/><path class="cls-7" d="M2676.43,319.78,2703,334a119.68,119.68,0,0,0,26.52-30.49L2709,284.9a95,95,0,0,1-32.58,34.88"/><path class="cls-5" d="M2682.49,347.77a138.78,138.78,0,0,0,19.63-12.95l-26.11-14,6.48,26.95"/><path class="cls-3" d="M2684.58,141.83l-6.27,6.06A105.78,105.78,0,0,1,2717,291l6.27,5.84a114.82,114.82,0,0,0-38.64-155"/><path class="cls-3" d="M2597.9,190.92l-1.25,2.71a47.91,47.91,0,0,0-5.85-1.67c-.21-.21-1.46-2.09-2.3-3.34l5,2.3.43-.84-4.81-2.3c1.46-.21,3.55-.41,4-.41a17.58,17.58,0,0,0,4.8,3.55"/><path class="cls-3" d="M2650.12,193.42a2.6,2.6,0,0,1,0-1.88,2.78,2.78,0,0,1,1.25-1.46,21.67,21.67,0,0,1,8.56-1.25c-1.46,2.5-4.8,4.8-6.47,5.64-1.68.62-3.13-.84-3.34-1.05"/><path class="cls-7" d="M2620.25,128.68v-1.26a26.79,26.79,0,0,1,4.39-13.57,24.84,24.84,0,0,1,4.38,13.57v1.26l.84.41s2.5-4,3.13-5a18.78,18.78,0,0,1,.84,5.85,33.59,33.59,0,0,1-.21,3.76l1,.21s1.05-2.51,1.46-4a16.27,16.27,0,0,1,.42,2.92c0,1.05-.21,2.3-.21,3.35v1a62.77,62.77,0,0,1-11.69,1,65.36,65.36,0,0,1-11.7-1v-1c0-.84-.21-1.88-.21-2.93a9.69,9.69,0,0,1,.42-3.34c.62,1.46,1.46,4,1.46,4l1-.21a33.59,33.59,0,0,1-.21-3.76,18.78,18.78,0,0,1,.84-5.85c.84,1.25,3.13,5,3.13,5l.84-.41"/><path class="cls-5" d="M2601,150.61v34.46l23.6,9.82,23.6-9.82V148.31s-22.55,9.4-23.6,9.82c-1-.42-23.6-9.82-23.6-9.82v2.3"/><path class="cls-3" d="M2604,152.9c3.34,1.47,20.67,8.77,20.67,8.77s17.34-7.1,20.68-8.56v30.28c-1.67.63-19.63,8.15-20.68,8.57-1-.42-19-7.94-20.67-8.77V152.9"/><polygon class="cls-5" points="2624.64 164.18 2606.46 156.46 2606.46 181.52 2624.64 189.24 2643.01 181.52 2643.01 156.46 2624.64 164.18"/><path class="cls-3" d="M2650.12,193.42a2.6,2.6,0,0,1,0-1.88,2.78,2.78,0,0,1,1.25-1.46,21.67,21.67,0,0,1,8.56-1.25c-1.46,2.5-4.8,4.8-6.47,5.64-1.68.62-3.13-.84-3.34-1.05"/><path class="cls-6" d="M2620.46,330c-.63,7.11-1.25,17.13-1.05,19.64,0,.62.21,1.46.21,2.08-1.25,2.3-3.34,4.39-4.17,4.39a.77.77,0,0,1-.63-.21c-.84-.83-1.25-3.76-1.25-6.26a79.59,79.59,0,0,1,1.46-10c.42-2.3.83-4.8,1.25-6.89a10.3,10.3,0,0,1,4.18-2.72"/><path class="cls-6" d="M2615,333.56a57,57,0,0,1-1.05,5.85,87.58,87.58,0,0,0-1.46,10v1.25c-1.25,2.09-3.34,3.76-5.22,3.76-.21,0-.42-.83-.63-2.92v-1.47a8.51,8.51,0,0,1,.21-2.5c.21-1.05.84-3.55,1.67-6.48a54.13,54.13,0,0,1,6.48-7.52"/><path class="cls-6" d="M2624.84,329a8.65,8.65,0,0,1,3.35.63c.62,7.1,1.46,17.54,1.25,19.84-.21,3.55-2.3,8.56-4.6,8.56s-4.17-5-4.59-8.56c-.21-2.3.63-12.74,1.25-19.84a8.64,8.64,0,0,1,3.34-.63"/><path class="cls-6" d="M2629.23,330c.63,7.11,1.25,17.13,1.25,19.64,0,.62-.2,1.46-.2,2.08,1.25,2.3,3.34,4.39,4.17,4.39a.77.77,0,0,0,.63-.21c.84-.83,1.25-3.76,1.25-6.26a81.57,81.57,0,0,0-1.46-10c-.42-2.3-.83-4.8-1.25-6.89-1.68-1.25-2.93-2.3-4.39-2.72"/><path class="cls-6" d="M2634.45,333.56a57,57,0,0,0,1.05,5.85,87.58,87.58,0,0,1,1.46,10v1.25c1.25,2.09,3.34,3.76,5.22,3.76.21,0,.41-.83.63-2.92v-1.47a8.13,8.13,0,0,0-.22-2.5c-.2-1.05-.83-3.55-1.66-6.48a42.94,42.94,0,0,0-6.48-7.52"/><path class="cls-9" d="M2597.28,359.25c0-2.71,2.29-5.42,4-5.42s2.3.62,2.72,2.71v3.76a17.55,17.55,0,0,0-2.09-.42l-.21.21a3.7,3.7,0,0,0-.84,2.09,6.45,6.45,0,0,0,.84,3.34c-3.55-.42-4.38-4.18-4.38-6.27"/><path class="cls-9" d="M2602.08,347.77c-.63,1.88-1.25,3.55-1.88,5a2.8,2.8,0,0,0-1,.63c0-.21-.2-.21-.2-.42a3.43,3.43,0,0,0-2.51-1.46h-.21a3.7,3.7,0,0,0-1-1.67c.41-1.88,1-3.56,1-4.18.42-.21.63-.42,1-.42a3.37,3.37,0,0,1,1.88-.62c.63,0,1,.83,1.68,1.66a4.43,4.43,0,0,0,1.25,1.47"/><path class="cls-9" d="M2591,355.7a5.62,5.62,0,0,0-1.67,1.47,8.51,8.51,0,0,0-1.05,3.34,4,4,0,0,1-1.46-2.3,3.09,3.09,0,0,1-.21-1.46,11,11,0,0,1,1.05-4,7.08,7.08,0,0,1,4-2.92,3.44,3.44,0,0,1,2.08,0c.84.41,1.47,1,1.47,1.67a8.09,8.09,0,0,0-4.18,4.17"/><path class="cls-9" d="M2596.23,358.21c-.83.83-1.67,1.46-1.88,2.71,0,.42-.21.84-.21,1.26a7.36,7.36,0,0,0,.42,2.29,4.68,4.68,0,0,1-2.3-1.67,6.24,6.24,0,0,1-1-4,3.19,3.19,0,0,1,.2-1.46c.42-2.72,3.14-5,4.81-4.81,1.05.21,1.67.42,1.88,1.05,0,.2.21.2.21.41a13.12,13.12,0,0,0-2.09,4.18"/><path class="cls-10" d="M2578.69,308.29a55,55,0,0,0,8.77,6.89c-.42-.2-.84-.2-1.25-.41-7.31-2.51-12.53-5.23-14.63-7.94a4.36,4.36,0,0,1-1-2.5c1.26.62,2.72,1.45,4.18,2.08,1.25.63,2.5,1.25,4,1.88"/><path class="cls-10" d="M2560.31,284.07c1.67,5,9.4,12.11,15.24,16.29-1.88-.84-3.76-1.67-5.43-2.51-9.81-5-17.54-11.49-21.72-18.17-3.13-5-5.85-11.28-5-12.74a.92.92,0,0,1,.63-.21c3.34,5.43,8.35,10.65,14.2,15.46a17,17,0,0,0,2.09,1.88"/><path class="cls-10" d="M2566.36,287c-2.71-1.67-5.22-3.55-7.72-5.43-5.85-4.8-10.86-10-14.21-15.46-3.76-5.84-5.64-11.69-5.64-17.33,0-4,.63-4.8,1.05-5a.29.29,0,0,1,.42,0,43.38,43.38,0,0,0,2.71,7.3,63,63,0,0,0,10.23,15.25c1.26,5.64,4.81,10.86,7.32,14.41,1.88,2.09,4,4.39,5.84,6.27"/><path class="cls-10" d="M2571.17,299.52a38.28,38.28,0,0,0,7.72,7.73,31.85,31.85,0,0,0-4-1.67c-9.19-4.39-15.88-9.19-17.55-12.74a2.74,2.74,0,0,1-.41-2.09,80.61,80.61,0,0,0,12.53,8.14,15,15,0,0,1,1.67.63"/><path class="cls-10" d="M2560.31,271.74c-1.47-1.25-2.93-2.71-4.18-4a60.57,60.57,0,0,1-11.9-17.13,45,45,0,0,1-4.39-19v-.83c0-4.8,0-6.48,1-10.66.42-1.66,1-2.92,1.67-3.13.21,0,.21,0,.42.21a74.72,74.72,0,0,0,4.59,19.63c.63,1.68,1.47,3.35,2.1,5-.22,5,1.25,11.7,4.38,18.39a50.44,50.44,0,0,0,6.27,11.48"/><path class="cls-9" d="M2648.45,360.93a3,3,0,0,1,.41,1.46,6.46,6.46,0,0,1-.83,3.34c3.55-.63,4.38-4.39,4.38-6.47,0-2.72-2.3-5.44-3.75-5.44-1.68,0-2.31.63-2.72,2.72v3.76a17.55,17.55,0,0,1,2.09-.42l.2.21a1.53,1.53,0,0,0,.22.84"/><path class="cls-9" d="M2647.4,347.77c.63,1.88,1.25,3.55,1.88,5a2.8,2.8,0,0,1,1,.63c0-.21.2-.21.2-.42a3.07,3.07,0,0,1,2.51-1.46h.21a3.7,3.7,0,0,1,1-1.67c-.41-1.88-1-3.56-1-4.18-.42-.21-.63-.42-1-.42a3.37,3.37,0,0,0-1.88-.62c-.63,0-1,.83-1.68,1.66a2.18,2.18,0,0,1-1.25,1.47"/><path class="cls-9" d="M2658.68,355.7a5.62,5.62,0,0,1,1.67,1.47,14,14,0,0,1,1,3.34,4,4,0,0,0,1.47-2.3,3.09,3.09,0,0,0,.21-1.46,11,11,0,0,0-1.05-4,7.11,7.11,0,0,0-4-2.92,3.47,3.47,0,0,0-2.09,0,2.78,2.78,0,0,0-1.46,1.67,9,9,0,0,1,4.18,4.17"/><path class="cls-9" d="M2653.25,358.21c.83.83,1.67,1.46,1.88,2.71v1.26a7.36,7.36,0,0,1-.42,2.29,4.64,4.64,0,0,0,2.3-1.67,6.31,6.31,0,0,0,1-4,3.05,3.05,0,0,0-.21-1.46c-.41-2.72-3.13-5-4.8-4.81-1,.21-1.67.42-1.88,1.05,0,.2-.21.2-.21.41a7,7,0,0,1,2.3,4.18"/><path class="cls-10" d="M2671,308.29a55,55,0,0,1-8.77,6.89c.42-.2.83-.2,1.25-.41,7.31-2.51,12.53-5.23,14.62-7.94a4.29,4.29,0,0,0,1-2.5c-1.25.62-2.71,1.45-4.17,2.08-1.25.63-2.72,1.25-4,1.88"/><path class="cls-10" d="M2689.17,284.07c-1.67,5-9.4,12.11-15.24,16.29,1.88-.84,3.76-1.67,5.43-2.51,9.81-5,17.54-11.49,21.72-18.17,3.13-5,5.85-11.28,5-12.74a.92.92,0,0,0-.63-.21c-3.34,5.43-8.35,10.65-14.2,15.46a6.2,6.2,0,0,1-2.09,1.88"/><path class="cls-10" d="M2683.32,287a68,68,0,0,0,7.52-5.43c5.85-4.8,10.86-10,14.2-15.46,3.76-5.84,5.64-11.69,5.64-17.33,0-4-.62-4.8-1-5a.29.29,0,0,0-.42,0,43.38,43.38,0,0,1-2.71,7.3,62.76,62.76,0,0,1-10.24,15.25c-1.25,5.64-4.8,10.86-7.31,14.41a80,80,0,0,1-5.64,6.27"/><path class="cls-10" d="M2678.52,299.52a38.11,38.11,0,0,1-7.73,7.73,32.62,32.62,0,0,1,4-1.67c9.19-4.39,15.87-9.19,17.54-12.74a2.7,2.7,0,0,0,.42-2.09,81.09,81.09,0,0,1-12.53,8.14,7,7,0,0,0-1.67.63"/><path class="cls-10" d="M2689.38,271.74c1.46-1.25,2.93-2.71,4.18-4a60.57,60.57,0,0,0,11.9-17.13,45,45,0,0,0,4.39-19v-.83c0-4.8,0-6.48-1-10.66-.41-1.66-1-2.92-1.67-3.13-.21,0-.21,0-.41.21a67,67,0,0,1-4.6,19.63c-.62,1.68-1.46,3.35-2.09,5,.21,5-1.46,11.7-4.38,18.39a60.13,60.13,0,0,1-6.27,11.48"/><path class="cls-11" d="M2624.84,327.93c-8.77,0-15.66,10.44-19.21,15.87a21.46,21.46,0,0,1-2.51,3.34c-.41,0-.83-.84-1.46-1.46-.63-1.05-1.25-2.09-2.51-2.09a3.82,3.82,0,0,0-2.29.83,3.38,3.38,0,0,1-1.88.63h-.21c-.21-.21-.21-1,1-3.76.84-2.09,2.3-4.38,3.55-6.89,2.3-4.38,4.6-8.57,4.6-10.44,0-4.18-1.46-5.43-1.46-5.43a23.36,23.36,0,0,1-6.06-4.6c1.67.21,3.34.42,4.8.63l-.83-1.05a3.5,3.5,0,0,1-1.46-.21,21.4,21.4,0,0,1-6.69-6.26c2.09.42,4.18.83,6.27,1l-.63-1c-.63,0-1.25-.21-1.88-.21a20.9,20.9,0,0,1-7.52-8.36c2.3.63,4.6,1,6.89,1.47l-.2-1-3.13-.63a30.69,30.69,0,0,1-6.69-9.4,65.28,65.28,0,0,0,9,3.13v-1c-1-.42-2.29-.63-3.34-1A29.42,29.42,0,0,1,2581,277a80.77,80.77,0,0,0,12.74,6.26l.42-.84c-1.46-.62-3.13-1.25-4.59-1.88a45.68,45.68,0,0,1-10-15.66,56.14,56.14,0,0,0,15,9.61l.42-.84c-14.62-6.05-25.69-20.05-31.33-28.4a103.57,103.57,0,0,1-10.45-19.43c-2.5-6-3.76-11.69-3.76-15.45,0-7.94,1-14.2,2.93-19.21a24.51,24.51,0,0,1,9-11.5c1.47-1,2.51-1,2.72-.83s.2.83-.63,1.67c-4.18,5.22-5.64,12.11-6.06,16.92a44.06,44.06,0,0,0,2.09,17.54c3.76,10.45,13,18.38,18,22.77a19.93,19.93,0,0,1,2.93,2.71,13.18,13.18,0,0,1,1.25,3.56c1,3.54,2.71,8.56,6.27,12.94,5,6.06,11.69,8.36,15.87,8.36a13.69,13.69,0,0,0,9.19-3.55,10.32,10.32,0,0,0,3.76-7.94c0-2.29-1.26-6.05-4.8-6.05-2.51,0-3.76,1.25-4.18,2.29a6.07,6.07,0,0,1-.42-1.88,3.07,3.07,0,0,1,.21-1.46c.84-2.71,4.17-4,4.17-4h.22v-.21c2.29-5,6.26-5.64,10-5.64a10.83,10.83,0,0,1,9.4,5c2.09,2.93,3.13,6.9,4.39,10.87,1.88,6.47,3.75,12.73,9.6,12.73a21,21,0,0,0,15.88-8.35c3.55-4.38,5-9.61,6.26-13a13.22,13.22,0,0,1,1.25-3.55,20.52,20.52,0,0,1,2.93-2.71c5-4.18,14.2-12.33,18-22.77,1.88-5,2.51-11.48,2.09-17.54-.42-4.81-1.67-11.49-6.06-16.92-.63-.83-.83-1.46-.63-1.67s1.26-.21,2.72.84a24.4,24.4,0,0,1,9,11.48c1.88,5,2.93,11.28,2.93,19.22,0,4-1.26,9.4-3.76,15.45a92.71,92.71,0,0,1-10.45,19.43c-5.43,8.14-16.5,22.35-31.33,28.4l.42.84a51.43,51.43,0,0,0,15-9.61c-1.46,4.8-5.22,10.65-10,15.66-1.46.63-2.92,1.26-4.59,1.88l.42.84a72.08,72.08,0,0,0,12.74-6.27,29.44,29.44,0,0,1-10,12.95,20.43,20.43,0,0,1-3.34,1.05v1a64.82,64.82,0,0,0,9-3.13,30.66,30.66,0,0,1-6.68,9.39c-1.05.22-2.09.43-3.14.63l-.2,1a46.53,46.53,0,0,0,6.89-1.46A21,21,0,0,1,2653,307c-.63,0-1.25.21-1.88.21l-.63,1a62.08,62.08,0,0,0,6.27-1,21.47,21.47,0,0,1-6.68,6.26,3.05,3.05,0,0,0-1.46.21l-.84,1a20.12,20.12,0,0,0,4.8-.63,19.46,19.46,0,0,1-6.06,4.6c-.2.2-1.46,1.25-1.46,5.43,0,1.88,2.3,6.05,4.6,10.44,1.25,2.5,2.71,4.8,3.55,6.89,1.25,2.92,1,3.55,1,3.76h-.21a3.38,3.38,0,0,1-1.88-.63,4.41,4.41,0,0,0-2.29-.83c-1.25,0-1.88,1-2.51,2.09-.42.83-.84,1.46-1.46,1.46a22.14,22.14,0,0,1-2.51-3.34c-3.13-5.64-9.81-16.08-18.59-16.08"/><path class="cls-11" d="M2573.26,270.07a81,81,0,0,1-14.42-14.83c-.2-.21-.41-.62-.62-.83-3.14-5.85-5.85-19.63-5-27.15a110,110,0,0,0,9.82,18c.42.62.84,1,1.25,1.67.63,7.52,4,15.87,9,23.18"/><path class="cls-11" d="M2588.09,311.63a20.51,20.51,0,0,0,5.84,5.23c-.83-.21-1.67-.42-2.3-.63-2.92-1.25-7.72-4.81-10.44-7.1a45.53,45.53,0,0,0,6.9,2.5"/><path class="cls-11" d="M2576.18,293.67c1.46,3.13,5.85,7.73,9.82,10.65-2.09-.62-4-1.25-6.06-1.88-5-2.92-14.83-11.06-18-16.91a117.58,117.58,0,0,0,14.2,8.14"/><path class="cls-11" d="M2581.4,294.72a59.84,59.84,0,0,1-10.44-5c-5-3.76-13.37-12.75-16.29-21.94.21.22.42.42.42.63a76.18,76.18,0,0,0,14.2,11.69c1.25,3.56,7.52,10.66,12.11,14.63"/><path class="cls-11" d="M2585,309.55c-4.39-1.67-9.4-6.06-11.9-9.19a80.42,80.42,0,0,0,9.81,3.76,27.16,27.16,0,0,0,6.9,6.89c-1.47-.42-3.14-.84-4.81-1.46"/><path class="cls-11" d="M2577,283.65a108,108,0,0,1-13.16-8.57,59.77,59.77,0,0,1-9.19-15,48.23,48.23,0,0,1-4.18-16.09,82.39,82.39,0,0,0,7.52,12.12,77.15,77.15,0,0,0,6.47,7.52,41.06,41.06,0,0,0,6.48,12.74,54,54,0,0,0,6.06,7.31"/><path class="cls-11" d="M2676.22,270.07a80.64,80.64,0,0,0,14.41-14.83c.22-.21.42-.62.63-.83,3.13-5.85,5.85-19.63,5-27.15a109.12,109.12,0,0,1-9.81,18c-.42.62-.84,1-1.25,1.67-.42,7.52-3.76,15.87-9,23.18"/><path class="cls-11" d="M2661.6,311.63a20.64,20.64,0,0,1-5.84,5.23c.83-.21,1.67-.42,2.29-.63,2.92-1.25,7.73-4.81,10.44-7.1a54.83,54.83,0,0,1-6.89,2.5"/><path class="cls-11" d="M2673.51,293.67c-1.46,3.13-5.85,7.73-9.82,10.65,2.09-.62,4-1.25,6.06-1.88,5-2.92,14.83-11.06,18-16.91a138.34,138.34,0,0,1-14.2,8.14"/><path class="cls-11" d="M2668.29,294.72a59.84,59.84,0,0,0,10.44-5c5-3.76,13.37-12.75,16.29-21.94-.21.22-.42.42-.42.63a76.5,76.5,0,0,1-14.2,11.69c-1.25,3.56-7.52,10.66-12.11,14.63"/><path class="cls-11" d="M2664.53,309.55c4.38-1.67,9.4-6.06,11.9-9.19a80.42,80.42,0,0,1-9.81,3.76,27.16,27.16,0,0,1-6.9,6.89,33.41,33.41,0,0,0,4.81-1.46"/><path class="cls-11" d="M2672.46,283.65a108,108,0,0,0,13.16-8.57c3.34-3.55,6.68-9.19,9.4-15A48.23,48.23,0,0,0,2699.2,244a83.25,83.25,0,0,1-7.52,12.12,77.15,77.15,0,0,1-6.47,7.52,41.06,41.06,0,0,1-6.48,12.74,76.57,76.57,0,0,1-6.27,7.31"/><path class="cls-3" d="M2576,272.16a53.09,53.09,0,0,1-7.1-11.9,44.06,44.06,0,0,1-3.55-11.7A87.32,87.32,0,0,0,2578.27,263c1,4.8,4.39,10.44,9,15.67a50.59,50.59,0,0,1-11.28-6.48"/><path class="cls-3" d="M2589.76,312.05l5,1.25a23.06,23.06,0,0,0,5.22,4.81c-.83-.21-1.67-.21-2.71-.42a29.13,29.13,0,0,1-7.52-5.64"/><path class="cls-3" d="M2587.25,297.85a21.14,21.14,0,0,0,6.47,8.14,34.45,34.45,0,0,1-4.59-1c-4-2.09-9.19-7.31-11.49-10.86a62,62,0,0,0,9.61,3.76"/><path class="cls-3" d="M2590.17,297.43c-1.88-.42-3.76-1-5.84-1.67-4.18-2.92-11.28-10.65-13.37-14.62a123.43,123.43,0,0,0,12.95,6.89,30.73,30.73,0,0,0,6.26,9.4"/><path class="cls-3" d="M2584.33,304.74c2.09.63,4.38,1.25,6.47,1.67a19,19,0,0,0,5.64,6.06c-1.05-.21-2.09-.42-3.34-.63a25.66,25.66,0,0,1-8.77-7.1"/><path class="cls-3" d="M2588.09,288.66c-2.51-1.05-5-2.09-7.52-3.34-5-4-11.49-12.32-14.42-20.26,2.51,2.3,5,4.59,7.73,6.68,1.88,1.46,3.76,2.72,5.64,4a32,32,0,0,0,8.57,13"/><path class="cls-3" d="M2673.51,272.16a53.09,53.09,0,0,0,7.1-11.9,44.06,44.06,0,0,0,3.55-11.7A87.32,87.32,0,0,1,2671.21,263c-1,4.8-4.39,10.44-9,15.67a46.31,46.31,0,0,0,11.28-6.48"/><path class="cls-3" d="M2659.93,312.05l-5,1.25a23.27,23.27,0,0,1-5.22,4.81c.83-.21,1.67-.21,2.71-.42a29.3,29.3,0,0,0,7.52-5.64"/><path class="cls-3" d="M2662.44,297.85A21.07,21.07,0,0,1,2656,306a34.24,34.24,0,0,0,4.6-1,35.13,35.13,0,0,0,11.28-10.86,59.44,59.44,0,0,1-9.4,3.76"/><path class="cls-3" d="M2659.51,297.43c1.88-.42,3.76-1,5.85-1.67,4.18-2.92,11.28-10.65,13.37-14.62a124.43,124.43,0,0,1-12.95,6.89,34.87,34.87,0,0,1-6.27,9.4"/><path class="cls-3" d="M2665.15,304.74a58.21,58.21,0,0,1-6.47,1.67,19,19,0,0,1-5.64,6.06c1-.21,2.09-.42,3.34-.63a23.87,23.87,0,0,0,8.77-7.1"/><path class="cls-3" d="M2661.6,288.66c2.51-1.05,5-2.09,7.52-3.34,5-4,11.49-12.32,14.41-20.26-2.5,2.3-5,4.59-7.73,6.68-1.88,1.46-3.75,2.72-5.63,4a32.12,32.12,0,0,1-8.57,13"/><path class="cls-5" d="M2624.84,320.62l2.72-2.72,1.46,1.46h.21a27.1,27.1,0,0,0,11.69-4.8l.22-.21v-2.09h3.76V308.5h2.29l.21-.2a27.24,27.24,0,0,0,4.8-11.7v-.21l-1.46-1.47,2.72-2.71-.42-.42-2.3-2.29,1.67-1.47v-.2a27.19,27.19,0,0,0-4.8-11.7l-.21-.21h-2.09v-3.76h-3.76v-2.3l-.21-.2a27.29,27.29,0,0,0-11.69-4.81h-.21l-1.46,1.46-2.3-2.29-.42-.42-.42.42-2.29,2.29-1.47-1.46h-.2a27.33,27.33,0,0,0-11.7,4.81l-.21.2v2.3h-3.76v3.76h-2.3l-.2.21a26.3,26.3,0,0,0-4.81,11.7v.2l1.46,1.47-2.29,2.29-.42.42,2.71,2.71-1.46,1.47v.21a27.38,27.38,0,0,0,4.81,11.7l.2.2h2.3v3.76H2609v2.09l.21.21a26.17,26.17,0,0,0,11.7,4.8h.2l1.67-1.46,2.09,2.72"/><path class="cls-7" d="M2607.51,305.79a21.9,21.9,0,1,1,39.06-13.58,21.12,21.12,0,0,1-4.81,13.58l-1.88-.63,3.14-5.22-.63-.63c-8.15,3.13-16.92,2.72-22.77,1.67a67,67,0,0,1-11.07-2.71l-.62.41a12.4,12.4,0,0,0,2.92,8.36,7.1,7.1,0,0,1-2.92-1l-.42-.21"/><path class="cls-5" d="M2621.08,298.27c-.21.63-.21,1.25-.41,1.88l.63.63c.2,0,12.94-4.6,20.88-1.88l.62-.63a87.31,87.31,0,0,0-6.89-10.44c-4-5-10-11.7-16.92-14.41l-.62.83a23.43,23.43,0,0,1,2.93,6.47,48.71,48.71,0,0,1,1,7.11,15.64,15.64,0,0,0-1.88-2.72c-2.51-2.92-5.43-4.8-8.56-5.22l-.42.83a10.76,10.76,0,0,1,1.67,4.6,19.73,19.73,0,0,1-2.51,12.53l.63.63c1.67-.63,7.31-1.46,9.81-.21"/><path class="cls-3" d="M2621.29,297.22c-2.71-1.25-7.52-.41-9.6,0a21.09,21.09,0,0,0,2.29-9.6,11,11,0,0,0-.21-2.72,10.85,10.85,0,0,0-1.25-4c6.06,1.46,9.19,8.15,9.61,9-.21,2.09-.42,4.6-.84,7.31"/><path class="cls-3" d="M2623.17,288.66a30.77,30.77,0,0,0-1-8.57,19.12,19.12,0,0,0-2.09-5.21c6.06,2.92,11.28,8.77,14.83,13.36a91.28,91.28,0,0,1,6.26,9.19c-3.33-.83-7.51-.83-12.73.21-2.93.63-5.44,1.25-6.69,1.67a41.51,41.51,0,0,0,1.46-10.65"/><path class="cls-3" d="M2639.05,305.16a9.38,9.38,0,0,0-5.43,1,8.13,8.13,0,0,1-8.15,0,10.13,10.13,0,0,0-9.19,0,8.07,8.07,0,0,1-4,1c-.83-1-3.34-4-3.34-7.73a43.54,43.54,0,0,0,10.65,2.51c5.85.83,14.2,1.25,21.93-1.26-.41.84-1.46,2.72-2.5,4.39"/><path class="cls-3" d="M2627.14,314.14c-.83,0-1.67.21-2.3.21a22,22,0,0,1-7.52-1.25c2.3-1.05,5.64-1.05,7.52.21.63.2,1.47.62,2.3.83"/><path class="cls-3" d="M2638.84,309.13a22.75,22.75,0,0,1-6.89,4,8.66,8.66,0,0,1-6.48-.62,10.19,10.19,0,0,0-9.19,0,.21.21,0,0,0-.21.21l-2.51-1.25a7.89,7.89,0,0,0,3.14-1.05,8.11,8.11,0,0,1,8.14,0,9.05,9.05,0,0,0,9.19,0,6.52,6.52,0,0,1,4.81-1.25"/><path class="cls-3" d="M2639.67,308.29a9.18,9.18,0,0,0-6.26,1,8.13,8.13,0,0,1-8.15,0,10.19,10.19,0,0,0-9.19,0,8.07,8.07,0,0,1-4,1c-1-.84-2.08-1.67-2.92-2.5a9.42,9.42,0,0,0,7.52-.84,8.11,8.11,0,0,1,8.14,0,9.05,9.05,0,0,0,9.19,0c1.88-1.26,5-1.26,7.31-.42l-1.67,1.67"/><path class="cls-3" d="M2623.59,269.45a22.92,22.92,0,0,0-14.2,5.84v-4.8a24.9,24.9,0,0,1,10.86-4.39,46.44,46.44,0,0,1,3.34,3.35"/><path class="cls-3" d="M2623.59,315.19l-3.34,3.34a29.07,29.07,0,0,1-10.86-4.39v-4.8a23,23,0,0,0,14.2,5.85"/><rect class="cls-3" x="2605.63" y="273.21" width="2.71" height="2.71"/><rect class="cls-3" x="2605.63" y="308.71" width="2.71" height="2.71"/><rect class="cls-3" x="2598.29" y="291.02" width="2.72" height="2.72" transform="translate(550.82 1919.02) rotate(-44.86)"/><path class="cls-3" d="M2602.91,307.67a29.56,29.56,0,0,1-4.59-10.87l3.34-3.33a23,23,0,0,0,5.85,14.2h-4.6"/><path class="cls-3" d="M2601.87,291.17l-3.34-3.35a26.27,26.27,0,0,1,4.59-10.85h4.81a22,22,0,0,0-6.06,14.2"/><path class="cls-3" d="M2624.84,269.24l1.88-1.88-1.88-1.88-1.88,1.88,1.88,1.88"/><path class="cls-3" d="M2622.76,317.27l1.88-1.88,1.88,1.88-1.88,1.88-1.88-1.88"/><path class="cls-3" d="M2625.89,269.45a22.92,22.92,0,0,1,14.2,5.84v-4.8a24.9,24.9,0,0,0-10.86-4.39l-3.34,3.35"/><path class="cls-3" d="M2625.89,315.19l3.34,3.34a29.07,29.07,0,0,0,10.86-4.39v-4.8a23,23,0,0,1-14.2,5.85"/><rect class="cls-3" x="2641.14" y="273.21" width="2.71" height="2.71"/><rect class="cls-3" x="2641.14" y="308.71" width="2.71" height="2.71"/><rect class="cls-3" x="2648.47" y="290.91" width="2.71" height="2.71" transform="translate(575.45 1966.78) rotate(-45.21)"/><path class="cls-3" d="M2646.57,307.67a29.72,29.72,0,0,0,4.59-10.87l-3.34-3.33a23,23,0,0,1-5.85,14.2h4.6"/><path class="cls-3" d="M2647.61,291.17l3.34-3.35a26.27,26.27,0,0,0-4.59-10.85h-4.81a22,22,0,0,1,6.06,14.2"/><path class="cls-12" d="M2664.11,356.75a6,6,0,0,1-2.93,5.43l-.83-.42v-.42a7,7,0,0,0-.83-3.55c-.22-.21-.22-.41-.42-.63a9.28,9.28,0,0,1-1,6.06,5.11,5.11,0,0,1-3.76,2.3l-.63-.63a6.74,6.74,0,0,0,.63-2.71v-1a2.11,2.11,0,0,0-.83-1.47,9.92,9.92,0,0,1-1.25,4.39,5.89,5.89,0,0,1-5,2.71l-.42-.83a7.83,7.83,0,0,0,1.05-3.76,3,3,0,0,0-.42-1.26,21.55,21.55,0,0,0-2.51.63,121.14,121.14,0,0,1-40.09,0,19.34,19.34,0,0,1-2.51-.63,1.54,1.54,0,0,0-.42,1.26,7.83,7.83,0,0,0,1.05,3.76l-.42.83a5.68,5.68,0,0,1-5-2.71,7.79,7.79,0,0,1-1.25-4.39,3.37,3.37,0,0,0-.83,1.47v1a5.69,5.69,0,0,0,.62,2.71l-.62.63a5.13,5.13,0,0,1-3.76-2.3,8.06,8.06,0,0,1-1-6.06c-.21.22-.42.42-.42.63a6.26,6.26,0,0,0-.83,3.55v.42l-.84.42a6,6,0,0,1-2.92-5.43,119.88,119.88,0,0,1-38.85-21.52c-1,2.3-8.15,20.68-8.35,20.89.2,2.92,9.4,11.49,26.52,19.84,11.49,5.64,34.26,14.2,59.95,14.2s48.45-8.56,59.93-14.2c17.13-8.35,26.32-16.92,26.53-19.84,0-.21-7.31-18.38-8.35-20.89a122.1,122.1,0,0,1-38.85,21.52"/><path class="cls-10" d="M2548.61,209.71c0,4.18,1.46,9.82,3.76,15.88-.63,3.34-.42,8.77.63,14.82a53.93,53.93,0,0,0,2.5,10,83.84,83.84,0,0,1-7.31-14.2,67.31,67.31,0,0,1-4.59-20.68c-.21-3.13.62-8.36,2.09-13.37,1.67-5.84,3.34-8.77,4.38-9.19,0,0,.21-.21.63.21a55.72,55.72,0,0,0-2.09,16.5"/><path class="cls-10" d="M2701.08,209.71c0,4.18-1.47,9.82-3.76,15.88.63,3.34.41,8.77-.63,14.82a53.93,53.93,0,0,1-2.5,10,83.78,83.78,0,0,0,7.3-14.2,67,67,0,0,0,4.6-20.68c.21-3.13-.63-8.36-2.09-13.37-1.67-5.84-3.34-8.77-4.39-9.19,0,0-.2-.21-.62.21a55.72,55.72,0,0,1,2.09,16.5"/><path class="cls-8" d="M2624.22,165v23c-1.25-.42-16.29-6.89-16.92-7.1v-23l16.92,7.11"/><path class="cls-8" d="M2625.26,188V165l16.92-7.1v23c-.63.21-15.67,6.47-16.92,7.1"/><path class="cls-5" d="M2619.62,239.16c-2.71.21-4.39.63-4.59.84l.2,1a3.21,3.21,0,0,0,.84-.21,2,2,0,0,0,2.09,1.67c.83,0,1.46-.21,3.34-2.29h2.72v-1.05a28,28,0,0,0-4.6,0"/><path class="cls-3" d="M2546.79,351.69a3.46,3.46,0,0,1,1-.95,2.85,2.85,0,0,1,1.13-.47,2.25,2.25,0,0,1,1.1,0,4.25,4.25,0,0,1,1.15.53,2.43,2.43,0,0,1,.78.85,3,3,0,0,1,.26,1,2.52,2.52,0,0,1-.22,1.12,5.35,5.35,0,0,1-.59,1.17l-1.78,2.59c-.7-.47-1.39-1-2.08-1.45-1.75-1.25-2-2.74-.7-4.41m3.7-2.32a.87.87,0,0,1-.31-.62.81.81,0,0,1,.22-.68,1.47,1.47,0,0,1,.59-.41.82.82,0,0,1,.67.12.84.84,0,0,1,.31.6,1,1,0,0,1-.22.68,1,1,0,0,1-.58.42.88.88,0,0,1-.68-.11m-1.51,6.05,1.13-1.62a2.24,2.24,0,0,0,.48-1.17.92.92,0,0,0-.4-.82,1.21,1.21,0,0,0-.95-.15,2.38,2.38,0,0,0-1,.8,2.84,2.84,0,0,0-.63,1.45,1.45,1.45,0,0,0,.79,1.1l.53.37.05,0m3.34-4.75a.81.81,0,0,1-.33-.6,1,1,0,0,1,.22-.68,1.31,1.31,0,0,1,.57-.43.81.81,0,0,1,.67.1.85.85,0,0,1,.32.6,1,1,0,0,1-.2.68,1,1,0,0,1-.58.44.86.86,0,0,1-.67-.11"/><path class="cls-3" d="M2566.69,359.42a.84.84,0,0,1-.39-.55,1,1,0,0,1,.12-.71,1.33,1.33,0,0,1,.51-.49.82.82,0,0,1,.67,0,.8.8,0,0,1,.38.55,1,1,0,0,1-.11.7,1,1,0,0,1-.51.5.82.82,0,0,1-.67,0m1.9,1a.89.89,0,0,1-.4-.55,1,1,0,0,1,.11-.7,1.63,1.63,0,0,1,.5-.51.73.73,0,0,1,1.07.53,1,1,0,0,1-.11.71,1,1,0,0,1-.49.51.85.85,0,0,1-.68,0"/><path class="cls-3" d="M2572.48,368.59l.79-1.82a2.53,2.53,0,0,0,.25-1.29,1,1,0,0,0-.53-.71,1,1,0,0,0-1,.11,2.3,2.3,0,0,0-.79.93,3,3,0,0,0-.32,1.55,1.46,1.46,0,0,0,1,.92l.57.25m-2.27.48a2.54,2.54,0,0,1-.55-.59,2.09,2.09,0,0,1-.32-.55,3.22,3.22,0,0,1-.08-.51,1.31,1.31,0,0,1-.93.51,2,2,0,0,1-1.23-.24,132.83,132.83,0,0,1-16.49-9.43c.26-.4.53-.79.79-1.18,1,.69,2.07,1.37,3.12,2a3.22,3.22,0,0,0,.46-.95,3.14,3.14,0,0,0,.21-1.18,3.63,3.63,0,0,0-.23-1.32,3.89,3.89,0,0,0-.92-1.49l.91-1.17a4.94,4.94,0,0,1,1.36,1.69,4.53,4.53,0,0,1,.48,1.77,4.42,4.42,0,0,1-.22,1.75,5.36,5.36,0,0,1-.71,1.59h0c1.47.9,2.94,1.77,4.43,2.61l.61-1.08a3.22,3.22,0,0,0,.41-1,1.58,1.58,0,0,0,0-.78,1.94,1.94,0,0,0-.4-.66,5.92,5.92,0,0,0-.81-.61l-.54-.32-.43-.25.79-1.11.43.25.58.34a6,6,0,0,1,1.37,1.07,3.16,3.16,0,0,1,.69,1.17,2.47,2.47,0,0,1,0,1.21,5,5,0,0,1-.47,1.22l-.74,1.35c.86.47,1.72.93,2.59,1.38l2.2-4.28,1.38.7-2.16,4.3c.7.36,1.41.7,2.11,1a.49.49,0,0,0,.42.06,1.6,1.6,0,0,0,.41-.22c.13-.14.29-.2.36-.37s.21-.31.29-.48a4.9,4.9,0,0,1,.86-1.3,2.76,2.76,0,0,1,1-.75,2.13,2.13,0,0,1,1.11-.17,4.11,4.11,0,0,1,1.12.3,2,2,0,0,1,.86.65,2,2,0,0,1,.44.92,3.76,3.76,0,0,1,.05,1.16,5.57,5.57,0,0,1-.37,1.32c-.23.53-.45,1.06-.67,1.59.89.38,1.79.74,2.68,1.09l2.89-7.35,1.39.54-3.3,8.71c-2.18-.83-4.34-1.71-6.48-2.66a2.88,2.88,0,0,1-.89-.53"/><path class="cls-3" d="M2582.71,364.15l1.4.49c-1,2.94-2,5.87-3.05,8.81l-1.51-.54,3.16-8.76"/><path class="cls-3" d="M2589.44,368.54a.83.83,0,0,1-.48-.46,1,1,0,0,1,0-.72,1.34,1.34,0,0,1,.4-.58.78.78,0,0,1,.65-.14.82.82,0,0,1,.47.46,1,1,0,0,1,0,.71,1,1,0,0,1-.39.6.84.84,0,0,1-.66.13m.34,6.12.93-3.39a.75.75,0,0,1-.35-.16L2590,371a1.14,1.14,0,0,0-1.09.2,2.08,2.08,0,0,0-.73,1.14,3.51,3.51,0,0,0-.16.73.94.94,0,0,0,.1.67,1.75,1.75,0,0,0,.32.54,1,1,0,0,0,.67.31l.54.15.09-.1m1.69-5.55a.83.83,0,0,1-.49-.45,1,1,0,0,1,0-.72,1.52,1.52,0,0,1,.39-.59.83.83,0,0,1,.65-.15.84.84,0,0,1,.48.45,1,1,0,0,1,0,.71,1,1,0,0,1-.38.6.79.79,0,0,1-.65.15m2,11a.87.87,0,0,1-.55-.45.8.8,0,0,1-.05-.77,1.29,1.29,0,0,1,.38-.61.85.85,0,0,1,.68-.15.91.91,0,0,1,.55.44,1,1,0,0,1,.07.72,1.15,1.15,0,0,1-.39.66.88.88,0,0,1-.69.16m2.21.5a.9.9,0,0,1-.56-.44.83.83,0,0,1-.07-.77,1.41,1.41,0,0,1,.38-.61.87.87,0,0,1,.68-.17.93.93,0,0,1,.55.43,1,1,0,0,1,.09.71,1.11,1.11,0,0,1-.38.68.89.89,0,0,1-.69.17m-8.93-6.18a3.21,3.21,0,0,1-.06-2.34,5.08,5.08,0,0,1,.54-1.19,3,3,0,0,1,2-1.34,3.65,3.65,0,0,1,1.39.08l1,.27a5.43,5.43,0,0,1,.91.37c-.41,1.55-.81,3.1-1.22,4.65,1.39.37,2.79.71,4.18,1,.36-1.56.71-3.13,1.07-4.69l1.47.33c-.33,1.56-.66,3.13-1,4.7q2,.42,3.9.78l.87-4.74,1.48.27q-.51,3.06-1,6.14a133.31,133.31,0,0,1-13.49-3,3,3,0,0,1-1.95-1.4m13.38,7.19a.94.94,0,0,1-.73-1.13,1.06,1.06,0,0,1,.41-.62.85.85,0,0,1,.67-.18.86.86,0,0,1,.57.41,1,1,0,0,1,.16.72,1.16,1.16,0,0,1-.41.68.86.86,0,0,1-.68.18"/><path class="cls-3" d="M2613.2,377.53a1.88,1.88,0,0,0,.56-.63,1.56,1.56,0,0,0,.22-.66,1.05,1.05,0,0,0-.27-.83,1.33,1.33,0,0,0-.78-.37,1.28,1.28,0,0,0-.83.1,4.64,4.64,0,0,0-.75.36,1.73,1.73,0,0,1,.51.36,2.6,2.6,0,0,1,.45.48,4,4,0,0,1,.45.53l.5.67m-10.08,4.85-.64-.1c.12-.46.23-.92.35-1.38l.57.09a1.82,1.82,0,0,0,1.18-.19,2.1,2.1,0,0,0,.61-1.35c.31-2.09.61-4.19.92-6.28l1.5.21c-.22,1.59-.43,3.18-.65,4.77l2.51.31a5.76,5.76,0,0,0,2.33-.25l-.45-.61a4.29,4.29,0,0,0-1-1,5.79,5.79,0,0,0-.77-.52l.33-1.46a8.56,8.56,0,0,1,1.55-.76,3.75,3.75,0,0,1,1.59-.22,2.48,2.48,0,0,1,1.11.29,2.81,2.81,0,0,1,.77.55,2.18,2.18,0,0,1,.43.77,2.77,2.77,0,0,1,.1.94,2.82,2.82,0,0,1-.36,1.15,4,4,0,0,1-.91,1l.64.42a1.53,1.53,0,0,0,.71.18l2.8.16c.12-2.64.23-5.26.36-7.89l1.47,0c-.11,3.11-.22,6.21-.32,9.32-1.49-.06-3-.13-4.46-.23a4.22,4.22,0,0,1-1.5-.36,4.09,4.09,0,0,1-1.12-.77,7.2,7.2,0,0,1-1.63.52,5.26,5.26,0,0,1-1.66.08l-2.69-.34a4.92,4.92,0,0,1-.29,1.27,3.51,3.51,0,0,1-.65,1,3,3,0,0,1-1.08.59,3.25,3.25,0,0,1-1.58,0"/><path class="cls-3" d="M2622.06,371.4l1.47,0-.06,9.31-1.59,0,.18-9.31"/><path class="cls-3" d="M2630.28,380.24a4.51,4.51,0,0,1-1.49-.81,2.79,2.79,0,0,1-.76-1.28,4.51,4.51,0,0,1-.26-1.53,4.82,4.82,0,0,1,0-.93,4.88,4.88,0,0,1,.14-.92l1.6-.43a2.86,2.86,0,0,0-.18,1c0,.38,0,.68,0,1.05a2.79,2.79,0,0,0,.21,1.17,1.46,1.46,0,0,0,.59.84,3.37,3.37,0,0,0,1,.51,6.76,6.76,0,0,0,1.63.08c2-.12,4-.3,6-.52-.18-1.59-.35-3.18-.53-4.78l1.5-.17c.25,2.06.51,4.12.76,6.18q-3.93.48-7.88.73a6.74,6.74,0,0,1-2.33-.19m3.14-6.67a.77.77,0,0,1-.61-.27,1,1,0,0,1-.26-.66,1.44,1.44,0,0,1,.17-.69.78.78,0,0,1,.55-.35.82.82,0,0,1,.61.27,1,1,0,0,1,.26.66,1,1,0,0,1-.16.69.77.77,0,0,1-.56.35m2.08-.16a.84.84,0,0,1-.61-.26,1,1,0,0,1-.27-.66,1.55,1.55,0,0,1,.15-.69.84.84,0,0,1,.56-.36.81.81,0,0,1,.6.25,1,1,0,0,1,.28.66,1,1,0,0,1-.15.69.85.85,0,0,1-.56.37"/><path class="cls-3" d="M2641.2,370.28l1.45-.21c.46,3.07.93,6.14,1.38,9.21l-1.57.22-1.26-9.22"/><path class="cls-3" d="M2645.27,382.46l-.63.1c0-.48-.06-.95-.1-1.42l.57-.09a1.84,1.84,0,0,0,1.08-.55,2.18,2.18,0,0,0,.16-1.46l-1-6.27,1.49-.25,1.11,6.19a4.06,4.06,0,0,1,.11,1.23,3.37,3.37,0,0,1-.33,1.12,2.88,2.88,0,0,1-.84.9,3.4,3.4,0,0,1-1.51.49"/><path class="cls-3" d="M2649.62,378.32l-1.77-9.14,1.45-.29,1.59,7.73,2.64-.57a.41.41,0,0,0,.35-.21,1.41,1.41,0,0,0,.19-.42c0-.19.1-.34,0-.52s0-.37-.07-.55a4.58,4.58,0,0,1-.14-1.55,2.73,2.73,0,0,1,.33-1.22,2,2,0,0,1,.75-.82,4,4,0,0,1,1.06-.46,1.91,1.91,0,0,1,1.06,0,2.09,2.09,0,0,1,.91.45,3.72,3.72,0,0,1,.75.88,5.83,5.83,0,0,1,.53,1.27c.28,1,.56,2,.85,3-.79.22-1.58.44-2.37.64a2.9,2.9,0,0,1-1,.14,3.72,3.72,0,0,1-.79-.13,2.56,2.56,0,0,1-.59-.23,3.07,3.07,0,0,1-.37-.36,1.33,1.33,0,0,1-.41,1,2,2,0,0,1-1.09.57c-1.33.3-2.66.58-4,.84m8.71-3.46-.51-1.9a2.54,2.54,0,0,0-.6-1.19,1,1,0,0,0-.84-.22,1,1,0,0,0-.68.68,2.3,2.3,0,0,0,0,1.22,2.94,2.94,0,0,0,.7,1.41,1.4,1.4,0,0,0,1.36.1l.6-.16s0,.05,0,.06"/><path class="cls-3" d="M2661,365.87c.61,1.94,1.21,3.89,1.82,5.83a3,3,0,0,1-.68.46l-.69.41c-.62-2.09-1.25-4.18-1.86-6.27l1.41-.43m1.44,12.26.17-.05.22-.06.22-.07.23-.07a2.23,2.23,0,0,1-.24-.19c0-.11-.07-.23-.11-.35a.87.87,0,0,1,0-.51,1.52,1.52,0,0,1,.18-.43,1.06,1.06,0,0,1,.36-.37,2.27,2.27,0,0,1,.57-.31l.39-.12a.85.85,0,0,1,.42,0c0,.28,0,.57,0,.85-.05,0-.2-.07-.31,0l-.33.1a.45.45,0,0,0-.3.22.51.51,0,0,0,0,.33c.09.29.37.4.92.23l.61-.19.31.94c-1,.32-2,.63-3,.92-.1-.31-.19-.63-.28-1l.09.11m1.31-3.23a5.61,5.61,0,0,1-1,.24,5.08,5.08,0,0,1-.92.08c-.11-.55-.21-1.09-.31-1.64a3.72,3.72,0,0,0,.95,0,4.45,4.45,0,0,0,.9-.14,2,2,0,0,0,1.12-.75,1.27,1.27,0,0,0,0-1.17l-2-6.11L2664,365c.66,2,1.34,4,2,6a4.47,4.47,0,0,1,.24,1.22,2.18,2.18,0,0,1-.28,1.13,3.15,3.15,0,0,1-.81,1,4.43,4.43,0,0,1-1.46.72"/><path class="cls-3" d="M2665.71,364.31l1.41-.51,3.22,8.74c-.5.18-1,.37-1.51.54l-3.12-8.77"/><path class="cls-3" d="M2673.39,363.56a.8.8,0,0,1-.67-.05,1,1,0,0,1-.46-.54,1.1,1.1,0,0,1-.07-.71.82.82,0,0,1,.43-.51.81.81,0,0,1,.66.05,1,1,0,0,1,.47.54,1.09,1.09,0,0,1,.07.71.82.82,0,0,1-.43.51"/><path class="cls-3" d="M2675.39,362.7a.86.86,0,0,1-.68-.05.74.74,0,0,1-.46-.53,1.45,1.45,0,0,1-.08-.71.82.82,0,0,1,.42-.52.85.85,0,0,1,.66,0,1.13,1.13,0,0,1,.48.53,1,1,0,0,1,.08.71.85.85,0,0,1-.42.53"/><path class="cls-3" d="M2677.59,368.06c-.47-1.07-1-2.14-1.43-3.21a.93.93,0,0,1-.38.1l-.3.13a1.18,1.18,0,0,0-.72.85,2.06,2.06,0,0,0,.15,1.35,3,3,0,0,0,.34.66.86.86,0,0,0,.5.45,1.41,1.41,0,0,0,.59.22.94.94,0,0,0,.68-.16l.51-.23m6.28-4.57a1.56,1.56,0,0,0,.14-.84,1.46,1.46,0,0,0-.17-.68,1,1,0,0,0-.67-.55,1.4,1.4,0,0,0-.88.1,1.44,1.44,0,0,0-.66.55,4.13,4.13,0,0,0-.46.71,1.71,1.71,0,0,1,.64,0,3.52,3.52,0,0,1,.64.16,5.74,5.74,0,0,1,.68.21,7.2,7.2,0,0,1,.74.32m-8.81,6.2a3.12,3.12,0,0,1-1.52-1.77,5,5,0,0,1-.34-1.27,3.33,3.33,0,0,1,.71-2.3,3.64,3.64,0,0,1,1.14-.83l1-.42a6.14,6.14,0,0,1,.95-.29l2,4.37c.71-.32,1.42-.65,2.12-1a5.88,5.88,0,0,0,1.88-1.48l-.7-.27a5.74,5.74,0,0,0-.68-.21,4.81,4.81,0,0,0-1.69-.14c-.16-.47-.32-.94-.49-1.41a8.64,8.64,0,0,1,.94-1.48,3.66,3.66,0,0,1,1.26-1.05,2.47,2.47,0,0,1,1.11-.36,2.79,2.79,0,0,1,1,.05,2.29,2.29,0,0,1,.79.41,2.71,2.71,0,0,1,.58.74,2.58,2.58,0,0,1,.3,1.17,3.74,3.74,0,0,1-.23,1.38h.78a1.51,1.51,0,0,0,.71-.25l1.27-.69c.15-.08.25-.14.29-.3a1.67,1.67,0,0,0,.07-.47c0-.19-.05-.32-.09-.51s-.13-.35-.22-.51a4.37,4.37,0,0,1-.56-1.46,2.6,2.6,0,0,1,0-1.27,2.08,2.08,0,0,1,.51-1,4,4,0,0,1,.91-.76,2.31,2.31,0,0,1,1-.33,2.13,2.13,0,0,1,1,.17,2.47,2.47,0,0,1,.93.66,5.38,5.38,0,0,1,.86,1.06l1.66,2.68c-.71.44-1.43.88-2.15,1.3a3,3,0,0,1-1,.43,2.85,2.85,0,0,1-.8.11,4.22,4.22,0,0,1-.59-.08,2,2,0,0,1-.46-.24,1.46,1.46,0,0,1-.09,1,2.1,2.1,0,0,1-.91.86l-1.12.61a4.45,4.45,0,0,1-1.5.52,3.88,3.88,0,0,1-1.39,0,6.92,6.92,0,0,1-1.13,1.34,5.26,5.26,0,0,1-1.4.95c-1.46.7-2.92,1.38-4.4,2a3.05,3.05,0,0,1-2.42.16m17.36-9.29c-.34-.56-.67-1.12-1-1.68a2.5,2.5,0,0,0-.91-1,1,1,0,0,0-.9,0,1,1,0,0,0-.47.85,2.26,2.26,0,0,0,.29,1.19,3,3,0,0,0,1.07,1.15,1.47,1.47,0,0,0,1.37-.3l.54-.33,0,.05"/><path class="cls-3" d="M2696,359.73q-2.51-3.92-5-7.83l1.28-.84,4.35,6.59c1.74-1.14,3.45-2.34,5.14-3.57-.24-.33-.49-.66-.73-1a3.24,3.24,0,0,0-.71-.77,1.5,1.5,0,0,0-.72-.31,1.74,1.74,0,0,0-.78.1,5,5,0,0,0-.95.52l-.52.36-.42.29-.68-1.18.42-.29.55-.39a5.86,5.86,0,0,1,1.57-.81,2.89,2.89,0,0,1,1.36-.16,2.32,2.32,0,0,1,1.14.46,5.33,5.33,0,0,1,.91.93l1.74,2.32q-3.9,2.93-7.95,5.53m6.78-.93a1,1,0,0,1-.72.13,1.06,1.06,0,0,1-.68-.43,1.09,1.09,0,0,1-.14-.73,1,1,0,0,1,.36-.63.94.94,0,0,1,.72-.13,1,1,0,0,1,.63.38,1.08,1.08,0,0,1,.19.77.94.94,0,0,1-.36.64"/></svg>